<svg width="27" height="30" viewBox="0 0 27 30" fill="none" xmlns="http://www.w3.org/2000/svg">
<g clip-path="url(#clip0_49_96)">
<path d="M18.8048 0C19.3058 0.242693 19.4859 0.641962 19.4468 1.18215C19.4154 1.63622 19.4468 2.09812 19.4389 2.56002C19.4311 3.12369 19.0631 3.52296 18.5543 3.51514C18.0376 3.51514 17.6853 3.12369 17.6853 2.54436C17.6853 2.07463 17.7088 1.60491 17.6775 1.14301C17.6383 0.602818 17.834 0.219207 18.3351 0C18.4995 0 18.6482 0 18.8048 0Z" fill="#352D29"/>
<path d="M10.5454 4.90866C14.1858 8.55689 17.8105 12.1738 21.4588 15.822C18.155 16.4327 15.2662 17.928 12.7218 20.0652C10.6002 17.9436 8.48643 15.822 6.35699 13.6926C8.47077 11.1561 9.9191 8.23591 10.5454 4.90866Z" fill="#352D29"/>
<path d="M11.3126 21.3257C11.0073 21.6232 10.6785 21.9363 10.3653 22.2495C9.26931 23.3455 8.17328 24.4494 7.06942 25.5376C5.91858 26.6806 4.33716 26.6806 3.18633 25.5376C2.40345 24.7625 1.62057 23.9797 0.845515 23.1968C-0.281832 22.0616 -0.281832 20.4645 0.837687 19.3372C2.2547 17.9123 3.67954 16.4875 5.0809 15.0861C7.15553 17.1686 9.21451 19.2275 11.3126 21.3257ZM6.26305 19.1493C6.16127 19.1962 5.93424 19.251 5.79332 19.3841C5.33925 19.7991 4.90867 20.2375 4.48591 20.6837C4.16493 21.0204 4.18842 21.5527 4.50157 21.8815C4.82255 22.2103 5.34708 22.2573 5.69155 21.9363C6.15345 21.5057 6.60752 21.0517 7.0381 20.5898C7.28079 20.3236 7.31994 19.9948 7.17119 19.666C7.00678 19.3372 6.74061 19.1727 6.26305 19.1493Z" fill="#352D29"/>
<path d="M10.9056 1.94938C10.9369 1.28393 11.25 0.728081 11.9155 0.414929C12.5731 0.101776 13.2072 0.195722 13.7866 0.641964C13.8492 0.688937 13.904 0.743739 13.9588 0.79854C17.8184 4.66597 21.6858 8.5334 25.5533 12.4008C26.0152 12.8627 26.2187 13.4029 26.0856 14.0527C25.8273 15.3288 24.3163 15.8925 23.2908 15.0861C23.1733 15 23.0715 14.8904 22.9698 14.7886C19.165 10.9838 15.3602 7.17902 11.5554 3.37422C11.1639 2.99061 10.9212 2.56002 10.9056 1.94938Z" fill="#352D29"/>
<path d="M13.7317 24.8408C14.178 24.4102 14.6242 24.011 15.0313 23.5647C15.3445 23.2281 15.2897 22.7505 14.953 22.3982C14.6164 22.0538 14.2641 21.7328 13.8805 21.357C14.3815 20.9734 14.8356 20.6289 15.3445 20.2375C15.7829 20.7385 16.2683 21.1769 16.6127 21.7093C17.239 22.6801 17.0825 23.9405 16.2918 24.7939C15.8847 25.2244 15.4384 25.6159 15.0235 26.0073C15.3758 26.3753 15.6811 26.6963 15.9786 27.0094C16.4875 27.5496 16.6127 28.3012 16.3074 28.9666C16.0099 29.6164 15.3601 30.0157 14.6399 29.9922C14.2249 29.9765 13.8492 29.8356 13.5517 29.546C12.1973 28.2464 10.8586 26.939 9.52765 25.6629C10.3575 24.833 11.1717 24.0188 12.0172 23.1811C12.5652 23.7213 13.1524 24.285 13.7317 24.8408Z" fill="#352D29"/>
<path d="M21.1534 4.36066C21.263 4.15711 21.3335 3.93008 21.4823 3.76567C22.0381 3.17851 22.6174 2.60701 23.1968 2.04333C23.5725 1.67538 24.1049 1.66755 24.4572 2.01202C24.8095 2.35648 24.8173 2.88884 24.4494 3.27246C23.8779 3.85962 23.2985 4.43895 22.7114 5.01045C22.4374 5.27663 22.1007 5.34709 21.7406 5.19834C21.404 5.06525 21.2082 4.74427 21.1534 4.36066Z" fill="#352D29"/>
<path d="M24.7234 7.03027C25.013 7.03027 25.3105 7.02245 25.6002 7.03027C26.0934 7.04593 26.477 7.42954 26.477 7.9071C26.477 8.38466 26.0934 8.7761 25.6002 8.78393C25.0052 8.79176 24.4102 8.79959 23.8152 8.78393C23.322 8.7761 22.9541 8.37683 22.9619 7.89144C22.9697 7.42171 23.3299 7.04593 23.8152 7.03027C24.1206 7.02245 24.4259 7.03027 24.7234 7.03027Z" fill="#352D29"/>
</g>
<defs>
<clipPath id="clip0_49_96">
<rect width="26.477" height="30" fill="white"/>
</clipPath>
</defs>
</svg>
