<svg width="30" height="30" viewBox="0 0 30 30" fill="none" xmlns="http://www.w3.org/2000/svg">
<path d="M29.9453 20.8828C29.7422 21.3906 29.3516 21.5703 28.8125 21.5547C27.9687 21.5312 27.1172 21.5469 26.2656 21.5469C26.1562 21.5469 26.0547 21.5469 25.9531 21.5469C25.7656 22.2344 25.5156 22.4765 25.0234 22.4765C24.5391 22.4765 24.2734 22.2109 24.125 21.5625C18.0234 21.5625 11.9141 21.5625 5.8125 21.5625C5.64062 22.2265 5.38281 22.4765 4.88281 22.4765C4.39844 22.4687 4.14062 22.2109 3.98437 21.5469C3.39844 21.5469 2.80469 21.5469 2.21094 21.5469C1.78125 21.5469 1.35156 21.5547 0.921875 21.5469C0.34375 21.5312 0 21.1797 0 20.5781C0 16.5859 0 12.5937 0 8.59375C0 7.92187 0.335937 7.58594 1.00781 7.58594C4.54687 7.58594 8.08594 7.58594 11.625 7.58594C17.3594 7.58594 23.0859 7.59375 28.8203 7.57812C29.3594 7.57812 29.7422 7.73437 29.9531 8.25C29.9453 12.4609 29.9453 16.6719 29.9453 20.8828ZM23.0312 17.4453C24.625 17.4375 25.9219 16.1406 25.9062 14.5703C25.8984 12.9219 24.6562 11.6953 23.0156 11.6953C21.3828 11.6953 20.1406 12.9375 20.1328 14.5859C20.125 16.1484 21.4453 17.4531 23.0312 17.4453ZM14.9687 13.4297C14.9687 13.4219 14.9687 13.4141 14.9687 13.4062C15.6797 13.4062 16.3906 13.4375 17.1016 13.3984C17.5859 13.375 17.875 12.9766 17.8516 12.4922C17.8281 12.0391 17.5156 11.6875 17.0547 11.6875C15.6719 11.6719 14.2891 11.6719 12.9062 11.6875C12.4219 11.6953 12.1016 12.0625 12.1016 12.5469C12.1016 13.0781 12.4609 13.4219 13.0469 13.4297C13.6797 13.4453 14.3281 13.4297 14.9687 13.4297ZM4.89062 11.6875C4.39062 11.6953 4.02344 12.0625 4.03125 12.5625C4.03906 13.0391 4.4375 13.4375 4.91406 13.4297C5.39062 13.4219 5.79687 13.0078 5.78125 12.5391C5.76562 12.0469 5.39062 11.6797 4.89062 11.6875ZM8.0625 12.5469C8.0625 13.0312 8.45312 13.4219 8.92969 13.4219C9.40625 13.4219 9.8125 13.0078 9.80469 12.5469C9.79687 12.0547 9.42187 11.6875 8.92969 11.6797C8.42969 11.6875 8.0625 12.0547 8.0625 12.5469ZM4.89062 15.7109C4.39062 15.7187 4.03125 16.0937 4.03125 16.5937C4.03906 17.0781 4.42969 17.4609 4.92187 17.4531C5.40625 17.4453 5.79687 17.0391 5.78906 16.5703C5.76562 16.0703 5.38281 15.7031 4.89062 15.7109ZM8.94531 15.7109C8.44531 15.7031 8.07031 16.0625 8.0625 16.5625C8.05469 17.0469 8.4375 17.4375 8.92187 17.4453C9.40625 17.4531 9.8125 17.0625 9.8125 16.5859C9.8125 16.1016 9.4375 15.7187 8.94531 15.7109ZM12.9687 15.7109C12.4687 15.7031 12.0937 16.0625 12.0859 16.5625C12.0781 17.0469 12.4609 17.4375 12.9453 17.4453C13.4297 17.4531 13.8281 17.0625 13.8281 16.5859C13.8359 16.0937 13.4687 15.7187 12.9687 15.7109ZM17.8516 16.5703C17.8437 16.0703 17.4766 15.7109 16.9766 15.7109C16.4844 15.7109 16.1094 16.0859 16.1094 16.5781C16.1094 17.0547 16.5078 17.4453 16.9922 17.4453C17.4766 17.4453 17.8594 17.0547 17.8516 16.5703Z" fill="#352D29"/>
<path d="M23.0235 13.4375C23.6563 13.4375 24.1563 13.9375 24.1563 14.5703C24.1485 15.2188 23.6719 15.6953 23.0235 15.6953C22.3828 15.6953 21.8985 15.2188 21.8828 14.5703C21.875 13.9531 22.3985 13.4375 23.0235 13.4375Z" fill="#352D29"/>
</svg>
