<svg width="30" height="30" viewBox="0 0 30 30" fill="none" xmlns="http://www.w3.org/2000/svg">
<g clip-path="url(#clip0_49_162)">
<path d="M30 1.17493C30 4.7154 30 8.24803 30 11.7885C29.8668 11.7885 29.7258 11.7807 29.5927 11.7807C19.8642 11.7807 10.1279 11.7807 0.399478 11.7807C0.266319 11.7807 0.133159 11.7807 0.0078329 11.7807C0 8.2167 0 4.70756 0 1.17493C10.0104 1.17493 20.0052 1.17493 30 1.17493ZM3.50131 6.49346C3.49347 7.92689 4.7154 9.14098 6.16449 9.13315C7.60574 9.12532 8.81201 7.93472 8.81984 6.50913C8.82768 4.99738 7.66057 3.82245 6.15666 3.83028C4.65274 3.83028 3.50131 4.98955 3.50131 6.49346ZM26.483 6.5013C26.483 4.98172 25.3159 3.81461 23.812 3.83028C22.3081 3.84595 21.1645 4.99738 21.1723 6.50913C21.1723 7.92689 22.3786 9.12532 23.8198 9.14098C25.2611 9.14098 26.483 7.93472 26.483 6.5013ZM10.6136 3.83028C10.6136 4.42558 10.6136 4.98955 10.6136 5.55352C11.201 5.55352 11.7728 5.55352 12.3368 5.55352C12.3368 4.96605 12.3368 4.40991 12.3368 3.83028C11.7572 3.83028 11.201 3.83028 10.6136 3.83028ZM14.1227 5.55352C14.718 5.55352 15.282 5.55352 15.846 5.55352C15.846 4.96605 15.846 4.39425 15.846 3.83028C15.2585 3.83028 14.6945 3.83028 14.1227 3.83028C14.1227 4.40991 14.1227 4.97388 14.1227 5.55352ZM19.3629 5.56135C19.3629 4.96605 19.3629 4.39425 19.3629 3.83028C18.7755 3.83028 18.2193 3.83028 17.6397 3.83028C17.6397 4.40991 17.6397 4.98172 17.6397 5.56135C18.2272 5.56135 18.7833 5.56135 19.3629 5.56135ZM12.3368 7.40208C11.7493 7.40208 11.1854 7.40208 10.6057 7.40208C10.6057 7.98172 10.6057 8.54568 10.6057 9.11749C11.1932 9.11749 11.7572 9.11749 12.3368 9.11749C12.3368 8.53785 12.3368 7.97388 12.3368 7.40208ZM15.8538 9.12532C15.8538 8.53785 15.8538 7.97388 15.8538 7.40208C15.2663 7.40208 14.7023 7.40208 14.1305 7.40208C14.1305 7.98172 14.1305 8.54568 14.1305 9.12532C14.7023 9.12532 15.2663 9.12532 15.8538 9.12532ZM17.6397 9.11749C18.235 9.11749 18.8068 9.11749 19.3708 9.11749C19.3708 8.53002 19.3708 7.96605 19.3708 7.40208C18.7833 7.40208 18.2115 7.40208 17.6397 7.40208C17.6397 7.98172 17.6397 8.53785 17.6397 9.11749Z" fill="#352D29"/>
<path d="M30 17.0679C30 20.5849 30 24.1018 30 27.6188C29.4204 27.6188 28.8408 27.6188 28.222 27.6188C28.222 28.1044 28.222 28.5352 28.222 28.9504C27.6267 28.9504 27.0627 28.9504 26.4674 28.9504C26.4674 28.5117 26.4674 28.0888 26.4674 27.6658C18.7911 27.6658 11.1462 27.6658 3.48566 27.6658C3.48566 28.1044 3.48566 28.5274 3.48566 28.9504C2.89036 28.9504 2.32639 28.9504 1.72326 28.9504C1.72326 28.5117 1.72326 28.0888 1.72326 27.6345C1.12796 27.6345 0.563989 27.6345 -0.0078125 27.6345C-0.0078125 24.094 -0.0078125 20.5849 -0.0078125 17.0522C0.125347 17.0522 0.24284 17.0522 0.360334 17.0522C10.128 17.0522 19.9034 17.0522 29.671 17.0522C29.7885 17.0522 29.8904 17.06 30 17.0679ZM13.2141 19.7154C9.9713 19.7154 6.74415 19.7154 3.51699 19.7154C3.51699 21.4856 3.51699 23.2402 3.51699 24.9869C6.75981 24.9869 9.97913 24.9869 13.2141 24.9869C13.2141 23.2245 13.2141 21.4778 13.2141 19.7154ZM18.5013 19.7154C17.906 19.7154 17.3342 19.7154 16.7703 19.7154C16.7703 20.3029 16.7703 20.859 16.7703 21.4308C17.3577 21.4308 17.9295 21.4308 18.5013 21.4308C18.5013 20.8433 18.5013 20.295 18.5013 19.7154ZM22.0105 19.7154C21.423 19.7154 20.859 19.7154 20.2794 19.7154C20.2794 20.295 20.2794 20.859 20.2794 21.4308C20.8669 21.4308 21.4308 21.4308 22.0105 21.4308C22.0105 20.8433 22.0105 20.2794 22.0105 19.7154ZM23.7964 21.4308C24.3917 21.4308 24.9556 21.4308 25.5196 21.4308C25.5196 20.8433 25.5196 20.2715 25.5196 19.7076C24.9321 19.7076 24.3682 19.7076 23.7964 19.7076C23.7964 20.2872 23.7964 20.8512 23.7964 21.4308ZM18.4857 24.9869C18.4857 24.4073 18.4857 23.8433 18.4857 23.2559C17.9139 23.2559 17.3421 23.2559 16.7703 23.2559C16.7703 23.8433 16.7703 24.4151 16.7703 24.9869C17.3577 24.9869 17.9139 24.9869 18.4857 24.9869ZM22.0026 24.9869C22.0026 24.4073 22.0026 23.8433 22.0026 23.2559C21.4308 23.2559 20.859 23.2559 20.2872 23.2559C20.2872 23.8433 20.2872 24.4151 20.2872 24.9869C20.8747 24.9869 21.4308 24.9869 22.0026 24.9869ZM23.7964 24.9713C24.3917 24.9713 24.9635 24.9713 25.5274 24.9713C25.5274 24.3838 25.5274 23.8277 25.5274 23.2637C24.94 23.2637 24.3682 23.2637 23.7964 23.2637C23.7964 23.8433 23.7964 24.3995 23.7964 24.9713Z" fill="#352D29"/>
<path d="M28.2376 13.5587C28.2376 14.1384 28.2376 14.6945 28.2376 15.2741C19.4178 15.2741 10.598 15.2741 1.76245 15.2741C1.76245 14.7102 1.76245 14.1462 1.76245 13.5587C10.5745 13.5587 19.3865 13.5587 28.2376 13.5587Z" fill="#352D29"/>
<path d="M6.14887 7.36291C5.63973 7.35508 5.24808 6.94776 5.25591 6.43863C5.27158 5.96082 5.69456 5.56134 6.1802 5.56917C6.65017 5.58484 7.05748 5.98432 7.05748 6.45429C7.05748 6.97126 6.658 7.37074 6.14887 7.36291Z" fill="#352D29"/>
<path d="M24.7207 6.46214C24.7207 6.97128 24.3212 7.37075 23.8121 7.36292C23.3186 7.35509 22.9269 6.96344 22.9269 6.46214C22.9269 5.98433 23.3421 5.56918 23.8277 5.56918C24.3055 5.57702 24.7207 5.98433 24.7207 6.46214Z" fill="#352D29"/>
<path d="M5.27155 23.2167C5.27155 22.6214 5.27155 22.0496 5.27155 21.4621C7.33943 21.4621 9.39165 21.4621 11.4595 21.4621C11.4595 22.0496 11.4595 22.6214 11.4595 23.2167C9.39948 23.2167 7.34726 23.2167 5.27155 23.2167Z" fill="#352D29"/>
</g>
<defs>
<clipPath id="clip0_49_162">
<rect width="30" height="30" fill="white"/>
</clipPath>
</defs>
</svg>
