<svg width="30" height="30" viewBox="0 0 30 30" fill="none" xmlns="http://www.w3.org/2000/svg">
<path d="M18.9657 2.82966C18.9657 3.68093 18.9657 4.48328 18.9657 5.30519C18.4667 5.34433 17.9873 5.3639 17.498 5.42261C11.8914 6.08797 7.42955 10.4128 6.60763 15.9901C6.51957 16.5772 6.49021 17.1839 6.48043 17.7807C6.46086 19.0234 6.48043 20.266 6.48043 21.5381C7.32192 21.5381 8.13405 21.5381 8.97554 21.5381C8.97554 20.7259 8.97554 19.9236 8.97554 19.0919C9.81702 19.0919 10.6292 19.0919 11.4706 19.0919C11.4706 19.904 11.4706 20.7064 11.4706 21.5674C11.6859 21.5674 11.862 21.587 12.0382 21.5674C13.3787 21.4011 14.5724 21.7631 15.727 22.4285C16.8327 23.0645 18.0068 23.5831 19.181 24.1702C19.6213 23.3091 20.0519 22.4676 20.5117 21.5772C21.2456 21.949 21.9697 22.3208 22.7329 22.7024C22.3023 23.5635 21.8718 24.405 21.4217 25.2856C22.0284 25.5889 22.5861 25.9314 23.2025 26.1565C23.8288 26.3913 24.0832 26.7533 23.9951 27.4383C23.9266 27.9666 23.9853 28.5048 23.9853 29.0625C20.228 29.0625 16.5098 29.0625 12.7524 29.0625C12.7524 28.2504 12.7524 27.448 12.7524 26.6163C11.911 26.6163 11.0988 26.6163 10.2476 26.6163C10.2476 27.4187 10.2476 28.2308 10.2476 29.0625C9.39628 29.0625 8.60372 29.0625 7.75244 29.0625C7.75244 28.2504 7.75244 27.4383 7.75244 26.6066C6.90117 26.6066 6.09882 26.6066 5.24755 26.6066C5.24755 27.4187 5.24755 28.2308 5.24755 29.0625C3.97554 29.0625 2.74266 29.0625 1.5 29.0625C1.5 26.5772 1.5 24.1017 1.5 21.5968C2.31213 21.5968 3.11448 21.5968 3.97554 21.5968C3.97554 21.4206 3.97554 21.2837 3.97554 21.1467C3.99511 19.7083 3.94618 18.2602 4.03425 16.8218C4.29843 12.7709 5.97162 9.37564 8.98532 6.66527C11.7446 4.17995 15.0127 2.93729 18.7113 2.83944C18.7798 2.81987 18.8581 2.82966 18.9657 2.82966Z" fill="#F26522"/>
<path d="M21 7.5C21 5.49023 21 3.51562 21 1.51172C21.1028 1.50586 21.1982 1.5 21.2936 1.5C22.4091 1.5 23.5247 1.5 24.6476 1.5C26.7173 1.50586 28.3026 2.6543 28.4861 4.29492C28.6622 5.81836 27.143 7.31836 25.2274 7.45312C24.3247 7.51758 23.4146 7.48828 22.5119 7.49414C22.0202 7.5 21.5211 7.5 21 7.5Z" fill="#F26522"/>
</svg>
