<svg width="30" height="30" viewBox="0 0 30 30" fill="none" xmlns="http://www.w3.org/2000/svg">
<g clip-path="url(#clip0_50_55)">
<path d="M7.68159 0C12.5605 0 17.4468 0 22.3258 0C22.3624 0.0146771 22.3918 0.0366927 22.4358 0.0440313C23.6464 0.249511 24.4828 1.11546 24.6368 2.33366C24.6588 2.48777 24.6662 2.64188 24.6662 2.80332C24.6662 10.9344 24.6662 19.0729 24.6662 27.204C24.6662 28.8698 23.5437 30 21.8709 30C17.2927 30 12.7146 30.0073 8.13647 29.9926C7.7036 29.9926 7.22671 29.9046 6.83786 29.7284C5.7667 29.2294 5.28247 28.3415 5.28247 27.16C5.28247 19.3884 5.28247 11.6169 5.28247 3.83806C5.28247 3.46379 5.28247 3.09687 5.28247 2.7226C5.28981 1.83464 5.63463 1.10812 6.3463 0.557729C6.74248 0.249511 7.21204 0.110078 7.68159 0ZM8.85547 20.247C8.83346 23.6228 11.5847 26.4041 14.9743 26.4261C18.3492 26.4481 21.1299 23.6962 21.1519 20.3058C21.1739 16.93 18.4226 14.1487 15.033 14.1267C11.6581 14.0973 8.87748 16.8566 8.85547 20.247ZM14.9963 3.57387C12.5752 3.58121 10.6016 5.56996 10.6163 7.98434C10.631 10.3914 12.5972 12.3581 15.0037 12.3581C17.4175 12.3581 19.3984 10.3767 19.3984 7.96232C19.3984 5.54794 17.4101 3.56653 14.9963 3.57387Z" fill="#352D29"/>
<path d="M30.0007 11.7196C29.465 12.292 28.9513 12.8865 28.3863 13.4222C28.0707 13.7231 27.557 13.6497 27.2488 13.3341C26.9552 13.0259 26.8965 12.5342 27.1827 12.2187C27.6304 11.7196 28.1074 11.2426 28.6064 10.795C28.9954 10.4501 29.5971 10.5895 29.8686 11.0372C29.9127 11.1105 29.9567 11.1839 30.0007 11.2573C30.0007 11.4041 30.0007 11.5655 30.0007 11.7196Z" fill="#352D29"/>
<path d="M30.0007 21.7368C29.8319 22.0671 29.6191 22.3459 29.2081 22.3826C28.9146 22.4046 28.6724 22.3092 28.467 22.1037C28.0707 21.7075 27.6744 21.3185 27.2854 20.9222C26.9185 20.5406 26.9038 20.0122 27.2414 19.66C27.5937 19.2931 28.122 19.2931 28.5183 19.6747C28.9219 20.0636 29.3109 20.4526 29.6925 20.8562C29.8172 20.9883 29.8906 21.1644 29.986 21.3185C30.0007 21.4653 30.0007 21.6047 30.0007 21.7368Z" fill="#352D29"/>
<path d="M30.0008 16.9887C29.766 17.4951 29.3697 17.6712 28.8193 17.6419C28.357 17.6125 27.8873 17.6419 27.4177 17.6345C26.8746 17.6272 26.4857 17.2603 26.4857 16.7539C26.4857 16.2549 26.8746 15.8806 27.4177 15.8733C27.8873 15.8659 28.357 15.8953 28.8193 15.8659C29.3624 15.8292 29.766 16.0127 30.0008 16.5191C30.0008 16.6805 30.0008 16.8346 30.0008 16.9887Z" fill="#352D29"/>
<path d="M3.04548 12.7177C2.98677 13.0773 2.84 13.3415 2.53912 13.4956C2.2309 13.6571 1.88599 13.6717 1.62914 13.4369C1.12278 12.9819 0.638431 12.4976 0.18344 11.9912C-0.110102 11.6683 -0.0440548 11.184 0.264165 10.8758C0.572384 10.5602 1.07141 10.5015 1.40898 10.795C1.90066 11.2427 2.36299 11.7123 2.81798 12.204C2.9354 12.3288 2.97209 12.5416 3.04548 12.7177Z" fill="#352D29"/>
<path d="M3.0088 20.4085C2.95009 20.5113 2.86937 20.7461 2.71526 20.9149C2.34099 21.3259 1.93737 21.7148 1.54109 22.0964C1.15949 22.4633 0.63111 22.478 0.278859 22.1404C-0.0807296 21.7955 -0.0880682 21.2672 0.278859 20.8855C0.689818 20.4526 1.11545 20.0343 1.54843 19.6233C1.81995 19.3665 2.15753 19.3151 2.4951 19.4765C2.82534 19.638 2.99412 19.9095 3.0088 20.4085Z" fill="#352D29"/>
<path d="M1.78327 15.8806C2.06947 15.8806 2.34834 15.8733 2.63454 15.8806C3.15558 15.8953 3.53718 16.2769 3.52985 16.7686C3.52251 17.2456 3.14824 17.6199 2.64188 17.6346C2.06947 17.6419 1.48973 17.6419 0.917319 17.6346C0.396282 17.6272 0.0146771 17.2383 0.0220157 16.7466C0.0293542 16.2696 0.403621 15.8953 0.909981 15.8806C1.19618 15.8733 1.48973 15.8806 1.78327 15.8806Z" fill="#352D29"/>
<path d="M14.9963 24.6649C12.5752 24.6576 10.6016 22.6762 10.6089 20.2544C10.6162 17.8327 12.6045 15.866 15.0256 15.8733C17.4321 15.888 19.3983 17.8621 19.3983 20.2691C19.3983 22.6908 17.4174 24.6722 14.9963 24.6649ZM15.011 17.6419C13.5803 17.6346 12.3844 18.8234 12.3697 20.2618C12.3551 21.6854 13.5363 22.889 14.9816 22.911C16.4123 22.933 17.6375 21.7221 17.6375 20.2764C17.6375 18.8381 16.449 17.6492 15.011 17.6419Z" fill="#352D29"/>
<path d="M17.6376 8.0137C17.5935 9.46673 16.3903 10.6409 14.967 10.6042C13.507 10.5675 12.3184 9.33464 12.3698 7.91096C12.4285 6.45059 13.6317 5.28376 15.055 5.33513C16.515 5.3865 17.6816 6.59002 17.6376 8.0137ZM15.0037 8.84296C15.4806 8.84296 15.8841 8.44668 15.8841 7.96967C15.8841 7.49266 15.4879 7.09638 15.0037 7.09638C14.5268 7.09638 14.1306 7.49266 14.1306 7.96967C14.1306 8.44668 14.5268 8.84296 15.0037 8.84296Z" fill="#352D29"/>
<path d="M15.0039 21.1497C14.5268 21.1497 14.1232 20.7534 14.1232 20.2764C14.1232 19.7994 14.5195 19.3958 14.9965 19.3958C15.4735 19.3958 15.8771 19.7921 15.8771 20.2691C15.8845 20.7534 15.4882 21.1497 15.0039 21.1497Z" fill="#352D29"/>
</g>
<defs>
<clipPath id="clip0_50_55">
<rect width="30" height="30" fill="white"/>
</clipPath>
</defs>
</svg>
