<?xml version="1.0" encoding="utf-8"?><svg xmlns="http://www.w3.org/2000/svg" xmlns:xlink="http://www.w3.org/1999/xlink"><symbol viewBox="0 0 7 14" id="arrow-left" xmlns="http://www.w3.org/2000/svg"><path fill-rule="evenodd" clip-rule="evenodd" d="M6 14a1 1 0 00.768-1.64L2.293 6.989l4.316-5.362A1 1 0 005.047.373l-4.827 6A1 1 0 00.23 7.64l5 6A1 1 0 006 14"/></symbol><symbol viewBox="0 0 7 14" id="arrow-right" xmlns="http://www.w3.org/2000/svg"><path fill-rule="evenodd" clip-rule="evenodd" d="M1 14a1 1 0 01-.768-1.64l4.476-5.371L.391 1.627A1 1 0 011.952.373l4.827 6a1 1 0 01-.01 1.267l-5 6a1 1 0 01-.77.36"/></symbol><symbol viewBox="0 0 22 24" id="basket" xmlns="http://www.w3.org/2000/svg"><g clip-path="url(#ca)"><path d="M10.363 18.443a2.046 2.046 0 00-2.045 2.042 2.046 2.046 0 004.09 0 2.046 2.046 0 00-2.045-2.042zm6.134 0a2.046 2.046 0 00-2.045 2.042 2.046 2.046 0 004.089 0 2.046 2.046 0 00-2.044-2.042zm3.978-8.199L7.413 6.891a.614.614 0 00-.75.73L8.67 16.4h-.786L5.482 5.895a.613.613 0 00-.474-.464l-4.27-.882A.614.614 0 00.489 5.75l3.885.802L6.797 17.15a.613.613 0 00.598.477h12.07a.615.615 0 00.607-.53l.858-6.175a.613.613 0 00-.455-.678zm-8.14 3.91a.613.613 0 01-1.227 0v-2.696a.613.613 0 011.227 0v2.696zm2.625 0a.613.613 0 01-1.227 0v-1.88a.613.613 0 011.227 0v1.88zm2.625 0a.613.613 0 01-1.227 0v-1.226a.613.613 0 011.227 0v1.226z"/></g><path fill-rule="evenodd" clip-rule="evenodd" d="M16.268 4.568a2.996 2.996 0 00-1.693-.523c-.627 0-1.21.193-1.693.523-.28-.843-.492-1.752-.492-2.383C12.39.98 13.37 0 14.575 0s2.185.98 2.185 2.185c0 .631-.212 1.54-.492 2.383zm-4.722 2.274l.024.006v-.011l-.024.005zm4.972 1.217c-1.333-.33-2.766-.681-4.129-1.013a2.185 2.185 0 114.129 1.013zm4.436 1.103c-.866-.217-2.155-.538-3.618-.9a2.995 2.995 0 00.243-1.425c.87.18 1.762.45 2.308.765.596.344.969.928 1.067 1.56zM9.869 6.439c-.36-.086-.706-.167-1.03-.243a2.19 2.19 0 01-.376-2.667 2.188 2.188 0 013.147-.7c.098.738.338 1.599.61 2.353a3.01 3.01 0 00-.449.774c-.628.113-1.305.278-1.902.483zm10.124.075a3.43 3.43 0 01-.217.114c-.696-.295-1.587-.526-2.397-.672a3.01 3.01 0 00-.449-.774c.262-.727.494-1.553.599-2.273.095-.067.189-.128.278-.18a2.188 2.188 0 012.986.8 2.188 2.188 0 01-.8 2.985z"/><defs><clipPath id="ca"><path transform="translate(0 3.064)" d="M0 0h20.936v20.936H0z"/></clipPath></defs></symbol><symbol viewBox="0 0 344.96 344.96" id="check" xmlns="http://www.w3.org/2000/svg"><g data-name="Слой 2"><path class="dcls-1" d="M321.85 86.24l-40-23.11-23.1-40H212.5L172.48 0l-40 23.11H86.24l-23.11 40-40 23.1v46.21L0 172.48l23.11 40v46.21l40 23.11 23.11 40h46.21l40 23.1 40-23.11h46.21l23.11-40 40-23.11V212.5l23.11-40-23.11-40V86.24zM156.91 243.07a16.79 16.79 0 01-23.34 0l-50.45-50.44a16.19 16.19 0 010-22.89l13.35-13.35a16.19 16.19 0 0122.89 0l25.87 25.87 80.34-80.35a16.19 16.19 0 0122.89 0l13.35 13.35a16.19 16.19 0 010 22.89z" data-name="Capa 1"/></g></symbol><symbol viewBox="0 0 24 24" id="fb" xmlns="http://www.w3.org/2000/svg"><path d="M13.397 20.997v-8.196h2.765l.411-3.209h-3.176V7.548c0-.926.258-1.56 1.587-1.56h1.684v-2.86A22.108 22.108 0 0014.201 3c-2.444 0-4.122 1.492-4.122 4.231v2.355H7.332v3.21h2.753v8.201h3.312z"/></symbol><symbol viewBox="0 0 24 24" id="instagram" xmlns="http://www.w3.org/2000/svg"><path d="M11.999 7.377a4.624 4.624 0 100 9.248 4.624 4.624 0 000-9.248zm0 7.627a3.004 3.004 0 110-6.008 3.004 3.004 0 010 6.008zm4.807-6.719a1.078 1.078 0 100-2.156 1.078 1.078 0 000 2.156z"/><path d="M20.533 6.11A4.605 4.605 0 0017.9 3.48a6.607 6.607 0 00-2.186-.42c-.963-.042-1.268-.054-3.71-.054s-2.755 0-3.71.054a6.554 6.554 0 00-2.184.42 4.6 4.6 0 00-2.633 2.63 6.585 6.585 0 00-.419 2.186c-.043.962-.056 1.267-.056 3.71 0 2.442 0 2.753.056 3.71.015.748.156 1.486.419 2.187a4.61 4.61 0 002.634 2.632 6.583 6.583 0 002.185.45c.963.042 1.268.055 3.71.055s2.755 0 3.71-.055a6.616 6.616 0 002.186-.42 4.613 4.613 0 002.633-2.632c.263-.7.404-1.438.419-2.186.043-.962.056-1.267.056-3.71s0-2.753-.056-3.71a6.583 6.583 0 00-.421-2.217zm-1.218 9.533a5.046 5.046 0 01-.311 1.688 2.987 2.987 0 01-1.712 1.71c-.535.2-1.1.305-1.67.312-.95.044-1.218.055-3.654.055-2.438 0-2.687 0-3.655-.055a4.961 4.961 0 01-1.67-.311 2.984 2.984 0 01-1.718-1.711 5.08 5.08 0 01-.311-1.67c-.043-.95-.053-1.217-.053-3.653 0-2.437 0-2.686.053-3.655a5.038 5.038 0 01.311-1.687c.305-.79.93-1.41 1.719-1.712a5.01 5.01 0 011.669-.311c.95-.043 1.218-.055 3.655-.055s2.687 0 3.654.055a4.96 4.96 0 011.67.31 2.99 2.99 0 011.712 1.713 5.06 5.06 0 01.311 1.669c.043.95.054 1.218.054 3.655 0 2.436 0 2.698-.043 3.654h-.011v-.001z"/></symbol><symbol viewBox="0 0 60 60" id="sWorkPackage-1" xmlns="http://www.w3.org/2000/svg"><path d="M58.695 32.055c-.225.435-.585.63-1.065.69-.72.105-1.425.285-2.205.45.72.885 1.095 1.815.855 2.895-.15.69-.54 1.23-1.11 1.635-1.17.84-2.85.735-3.81-.24-1.125-1.125-1.005-2.61.39-4.485-.69-.12-1.35-.225-1.95-.33-.255 1.245-.39 2.43-.78 3.525-.48 1.365-1.05 2.73-1.8 3.96-1.305 2.16-2.025 4.44-1.995 6.96.015 1.695 0 3.405 0 5.115 0 .84-.3 1.155-1.155 1.155-1.92 0-3.855-.015-5.775.015-.585 0-.93-.225-1.185-.75-.615-1.26-1.245-2.505-1.905-3.825-4.68 1.29-9.36 1.305-14.07-.015-.63 1.245-1.26 2.445-1.83 3.69-.315.675-.75.915-1.485.9-1.845-.045-3.705-.015-5.55-.015-.84 0-1.155-.3-1.155-1.14V47.25c.015-2.535-.645-4.875-1.995-7.02-.51-.825-1.23-1.335-2.205-1.47l-4.725-.63c-.69-.09-.96-.39-.96-1.065V31.11c0-.6.27-.915.825-1.095 1.515-.48 3.015-1.005 4.53-1.485.345-.105.51-.285.6-.63.63-2.4 1.785-4.545 3.42-6.435.225-.255.3-.435.12-.765-1.14-2.025-1.875-4.185-2.25-6.48-.135-.78.24-1.245 1.02-1.245 3.09-.015 5.955.795 8.565 2.43.39.24.705.285 1.125.12 3.15-1.2 6.42-1.725 9.78-1.635.315.015.705.12.9.33.18.21.27.675.15.9-.12.255-.51.51-.81.54-1.02.09-2.055.06-3.075.135-1.98.15-3.915.585-5.85 1.245.435.48.855.93 1.23 1.395.39.495.75 1.035 1.08 1.575.33.525.225 1.05-.225 1.32-.465.285-.975.135-1.32-.42-2.415-3.795-5.94-5.595-10.275-6.06-.105-.015-.21 0-.51 0 .48 1.32.9 2.58 1.395 3.795.27.675.66 1.29 1.035 1.92.3.51.27.93-.135 1.365-1.95 2.025-3.255 4.41-3.855 7.17-.105.465-.375.735-.825.885-1.47.48-2.94.99-4.425 1.455-.345.105-.465.255-.465.63C3 33.51 3 34.95 3 36.45c1.17.15 2.295.36 3.45.45 2.04.165 3.495 1.11 4.485 2.91 1.245 2.265 1.935 4.65 1.95 7.23v4.59c1.575 0 3.105.015 4.635-.015.135 0 .315-.225.39-.39.99-1.95 1.965-3.915 2.94-5.865.09-.165.165-.345.27-.495a.858.858 0 011.155-.24c.39.24.57.6.39 1.05-.195.495-.45.975-.705 1.515 4.14 1.095 8.22 1.095 12.39 0-.21-.435-.405-.825-.585-1.215-.3-.615-.165-1.17.33-1.395.48-.225.975-.015 1.275.585 1.005 2.01 2.025 4.005 3 6.015.165.33.345.465.72.45 1.425-.03 2.835-.015 4.35-.015V51c.015-1.83-.03-3.675.075-5.49.135-2.28.975-4.35 2.22-6.27 1.53-2.37 2.295-4.995 2.16-7.815-.045-1.125-.345-2.25-.54-3.36-.03-.15-.09-.285-.12-.435-.105-.54.135-.96.615-1.11.465-.135.96.105 1.08.63.255 1.005.45 2.04.66 3.06.045.24.06.48.09.735 1.35.06 2.625.345 3.81.93.135.075.36 0 .525-.03 1.05-.255 2.1-.51 3.15-.795.63-.165 1.125-.06 1.515.495.015.135.015.33.015.51zm-4.155 3.45c.015-.48-.63-1.44-.99-1.455-.39-.03-1.2.99-1.2 1.485 0 .555.375.96.93.99.66.015 1.245-.45 1.26-1.02z"/><path d="M41.865 26.475c.09.27.165.51.24.735.18.585-.045 1.08-.54 1.23-.51.165-.975-.09-1.17-.675-.405-1.29-1.065-2.43-2.025-3.39-1.785-1.77-3.96-2.55-6.465-2.4-.255.015-.6.045-.75-.09-.225-.21-.48-.585-.45-.855.03-.27.345-.6.63-.735.3-.15.69-.105 1.05-.15-2.235-5.97 1.455-12.075 7.2-13.32 5.4-1.17 10.83 2.46 11.805 7.815 1.11 5.94-3.21 11.58-9.525 11.835zm7.845-9.885c.015-4.965-4.335-8.7-9.315-8.01-5.25.735-8.415 6.645-6.075 11.385.09.195.345.39.555.435 2.4.6 4.335 1.875 5.805 3.87.135.18.435.345.675.36 4.53.18 8.34-3.495 8.355-8.04zm-35.97 8.055c1.5-.015 2.73 1.2 2.73 2.685 0 1.47-1.185 2.685-2.655 2.7a2.711 2.711 0 01-2.73-2.685c-.015-1.455 1.2-2.685 2.655-2.7zm.93 2.73a.897.897 0 00-.855-.915c-.495-.03-.93.39-.93.9 0 .48.405.885.885.885s.885-.39.9-.87z"/><path d="M42.555 21.06c-.12.495-.375.87-.93.87s-.825-.375-.93-.855c-1.74-.165-2.73-1.17-2.67-2.655.03-.57.375-.96.885-.96.51-.015.87.36.915.93.06.675.195.825.9.84 0-.585.015-1.185-.015-1.77 0-.12-.15-.27-.285-.33-.225-.12-.495-.165-.735-.255-1.14-.435-1.83-1.545-1.635-2.7.195-1.185 1.125-2.01 2.355-2.1.075 0 .15-.015.255-.015.15-.495.405-.93 1.035-.87.495.045.735.39.84.84 1.545.21 2.325.795 2.595 1.965.06.24.075.48.06.72-.015.57-.39.945-.9.945-.48 0-.84-.36-.885-.9-.075-.735-.21-.87-.9-.855 0 .57-.015 1.155.015 1.725 0 .12.135.285.255.345.225.12.495.165.735.255 1.155.42 1.845 1.53 1.665 2.685-.18 1.17-1.11 2.025-2.34 2.13-.075.015-.165.015-.285.015zm-1.845-7.17c-.48-.075-.78.105-.87.57-.075.42.24.69.87.765V13.89zm1.83 5.37c.51 0 .855-.165.855-.645.015-.54-.375-.69-.855-.75v1.395z"/></symbol><symbol viewBox="0 0 60 60" id="sWorkPackage-2" xmlns="http://www.w3.org/2000/svg"><path d="M58.785 46.485c-.33.855-.96 1.14-1.86 1.125-1.89-.03-3.78.015-5.67-.015-2.76-.045-5.415.45-8.01 1.38-8.55 3.105-17.115 6.165-25.68 9.24-1.245.45-1.875.135-2.325-1.11C13.155 51.3 11.055 45.48 8.97 39.66c-.315-.87-.21-1.305.345-1.53.54-.21.93.09 1.23.945 2.04 5.655 4.08 11.325 6.105 16.98.075.195.135.375.225.63 6.18-2.22 12.3-4.425 18.42-6.63 0-.03-.015-.06-.015-.09-1.38.24-2.775.465-4.155.705-3.765.645-7.515 1.29-11.265 1.935-.885.15-1.575-.33-1.725-1.26-.75-4.32-1.5-8.655-2.235-12.99-1.035-6-2.055-12.015-3.09-18.015-.285-1.695-.585-3.39-.885-5.19-2.955 1.02-5.88 2.01-8.85 3.03.075.24.135.42.195.615 1.905 5.295 3.81 10.575 5.7 15.87.045.135.12.285.15.42.105.465-.075.825-.51.99-.45.165-.81 0-1.035-.405-.06-.09-.09-.21-.12-.315a1800.04 1800.04 0 01-5.985-16.59c-.135-.39-.18-.945 0-1.275.21-.375.675-.705 1.095-.855 2.805-1.005 5.64-1.965 8.475-2.94.195-.06.375-.135.585-.21-.15-.825-.285-1.62-.42-2.415-.225-1.32.165-1.89 1.485-2.115 3.03-.525 6.075-1.05 9.18-1.575V3.165c.015-1.08.555-1.62 1.62-1.665h.39c8.685 0 17.37 0 26.04-.015.75 0 1.305.21 1.845.735 2.07 2.01 4.17 3.99 6.24 5.985.285.27.51.585.765.885.015 12.465.015 24.93.015 37.395zM38.565 47.7v-.09H23.58c-1.14 0-1.725-.555-1.725-1.665v-16.23c0-.645.33-1.05.84-1.05.51-.015.825.375.84 1.035v16.185H57.06V10.38h-.675c-1.74 0-3.48.015-5.22-.03-1.215-.03-1.92-.825-1.95-2.025V3.24h-25.65c-.015.18-.03.315-.03.465V25.32c0 .735-.27 1.095-.81 1.11-.555.015-.855-.375-.87-1.125V9.09a3882.12 3882.12 0 01-9.015 1.545l6.915 40.29c6.3-1.08 12.555-2.16 18.81-3.225zM50.91 3.765c0 1.53.015 2.925-.015 4.32-.015.45.15.6.585.6 1.425-.015 2.835 0 4.26 0 .06 0 .12-.045.24-.09-1.695-1.605-3.33-3.165-5.07-4.83z"/><path d="M40.545 25.71h11.55c.18 0 .375-.015.555.015.435.09.705.375.705.81 0 .465-.27.765-.735.84-.105.015-.225.015-.33.015H28.725c-.135 0-.27.015-.39-.015-.435-.09-.705-.36-.705-.81 0-.45.24-.735.69-.84.18-.045.375-.015.555-.015h11.67zm-.015-5.97h11.55c.18 0 .375-.015.555.015.435.06.735.345.69.735-.03.3-.285.615-.525.825-.15.135-.465.09-.705.09H28.53c-.6-.03-.96-.39-.945-.885.03-.48.375-.795.96-.795 4.02.015 8.01.015 11.985.015zm0 13.635H28.8c-.18 0-.42.06-.555-.03-.24-.18-.525-.435-.615-.705-.12-.36.105-.705.48-.84.225-.075.48-.09.72-.09h23.565c.6.03.975.375.975.87-.015.495-.39.81-1.005.81-3.945-.015-7.89-.015-11.835-.015zm-.06-19.62h11.55c.21 0 .42-.015.615.03.48.075.735.39.72.855-.015.435-.285.72-.735.78-.21.03-.405.015-.615.015H28.95c-.225 0-.45 0-.675-.03-.435-.075-.645-.36-.66-.78-.015-.42.195-.72.63-.81.21-.045.45-.045.675-.045 3.855-.015 7.71-.015 11.55-.015zm0 23.94h11.61c.18 0 .375 0 .555.015.45.06.705.36.72.795.015.42-.21.72-.63.81a2.76 2.76 0 01-.615.06H28.83a2.41 2.41 0 01-.66-.075c-.405-.135-.66-.465-.525-.855.09-.285.39-.525.66-.72.135-.105.405-.03.6-.03H40.47z"/></symbol><symbol viewBox="0 0 60 60" id="sWorkPackage-3" xmlns="http://www.w3.org/2000/svg"><path d="M58.71 19.5c-.33.405-.765.51-1.29.495-1.365-.03-2.73 0-4.095-.015-.69 0-1.035-.27-1.05-.81-.015-.555.36-.855 1.065-.87 1.38-.015 2.76.015 4.155-.015.495 0 .915.12 1.215.525v.69zm0 14.37c-.3.42-.69.555-1.2.555-1.17-.03-2.355 0-3.54-.015-.165 0-.345 0-.495-.03-.435-.105-.675-.405-.645-.855.03-.48.315-.765.795-.78 1.425-.015 2.835-.03 4.26.015.285.015.555.36.825.555v.555zm0-11.115c-.225.45-.6.615-1.095.6-1.17-.03-2.355 0-3.525-.015-.645 0-.99-.285-.99-.81-.015-.54.345-.855 1.005-.87 1.2-.015 2.385-.045 3.585.015.36.015.69.33 1.035.495-.015.21-.015.405-.015.585zm0 7.755c-.285.42-.69.57-1.2.555-1.065-.03-2.13.03-3.195-.03-.3-.015-.675-.24-.855-.48-.12-.18-.075-.615.075-.81.15-.195.495-.345.75-.345 1.155-.03 2.31 0 3.465-.015.465 0 .72.24.945.585.015.165.015.345.015.54z"/><path d="M47.115 42.12l1.125 1.17c.42.435.48.93.12 1.29-.36.375-.825.345-1.29-.075-.345-.315-.675-.645-1.035-.975-.825.87-1.635 1.71-2.475 2.58.045.06.09.135.15.195 3.225 3.075 6.45 6.15 9.66 9.225.54.525 1.17.735 1.905.51.69-.21 1.095-.705 1.23-1.395.135-.705-.15-1.275-.66-1.755l-5.805-5.535c-.12-.12-.255-.225-.345-.36-.27-.36-.255-.735.06-1.065.315-.33.69-.345 1.065-.12.09.06.18.135.255.21 2.04 1.95 4.095 3.885 6.12 5.865.975.96 1.275 2.145.87 3.465-.405 1.305-1.305 2.13-2.64 2.4-1.245.255-2.31-.135-3.225-1.02l-8.235-7.875-1.725-1.635c-5.895 4.5-12.495 6.27-19.8 5.115-6.42-1.005-11.7-4.14-15.735-9.225C-1.29 32.985-.495 18.87 8.55 9.585c8.685-8.91 22.965-9.99 33.03-2.55 10.845 8.025 13.74 23.79 5.535 35.085zm3.015-14.73C50.16 14.415 39.6 3.825 26.595 3.78 13.56 3.735 2.925 14.31 2.91 27.345 2.88 40.365 13.5 51 26.52 50.985 39.54 50.97 50.115 40.41 50.13 27.39zm5.985-1.86c.69 0 1.095.315 1.08.855-.015.525-.39.825-1.05.825-.69 0-1.095-.315-1.08-.855 0-.525.39-.825 1.05-.825z"/><path d="M47.67 27.33c-.075 10.635-8.19 19.785-18.72 20.91-6.585.705-12.285-1.245-17.1-5.805-.06-.045-.105-.105-.165-.15-.435-.45-.465-.915-.09-1.275.345-.345.795-.315 1.245.06.84.72 1.65 1.485 2.535 2.115 7.425 5.28 17.655 4.605 24.285-1.65 4.62-4.365 6.66-9.765 6.09-16.08-.81-9.045-8.175-16.41-17.205-17.31-9.96-1.005-18.945 5.52-20.97 15.36-1.065 5.115-.12 9.915 2.67 14.355.06.09.12.18.18.285.375.585.33 1.095-.12 1.38-.435.27-.9.12-1.275-.435a20.416 20.416 0 01-2.415-4.86C2.82 22.98 8.865 10.995 20.145 7.335 31.77 3.57 44.385 10.77 47.01 22.74c.33 1.5.45 3.06.66 4.59z"/><path d="M31.14 37.77h-8.58c-3.285 0-5.4-2.13-5.4-5.415v-12.06c0-3.21 2.13-5.34 5.34-5.34h15.825c.21 0 .42 0 .615.06.42.12.615.42.585.84-.03.405-.24.66-.645.735-.225.045-.45.03-.675.03h-15.6c-.825 0-1.605.105-2.295.6-.99.705-1.485 1.65-1.485 2.865v12.51c0 2.025 1.41 3.465 3.45 3.495 1.275.03 2.55 0 3.81 0h13.8c.18 0 .375-.015.555.015.42.06.675.315.72.735.045.42-.15.735-.57.855-.21.06-.435.06-.66.06-2.91.03-5.85.015-8.79.015z"/><path d="M22.23 19.995V32.73h19.41c.21 0 .42-.015.615.015.42.045.69.3.735.72.045.45-.165.765-.6.885-.195.06-.405.06-.615.06H22.53c-1.38 0-2.01-.645-2.01-2.04V20.31c0-1.38.63-2.01 2.025-2.01h8.805c.21 0 .42 0 .615.06.42.105.63.405.6.825-.015.42-.24.705-.675.765-.195.03-.405.03-.615.03H22.86c-.18.015-.39.015-.63.015z"/><path d="M40.695 23.865a2.487 2.487 0 012.49 2.505 2.506 2.506 0 01-2.505 2.49 2.51 2.51 0 01-2.52-2.535 2.516 2.516 0 012.535-2.46zm.81 2.475a.83.83 0 00-.84-.795c-.45.015-.825.39-.81.825.015.45.39.81.84.795a.82.82 0 00.81-.825zm-16.485-.015a2.475 2.475 0 012.52-2.46c1.395 0 2.49 1.11 2.49 2.49 0 1.41-1.14 2.52-2.55 2.49a2.465 2.465 0 01-2.46-2.52zm2.475-.78c-.465.015-.81.36-.795.825.015.465.36.795.825.795.465-.015.81-.375.795-.825 0-.465-.36-.795-.825-.795zm6.615-1.68a2.465 2.465 0 012.49 2.49 2.484 2.484 0 01-2.475 2.505 2.51 2.51 0 01-2.535-2.52 2.497 2.497 0 012.52-2.475zm.015 1.68a.801.801 0 00-.84.795.82.82 0 00.795.84.801.801 0 00.84-.795.82.82 0 00-.795-.84zm4.095-5.55h-2.685c-.645 0-.99-.3-1.005-.81-.015-.525.345-.87 1.005-.87 1.83-.015 3.66-.015 5.49 0 .66 0 1.02.345 1.005.87-.015.51-.36.795-1.005.81H38.22z"/></symbol><symbol viewBox="0 0 60 60" id="sWorkPackage-4" xmlns="http://www.w3.org/2000/svg"><g clip-path="url(#ja)"><path d="M60 42.328c-.281.531-.734.688-1.313.672-.874-.031-1.75 0-2.671 0-.094 1.953-.813 3.563-2.344 4.75-1.14.89-2.438 1.297-3.875 1.25-2.469-.078-5.5-1.906-5.75-5.938h-21.11c-.093 2.047-.921 3.72-2.609 4.907-1.14.797-2.437 1.14-3.828 1.031-2.625-.219-5.313-2.219-5.516-5.953a7.921 7.921 0 00-.609-.031H6.391c-1.688 0-2.391-.703-2.407-2.375V39c-.937 0-1.828-.031-2.718.016-.563.015-.985-.141-1.282-.625v-.578c.266-.47.657-.672 1.204-.672 2.828.015 5.656 0 8.5 0 .093 0 .203 0 .296.015.563.063.922.453.907.953-.016.5-.391.875-.97.891-1.108.016-2.218 0-3.343.016h-.672v2.14h1.938c1.015 0 2.031-.015 3.047 0 .328 0 .468-.11.609-.406 1.078-2.328 2.922-3.61 5.484-3.594 2.532.016 4.36 1.282 5.438 3.578.125.282.265.422.594.422 6.234-.015 12.453-.015 18.687-.015.094 0 .188-.016.344-.032a8.97 8.97 0 00.031-.64c0-2.047-.016-4.094.016-6.14 0-.36.203-.829.468-1.048.579-.468 1.376.047 1.391.86.016 1.39 0 2.765 0 4.156 0 .781-.016 1.562.016 2.344 0 .172.11.328.172.484.14-.125.343-.219.422-.375.828-1.766 2.14-2.953 4.046-3.438a5.877 5.877 0 016.828 3.297c.172.391.376.563.813.532.594-.047 1.203-.016 1.828-.016v-4.156c-.406 0-.781.015-1.172 0-1.547-.078-2.75-1.282-2.797-2.828a42.077 42.077 0 010-1.985c.016-.687.344-1.031 1.063-1.047.89-.015 1.781 0 2.687 0-.172-1.047-1.28-2.078-2.468-2.078-3.782-.047-7.578-.015-11.438-.015 0 .343.016.672 0 1-.031.593-.406.984-.937.984-.5 0-.875-.375-.938-.938-.016-.171 0-.343 0-.53V13.015H5.875v16.907c-.016.656-.36 1.062-.89 1.078-.563.016-.97-.406-.97-1.078-.015-2.063 0-4.125 0-6.203V13.375c-.015-1.531.75-2.281 2.266-2.281H41.72c1.5 0 2.234.734 2.234 2.219v1.734c.25.015.453.031.656.031 2.016 0 4.032.047 6.032-.015 2.53-.063 4.734 1.687 4.297 5.093-.047.313-.376.594-.641.985.453 1.78.922 3.734 1.422 5.672.031.156.218.343.36.375 2.093.546 3.374 1.859 3.827 3.968.016.047.047.11.078.157.015 3.67.015 7.343.015 11.015zM44 20.984v6.078h9.828c-.469-1.906-.953-3.75-1.39-5.593-.094-.375-.25-.5-.626-.485-2.265.016-4.53 0-6.796 0H44zm6.031 26.125c2.219 0 4.063-1.828 4.078-4.047.016-2.218-1.812-4.046-4.047-4.078-2.234-.03-4.124 1.828-4.109 4.078.016 2.204 1.86 4.047 4.078 4.047zm-33.078 0a4.073 4.073 0 004.094-4.03c.031-2.235-1.828-4.11-4.078-4.095-2.235 0-4.063 1.828-4.063 4.047-.015 2.219 1.828 4.063 4.047 4.078zm36.094-28.047c.078-1.187-.828-2.078-2.11-2.078-2.187-.015-4.374 0-6.546 0-.125 0-.266.032-.407.047v2.032h9.063zm3 13.938c-.219 1.875.328 2.297 2.047 2.016V33h-2.047z"/><path d="M22.969 28.766c1.703-1.72 3.328-3.344 4.953-4.97 1.11-1.108 2.203-2.218 3.312-3.312.594-.593 1.422-.468 1.657.25.14.438-.032.797-.344 1.094a365.51 365.51 0 00-2.578 2.563c-2.016 2.015-4.032 4.03-6.047 6.03-.735.735-1.125.735-1.86 0-1.484-1.468-2.953-2.952-4.437-4.421-.078-.078-.172-.156-.25-.25-.422-.453-.438-.969-.078-1.36.39-.406.937-.406 1.406.047a809.663 809.663 0 013.688 3.672c.172.188.343.391.578.657zm9.078 10.203h-6.625c-.219 0-.438.015-.64-.031-.47-.094-.782-.438-.704-.86.047-.328.344-.656.61-.89.14-.125.453-.094.671-.094h13.297c.14 0 .282 0 .407.015.546.079.906.485.874.985-.03.484-.39.844-.937.86-.734.015-1.484.015-2.219.015h-4.734zm-23.094-4H3.156c-.734 0-1.172-.36-1.156-.938.016-.547.438-.922 1.125-.922h11.656c.438 0 .875.11 1 .547.094.297.063.735-.11.953-.171.22-.593.344-.921.36-1.938.015-3.86 0-5.797 0zm41.063 6.156a1.924 1.924 0 011.968 1.89 1.958 1.958 0 01-1.906 1.97c-1.047.015-1.953-.86-1.969-1.922a1.891 1.891 0 011.907-1.938zm-31.11 1.922c0 1.078-.86 1.937-1.922 1.953-1.047 0-1.937-.89-1.953-1.938 0-1.062.86-1.921 1.938-1.921 1.078-.032 1.937.812 1.937 1.906z"/></g><defs><clipPath id="ja"><path d="M0 0h60v60H0z"/></clipPath></defs></symbol><symbol viewBox="0 0 60 60" id="sWorkPackage-5" xmlns="http://www.w3.org/2000/svg"><path d="M2.015 11.622l.219-1.505c.102-.731.497-1.242 1.213-1.476.701-.22 1.285-.015 1.797.482a520.99 520.99 0 014.018 4.018c.249.263.468.322.804.205.716-.263 1.446-.482 2.162-.745a.912.912 0 00.453-.453c.278-.73.483-1.49.76-2.221.117-.322.03-.497-.19-.716-1.315-1.3-2.6-2.601-3.916-3.902-.584-.57-.877-1.213-.599-2.016.278-.775.92-1.081 1.68-1.184 6.298-.891 11.646 3.96 11.383 10.316-.014.22.073.512.22.672 3.243 3.274 6.516 6.532 9.775 9.79.044.044.087.073.175.132.132-.131.278-.263.424-.394l10.52-10.521c.132-.132.249-.278.395-.38.365-.248.73-.234 1.052.073.322.307.336.687.088 1.037-.103.161-.263.307-.41.439l-13.15 13.15c-.176.176-.38.337-.54.468l2.702 2.703c.074-.073.22-.19.351-.336 7.014-7.014 14.028-14.013 21.027-21.04.219-.22.394-.512.511-.805.482-1.227.95-2.469 1.476-3.843-.79.293-1.432.6-2.09.79-1.578.423-2.82 1.315-3.916 2.513-1.154 1.286-2.44 2.455-3.653 3.682-.306.307-.642.41-1.037.205-.35-.19-.482-.497-.395-.877.044-.176.161-.365.307-.497a604.065 604.065 0 015.304-5.29c.205-.204.468-.35.731-.452 1.286-.512 2.586-.98 3.872-1.476.73-.293 1.403-.22 1.958.35.555.57.628 1.228.336 1.973-.467 1.198-.891 2.426-1.388 3.624-.19.438-.453.877-.789 1.213a21384.755 21384.755 0 01-18.206 18.22 5.726 5.726 0 01-.526.454c.16.19.277.321.394.438 3.127 3.127 6.269 6.268 9.381 9.396.278.277.54.394.95.38 5.874-.205 10.506 4.427 10.316 10.286-.015.482-.102.98-.176 1.461-.116.673-.511 1.126-1.154 1.33-.687.22-1.3.044-1.812-.468-1.315-1.315-2.645-2.615-3.93-3.945-.337-.336-.614-.423-1.038-.233-.35.16-.716.306-1.081.365-1.038.16-1.549.76-1.739 1.753-.102.556-.555 1.125-.438 1.593.117.497.73.862 1.14 1.286a301.131 301.131 0 003.053 3.054c.526.526.804 1.125.556 1.87-.249.76-.804 1.14-1.578 1.227-.468.059-.936.132-1.403.19h-.54c-.162-.029-.322-.073-.483-.087-5.363-.439-9.366-4.998-9.06-10.346.015-.35-.073-.57-.306-.803-2.105-2.09-4.209-4.194-6.313-6.298a4.431 4.431 0 00-.38-.336c-.146.146-.292.263-.409.395l-7.423 7.422-8.504 8.505c-.877.89-1.87 1.212-3.068.789a.485.485 0 00-.351-.015c-.6.248-1.184.526-1.783.789H8.327c-2.922-1.271-5.027-3.39-6.312-6.342v-1.417c.263-.584.54-1.184.789-1.783.043-.116.014-.277-.03-.394-.38-1.096-.146-2.046.658-2.864A434.17 434.17 0 017.1 41.532c.453-.453.935-.482 1.285-.117.337.351.293.833-.116 1.257-.41.424-.833.818-1.228 1.257-.321.35-.321.774-.088 1.169.234.38.614.555 1.038.423.263-.087.511-.277.701-.482a1134.65 1134.65 0 006.108-6.108c1.344-1.344 2.689-2.659 4.004-4.032.234-.249.424-.687.38-.994-.044-.278-.38-.6-.672-.76-.395-.205-.775.03-1.067.336l-4.252 4.252c-.819.819-1.637 1.651-2.484 2.47-.38.365-.833.365-1.17.043-.32-.306-.32-.789 0-1.183.088-.117.205-.205.308-.307l9.629-9.63c.131-.13.263-.277.409-.438-2.294-2.294-4.53-4.53-6.78-6.765-.131-.131-.38-.204-.57-.19-4.749.263-8.942-2.762-10.155-7.364-.19-.716-.248-1.461-.38-2.192.015-.19.015-.365.015-.555zm28.77 12.508c-.146-.132-.306-.249-.452-.38a6184.555 6184.555 0 00-9.79-9.776c-.337-.336-.512-.657-.453-1.154.496-3.975-2.032-7.76-5.904-8.855a7.755 7.755 0 00-3.974-.117c.19.205.321.35.453.482 1.3 1.3 2.6 2.616 3.916 3.902.584.57.73 1.227.468 2.002-.293.862-.585 1.724-.863 2.586-.219.687-.657 1.11-1.33 1.315-.832.263-1.665.526-2.483.833-.833.307-1.52.117-2.134-.512a485.565 485.565 0 00-3.872-3.857c-.131-.132-.277-.263-.424-.395-.043.015-.102.03-.146.044 0 .98-.131 1.973.03 2.923.7 4.354 4.47 7.262 8.884 6.882.599-.044 1.022.117 1.446.54 2.338 2.382 4.705 4.72 7.072 7.073.132.131.322.306.483.306.584-.043 1.169-.16 1.782-.248-.803-1.271-.73-1.87.292-2.893l.819-.818c.891-.877 1.84-.877 2.718 0 .599.599 1.183 1.227 1.782 1.84l1.68-1.724zm1.506 12.405c-.073.497-.103.935-.205 1.344-.102.439.044.73.365 1.038 2.294 2.265 4.56 4.573 6.853 6.824.512.496.716.993.658 1.724-.322 4.34 2.63 8.051 6.926 8.738.964.16 1.929.16 2.952-.117-.176-.19-.293-.322-.424-.453-1.3-1.3-2.601-2.616-3.902-3.902-.584-.584-.774-1.242-.496-2.045.306-.877.584-1.754.876-2.645.205-.614.6-1.023 1.228-1.213.847-.277 1.695-.555 2.528-.847.847-.293 1.549-.146 2.191.511a315.478 315.478 0 003.829 3.829c.131.131.277.263.453.423.058-.131.102-.19.117-.263 1.008-5.23-3.507-10.17-8.811-9.629-.629.058-1.067-.073-1.506-.511-3.214-3.244-6.458-6.474-9.702-9.717a9.768 9.768 0 00-.423-.395c-.556.555-1.082 1.067-1.666 1.666.657.643 1.344 1.271 1.987 1.943.687.716.687 1.666.014 2.411-.32.35-.672.672-.993 1.008-.98 1.009-1.607 1.067-2.85.278zm-2.484 2.718l-8.958-8.957c-.453.409-.95.877-1.446 1.344 1.973 1.184 1.826 3.288.409 4.661-3.375 3.244-6.634 6.605-9.965 9.907a3.775 3.775 0 01-1.3.848c-1.214.423-2.251-.073-3.289-1.564-.146.234-.248.453-.409.614-.789.803-.789 1.213 0 2.016 2.25 2.25 4.545 4.486 6.751 6.78 1.388 1.432 1.724.935 2.718-.087a1.3 1.3 0 00.088-.146c-.132-.088-.249-.161-.366-.234-1.373-.95-1.607-2.806-.438-3.99a1447.44 1447.44 0 0110.594-10.593c1.183-1.169 3.053-.906 3.989.468.073.116.16.233.233.336a31.62 31.62 0 011.389-1.403zm-14.35 14.1c.366-.248.687-.409.936-.657 3.346-3.332 6.677-6.663 10.024-10.01a3.1 3.1 0 00.365-.408.955.955 0 00-.117-1.242c-.336-.337-.848-.38-1.257-.103-.117.088-.219.19-.321.292L14.96 51.352c-.117.117-.292.233-.307.365-.044.321-.117.701 0 .979.117.263.482.409.804.657zm9.235-26.988c2.996 2.981 5.991 5.991 8.928 8.928.424-.38.877-.804 1.286-1.184l-9.03-9.03c-.365.41-.79.862-1.184 1.286zm5.83 10.915c.088-.687.205-1.403.278-2.119.015-.146-.117-.336-.234-.453a891.52 891.52 0 00-5.245-5.245c-.117-.102-.263-.263-.395-.249-.745.074-1.49.19-2.162.278 2.586 2.601 5.158 5.187 7.759 7.788zm-20.31 18.777c-2.075-2.09-4.18-4.18-6.269-6.269-.496.862-.438 2.031.293 2.82a52.586 52.586 0 003.127 3.127c.832.775 2.06.833 2.849.322z"/><path d="M16.013 18.183c-.176-.132-.497-.249-.585-.468-.102-.234-.117-.658.044-.848.424-.54.935-1.022 1.447-1.475.307-.263.687-.234.993.043.307.278.439.658.176.98-.482.584-1.052 1.095-1.608 1.621-.073.073-.233.073-.467.146zm28.771 24.445c0 .526-1.608 2.119-2.119 2.09-.614-.015-1.037-.746-.657-1.228a9.98 9.98 0 011.578-1.563c.496-.365 1.198.087 1.198.701zm-33.169 6.707c-.278-.22-.585-.35-.687-.57-.102-.219-.044-.555.03-.818.043-.16.233-.278.35-.41l9.936-9.935c.131-.132.248-.263.41-.366.35-.219.7-.204 1.007.074.322.306.351.672.117 1.037-.087.131-.204.248-.321.365a3217.431 3217.431 0 01-10.024 10.01c-.22.219-.497.38-.818.613z"/></symbol><symbol viewBox="0 0 60 60" id="sWorkPackage-6" xmlns="http://www.w3.org/2000/svg"><path d="M31.703 0c1.235.188 2.469.328 3.672.594 5.844 1.297 9.656 5.437 10.453 11.375.219 1.578.156 3.187.25 4.781.016.203.14.469.297.594.875.656 1.344 1.5 1.344 2.593 0 1.079.015 2.141 0 3.22-.016 1.765-1.297 3.046-3.078 3.062-1.172.015-2.328 0-3.532 0-.515 2.875-2.187 5.015-4.28 6.875-.157.14-.313.375-.313.562-.032 1.36-.016 2.719-.016 4.14 1.547.438 3.078.876 4.61 1.298 2.343.656 4.687 1.312 7.015 1.984 3.234.922 5.453 3.64 5.813 6.969.374 3.484.828 6.969 1.218 10.453.032.313.047.734-.11.938-.187.25-.608.437-.921.437-.469 0-.734-.39-.781-.875-.157-1.313-.313-2.625-.469-3.953-.297-2.469-.516-4.969-.922-7.422-.406-2.422-1.906-4-4.25-4.719-1.969-.61-3.969-1.125-6-1.703-.125.172-.25.328-.36.516-1.593 2.406-3.202 4.797-4.796 7.203-.578.875-1.047.937-1.86.266-1.218-1.016-2.453-2.047-3.75-3.126-.015.235-.046.391-.046.547v5.563c0 .766-.375 1.219-.97 1.203-.562-.016-.905-.453-.905-1.203v-6.125c-1.094.922-2.11 1.75-3.125 2.594-.235.203-.485.406-.72.593-.75.625-1.233.563-1.78-.25-1.594-2.39-3.203-4.797-4.797-7.203-.125-.172-.25-.343-.39-.562-2.188.625-4.423 1.14-6.548 1.922-2.25.828-3.515 2.593-3.812 4.968-.453 3.61-.86 7.235-1.297 10.844-.078.625-.484 1.016-1.031.969-.547-.047-.907-.516-.829-1.125.454-3.797.813-7.594 1.391-11.36.5-3.234 2.5-5.359 5.625-6.296 3.703-1.11 7.453-2.125 11.172-3.157.406-.109.516-.265.5-.672-.031-1.156.016-2.296-.031-3.453a1.252 1.252 0 00-.36-.78c-1.609-1.438-2.984-3.032-3.75-5.063-.203-.547-.343-1.11-.53-1.766-1.063 0-2.188.016-3.313 0a4.4 4.4 0 01-1.204-.156 2.92 2.92 0 01-2.03-2.719 67.808 67.808 0 010-3.563c.015-.968.452-1.78 1.265-2.328.312-.218.406-.422.39-.797-.171-2.734.094-5.406 1.094-7.984 1.719-4.437 5.047-7 9.594-8.047C25.703.375 26.953.25 28.172.062 29.359 0 30.532 0 31.703 0zm7.36 26.703c-1.079.406-2.047.781-3.016 1.125-.328.11-.484.25-.531.625a2.773 2.773 0 01-2.485 2.406 2.802 2.802 0 01-2.875-1.78 2.762 2.762 0 01.969-3.267c1.078-.765 2.39-.687 3.469.157.172.125.5.187.703.11 1.203-.407 2.375-.876 3.562-1.298.328-.11.438-.281.438-.625-.016-2.125.062-4.25-.047-6.375-.031-.86-.313-1.765-.672-2.562-.453-.985-1.36-1.406-2.422-1.219-.922.156-1.875.375-2.734.766-2.344 1.078-4.64 1.109-6.984 0a8.74 8.74 0 00-1.985-.672c-1.984-.438-3.187.328-3.687 2.312a7.96 7.96 0 00-.203 1.61c-.016 2.28.015 4.562-.016 6.843-.016 1.344.328 2.594 1.047 3.703 1.781 2.766 4.265 4.657 7.312 5.844.688.266 1.36.266 2.047 0 2.375-.875 4.344-2.328 6.031-4.187.922-.985 1.657-2.078 2.078-3.516zm1.562-11.812c.047-.016.11-.047.156-.063-.187-.953-.328-1.906-.578-2.844-.922-3.421-2.937-5.859-6.453-6.796a15.636 15.636 0 00-8.14 0c-2.797.734-4.766 2.468-5.907 5.125-.625 1.484-.953 3.03-1.11 4.64-.062.625-.093 1.25-.124 1.86.062.015.14.03.203.046.062-.14.11-.265.156-.406.235-.672.39-1.39.719-2.031.89-1.703 2.36-2.453 4.281-2.313 1.203.094 2.328.422 3.406.938 1.094.515 2.235.86 3.438.61a9.519 9.519 0 002.047-.673c1.187-.53 2.422-.906 3.718-.89 1.985.031 3.36 1.031 4.188 2.797zm-24.188 1.937c.297-1.844.47-3.625.907-5.36 1.047-4.171 3.562-7.046 7.843-8.124 2.922-.75 5.875-.75 8.797-.047 3.5.828 6.016 2.875 7.36 6.234.515 1.313.828 2.719 1.11 4.094.218 1.047.233 2.125.343 3.188h1.375c.14-1.625.078-3.204-.203-4.782-.875-4.89-3.61-8.156-8.469-9.453-3.766-1.015-7.563-.969-11.328.047-2.766.75-5.031 2.266-6.563 4.75-1.265 2.031-1.797 4.297-1.937 6.656-.047.922-.016 1.86-.016 2.797h.781zm13.516 25.828c1.531-1.531 3.031-3.031 4.516-4.531a.479.479 0 00.14-.297c.016-1 0-2 0-3.156-3.156 2.344-6.234 2.25-9.359 0 0 1.125-.016 2.094.016 3.062a.78.78 0 00.187.453 583.058 583.058 0 014.5 4.47zm-9.844-2.015c1.5 2.234 2.938 4.406 4.422 6.625a421.283 421.283 0 014.047-3.36c-1.437-1.422-2.828-2.828-4.25-4.203-.11-.094-.36-.125-.515-.078-1.204.313-2.391.656-3.704 1.016zm15.25 6.625c1.485-2.22 2.938-4.391 4.422-6.625-.625-.188-1.187-.344-1.734-.5-.75-.203-1.578-.703-2.234-.516-.672.188-1.172 1.016-1.75 1.563-.907.89-1.813 1.796-2.735 2.718 1.375 1.14 2.688 2.235 4.031 3.36zM18.672 24.328v-5.61c-1.203 0-2.375-.015-3.531 0-.657.016-1.079.47-1.094 1.126-.016 1.11-.016 2.218 0 3.328.015.656.437 1.125 1.094 1.14 1.156.032 2.328.016 3.53.016zm22.531 0h.703c.938 0 1.875.016 2.797 0 .688-.015 1.125-.453 1.14-1.156.016-1.11.016-2.219 0-3.328-.015-.578-.327-1.047-.874-1.078-1.25-.078-2.516-.016-3.766-.016v5.578zm-7.516 3.75c0-.5-.406-.922-.921-.937a.937.937 0 00-.953.953.937.937 0 001.875-.016z"/><path d="M29.016 57.531c0-.453-.016-.89 0-1.343.015-.594.406-.985.937-.985s.922.39.922 1c.016.89.016 1.797 0 2.688-.016.593-.406.984-.938.984-.53 0-.89-.39-.921-1v-1.344z"/></symbol><symbol viewBox="0 0 16 16" id="telegram" xmlns="http://www.w3.org/2000/svg"><path d="M14.629 3.698l-2.012 9.618c-.152.679-.548.848-1.11.528l-3.066-2.29-1.48 1.442c-.163.166-.3.305-.616.305l.22-3.165 5.683-5.204c.247-.223-.054-.347-.384-.123L4.839 9.29l-3.024-.959c-.658-.208-.67-.667.137-.986L13.78 2.727c.548-.208 1.027.124.849.971z"/></symbol><symbol viewBox="0 0 16 16" id="viber" xmlns="http://www.w3.org/2000/svg"><path d="M8 1.335c-1.071.013-3.374.19-4.662 1.37-.958.948-1.292 2.35-1.331 4.084-.033 1.728-.072 4.973 3.058 5.856v1.346s-.02.538.337.648c.438.14.688-.275 1.105-.72l.778-.879c2.142.178 3.782-.232 3.97-.293.435-.139 2.883-.451 3.283-3.696.41-3.351-.2-5.463-1.301-6.418h-.007c-.332-.306-1.668-1.279-4.652-1.29 0 0-.222-.014-.578-.008zm.037.942a7.02 7.02 0 01.488.011c2.527.007 3.732.767 4.017 1.023.927.794 1.405 2.697 1.055 5.495-.332 2.713-2.317 2.885-2.685 3.002-.156.05-1.6.406-3.42.289 0 0-1.356 1.634-1.78 2.055-.067.074-.146.095-.196.085-.071-.018-.093-.107-.089-.229l.013-2.233c-2.655-.733-2.498-3.5-2.47-4.946.033-1.446.304-2.628 1.113-3.43 1.088-.982 3.043-1.115 3.953-1.122zm.2 1.446a.166.166 0 100 .332 3.136 3.136 0 012.242.883c.606.588.9 1.378.912 2.411 0 .092.074.167.167.167V7.51a.167.167 0 00.168-.165 3.588 3.588 0 00-1.009-2.646c-.66-.645-1.496-.977-2.48-.977zm-2.198.382a.523.523 0 00-.342.067H5.69a2.61 2.61 0 00-.637.523 1.003 1.003 0 00-.256.525.71.71 0 00.026.302l.01.006c.172.504.396.988.67 1.444a8.48 8.48 0 001.29 1.762l.015.022.024.017.015.018.017.015c.532.505 1.127.94 1.769 1.295.734.4 1.18.588 1.447.667v.004c.078.024.15.034.221.034.228-.016.444-.109.613-.262a2.53 2.53 0 00.517-.638v-.004c.128-.241.085-.469-.1-.623-.37-.323-.77-.61-1.195-.857-.285-.155-.574-.061-.69.095l-.25.315c-.129.156-.361.134-.361.134l-.007.004C7.093 8.527 6.63 6.772 6.63 6.772s-.022-.239.139-.36l.312-.252c.15-.122.254-.41.094-.695a7.498 7.498 0 00-.856-1.194.475.475 0 00-.28-.167zm2.486.495c-.221 0-.221.334.003.334A2.098 2.098 0 0110 5.572 1.94 1.94 0 0110.5 7a.168.168 0 00.167.165l.007.009a.169.169 0 00.167-.167c.015-.662-.191-1.218-.595-1.663C9.84 4.9 9.273 4.65 8.549 4.6h-.024zm.274.898c-.228-.006-.236.335-.01.341.55.029.816.306.851.877a.166.166 0 00.165.163h.007a.168.168 0 00.16-.178c-.039-.744-.445-1.164-1.166-1.202H8.8z"/></symbol><symbol viewBox="0 0 24 24" id="vk" xmlns="http://www.w3.org/2000/svg"><path d="M21.579 6.855c.14-.465 0-.806-.662-.806h-2.193c-.558 0-.813.295-.953.619 0 0-1.115 2.719-2.695 4.482-.51.513-.743.675-1.021.675-.139 0-.341-.162-.341-.627V6.855c0-.558-.161-.806-.626-.806H9.642c-.348 0-.558.258-.558.504 0 .528.79.65.871 2.138v3.228c0 .707-.127.836-.407.836-.743 0-2.551-2.73-3.624-5.853-.209-.607-.42-.852-.98-.852H2.752c-.627 0-.752.295-.752.619 0 .582.743 3.462 3.461 7.27 1.812 2.602 4.363 4.012 6.687 4.012 1.393 0 1.565-.313 1.565-.853v-1.966c0-.626.133-.752.574-.752.324 0 .882.164 2.183 1.417 1.486 1.486 1.732 2.153 2.567 2.153h2.192c.626 0 .939-.313.759-.931-.197-.615-.907-1.51-1.849-2.57-.512-.603-1.277-1.253-1.51-1.578-.325-.42-.231-.604 0-.976.001 0 2.672-3.761 2.95-5.04z"/></symbol><symbol viewBox="0 0 16 16" id="whatsapp" xmlns="http://www.w3.org/2000/svg"><path fill-rule="evenodd" clip-rule="evenodd" d="M12.269 3.755A5.947 5.947 0 008.035 2 5.994 5.994 0 002.05 7.985a5.98 5.98 0 00.799 2.992L2 14.077l3.173-.832c.877.477 1.86.728 2.86.728h.002a5.993 5.993 0 005.533-8.276 5.953 5.953 0 00-1.3-1.942zm-4.234 9.208h-.002c-.89 0-1.765-.24-2.532-.694l-.181-.108-1.883.494.502-1.835-.118-.188a4.965 4.965 0 01-.76-2.647 4.982 4.982 0 016.88-4.597c.604.25 1.152.618 1.613 1.081a4.946 4.946 0 011.455 3.52 4.982 4.982 0 01-4.974 4.974zm2.729-3.726c-.15-.075-.885-.436-1.022-.486-.137-.05-.236-.075-.336.074-.1.15-.387.486-.474.586-.087.1-.175.112-.324.038-.15-.075-.631-.233-1.203-.742a4.505 4.505 0 01-.832-1.036c-.087-.15-.009-.231.066-.306.068-.066.15-.174.224-.262.075-.087.1-.149.15-.249.05-.1.025-.187-.013-.262-.037-.075-.337-.811-.461-1.11-.121-.29-.244-.252-.336-.256a6.418 6.418 0 00-.286-.005.55.55 0 00-.4.186c-.137.15-.523.512-.523 1.248s.536 1.447.61 1.547c.075.1 1.055 1.61 2.555 2.258.358.154.636.246.853.315.358.114.684.098.942.06.287-.043.885-.362 1.01-.711.124-.35.124-.649.087-.711-.038-.063-.138-.101-.287-.176z"/></symbol></svg>