<svg width="80" height="80" viewBox="0 0 80 80" fill="none" xmlns="http://www.w3.org/2000/svg">
<path d="M19.4255 72.0028C19.3577 71.9689 19.2899 71.918 19.2051 71.901C17.1531 71.3245 16 69.8152 16 67.6615C16 58.0294 16 48.4142 16 38.7821C16 30.7779 16 22.7907 16 14.7865C16 12.6837 17.3058 11.0557 19.2899 10.6318C19.5442 10.5809 19.7986 10.564 20.053 10.564C21.9183 10.564 23.7837 10.547 25.6321 10.564C26.3274 10.564 26.7514 10.9201 26.7683 11.4797C26.7853 12.0563 26.3274 12.4463 25.6152 12.4633C23.8516 12.4633 22.1049 12.4633 20.3412 12.4633C18.7811 12.4633 17.8993 13.3451 17.8993 14.8882C17.8993 32.4906 17.8993 50.093 17.8993 67.6954C17.8993 69.2047 18.815 70.1035 20.3073 70.1035C33.6702 70.1035 47.0501 70.1035 60.413 70.1035C61.9223 70.1035 62.821 69.1877 62.821 67.6954C62.821 50.093 62.821 32.4906 62.821 14.8882C62.821 13.3451 61.9392 12.4633 60.3791 12.4633C58.6833 12.4633 56.9875 12.4633 55.3086 12.4633C55.1221 12.4633 54.9186 12.4802 54.749 12.4293C54.2572 12.3106 53.952 11.9884 53.9859 11.4797C54.0029 10.954 54.3081 10.5809 54.8508 10.564C56.9705 10.547 59.0903 10.4792 61.1931 10.5979C63.1432 10.7335 64.6694 12.5141 64.7373 14.4643C64.7542 14.7356 64.7373 15.007 64.7373 15.2952C64.7373 32.5076 64.7373 49.7369 64.7373 66.9493C64.7373 69.9169 64.042 70.9344 61.3118 71.9858C47.3553 72.0028 33.3989 72.0028 19.4255 72.0028Z" fill="#F26522"/>
<path d="M40.3683 7C43.0307 7 45.6932 7 48.3556 7C50.2718 7 51.425 8.15314 51.425 10.0864C51.425 11.019 51.425 11.9517 51.425 12.8844C51.425 14.8346 50.2718 15.9877 48.3047 15.9877C45.5914 16.0047 42.8951 15.9877 40.1818 15.9877C37.6211 15.9877 35.0605 15.9877 32.4998 15.9877C30.414 15.9877 29.2948 14.8515 29.2948 12.7657C29.2948 11.7991 29.2778 10.8155 29.2948 9.84894C29.3456 8.20402 30.5497 7.01696 32.1946 7C34.9079 7 37.6381 7 40.3683 7ZM40.3683 8.89929C37.7059 8.89929 35.0435 8.89929 32.3811 8.89929C31.5502 8.89929 31.228 9.2215 31.228 10.0355C31.228 10.9851 31.228 11.9348 31.228 12.8844C31.228 13.7154 31.5502 14.0545 32.3642 14.0545C37.7059 14.0545 43.0647 14.0545 48.4064 14.0545C49.2204 14.0545 49.5257 13.7154 49.5426 12.8675C49.5426 11.9856 49.5426 11.0869 49.5426 10.2051C49.5426 9.15366 49.2713 8.88234 48.2369 8.88234C45.6084 8.89929 42.9968 8.89929 40.3683 8.89929Z" fill="#F26522"/>
<path d="M31.1098 25.3173C31.1098 26.0295 31.1268 26.7587 31.1098 27.4709C31.0759 28.8785 30.0075 29.9468 28.6 29.9807C27.1586 29.9977 25.7172 29.9977 24.2927 29.9807C22.9869 29.9638 21.9016 29.0141 21.8338 27.7253C21.749 26.1313 21.7659 24.5203 21.8338 22.9092C21.8846 21.7222 22.8004 20.7725 23.9874 20.7047C25.6324 20.6199 27.2773 20.6199 28.9222 20.7047C30.1941 20.7725 31.0759 21.8748 31.1098 23.1636C31.1268 23.8759 31.1098 24.605 31.1098 25.3173ZM26.4124 28.0814C27.0738 28.0814 27.7182 28.0814 28.3796 28.0814C28.9222 28.0814 29.2105 27.861 29.2105 27.3014C29.2105 25.9786 29.2105 24.639 29.2105 23.3162C29.2105 22.8075 28.9392 22.5701 28.4644 22.5531C27.1077 22.5362 25.768 22.5362 24.4114 22.5531C23.9366 22.5531 23.6652 22.8245 23.6652 23.3162C23.6652 24.639 23.6652 25.9786 23.6652 27.3014C23.6652 27.844 23.9535 28.0984 24.4962 28.0814C25.1406 28.0645 25.785 28.0814 26.4124 28.0814Z" fill="#F26522"/>
<path d="M31.1097 41.252C31.1097 41.9303 31.1097 42.6086 31.1097 43.2869C31.0927 44.7792 30.0922 45.8815 28.5999 45.9324C27.1585 45.9833 25.717 45.9833 24.2926 45.9324C22.8511 45.8815 21.8337 44.864 21.7828 43.4226C21.7319 41.9812 21.7319 40.5397 21.7828 39.1153C21.8337 37.606 22.902 36.6055 24.4113 36.6055C25.7679 36.5885 27.1246 36.5885 28.4642 36.6055C30.0244 36.6224 31.0758 37.6908 31.1097 39.2509C31.1266 39.9123 31.1097 40.5906 31.1097 41.252ZM26.4462 38.4878C25.7849 38.4878 25.1405 38.4878 24.4791 38.4878C23.9534 38.4878 23.6821 38.7422 23.6821 39.2509C23.6651 40.5737 23.6821 41.9133 23.6821 43.2361C23.6821 43.7448 23.9365 44.0331 24.4621 44.0331C25.7849 44.0331 27.1246 44.05 28.4473 44.0331C28.956 44.0331 29.2273 43.7618 29.2104 43.2361C29.2104 41.9303 29.2104 40.6245 29.2104 39.3018C29.2104 38.7083 28.9051 38.4709 28.3455 38.4709C27.7181 38.5048 27.0737 38.4878 26.4462 38.4878Z" fill="#F26522"/>
<path d="M26.4123 52.5677C27.1584 52.5677 27.8876 52.5508 28.6338 52.5677C30.0074 52.6017 31.0757 53.6531 31.1096 55.0267C31.1435 56.485 31.1435 57.9434 31.1096 59.4018C31.0927 60.7585 30.0582 61.8268 28.7016 61.8607C27.2093 61.9116 25.7 61.8946 24.2077 61.8607C22.9189 61.8268 21.8845 60.8772 21.8336 59.5884C21.7488 58.0113 21.7488 56.4172 21.8336 54.8401C21.9014 53.5004 22.9868 52.5847 24.3434 52.5508C25.0217 52.5508 25.717 52.5677 26.4123 52.5677ZM29.2103 57.2142C29.2103 56.5529 29.2103 55.9085 29.2103 55.2471C29.2103 54.7384 28.9729 54.4501 28.4472 54.467C27.1245 54.467 25.7848 54.467 24.4621 54.467C23.9364 54.467 23.682 54.7384 23.682 55.2301C23.682 56.5529 23.682 57.8926 23.682 59.2153C23.682 59.6901 23.9194 59.9784 24.4112 59.9784C25.7679 59.9784 27.1075 59.9784 28.4642 59.9784C28.9899 59.9784 29.2273 59.6901 29.2103 59.1814C29.2103 58.52 29.2103 57.8756 29.2103 57.2142Z" fill="#F26522"/>
<path d="M47.6608 39.7643C44.3201 39.7643 40.9794 39.7813 37.6386 39.7473C37.2995 39.7473 36.8586 39.6117 36.6212 39.3912C36.1294 38.9164 36.4346 38.0685 37.1299 37.8989C37.3504 37.8481 37.5878 37.865 37.8252 37.865C44.3879 37.865 50.9337 37.865 57.4965 37.865C57.5982 37.865 57.7 37.865 57.8187 37.865C58.5479 37.882 58.9718 38.272 58.9548 38.8655C58.9379 39.4421 58.5309 39.7643 57.8187 39.7643C54.444 39.7643 51.0524 39.7643 47.6608 39.7643Z" fill="#F26522"/>
<path d="M47.7453 53.8405C51.0182 53.8405 54.3081 53.8405 57.581 53.8405C57.7675 53.8405 57.971 53.8236 58.1575 53.8575C58.6324 53.9253 58.9206 54.2136 58.9715 54.6885C59.0224 55.1633 58.8019 55.5194 58.3441 55.672C58.1236 55.7399 57.8862 55.7399 57.6658 55.7399C51.0521 55.7399 44.4216 55.7399 37.8079 55.7399C37.6384 55.7399 37.4688 55.7568 37.2992 55.7229C36.7565 55.6381 36.4174 55.2311 36.4513 54.7054C36.5022 54.1627 36.8244 53.8745 37.367 53.8405C37.7401 53.8236 38.1301 53.8405 38.5032 53.8405C41.5557 53.8405 44.642 53.8405 47.7453 53.8405Z" fill="#F26522"/>
<path d="M47.6095 23.8193C44.3705 23.8193 41.1316 23.8193 37.8926 23.8193C37.6891 23.8193 37.4686 23.8193 37.2651 23.8023C36.7225 23.7345 36.4172 23.4292 36.4172 22.8696C36.4172 22.327 36.7225 22.0048 37.2651 21.9369C37.4517 21.903 37.6382 21.92 37.8417 21.92C44.4214 21.92 51.0011 21.92 57.5808 21.92C57.8352 21.92 58.1574 21.8691 58.327 22.0048C58.5983 22.2422 58.9375 22.5983 58.9375 22.9036C58.9205 23.2088 58.5644 23.548 58.2761 23.7514C58.1065 23.8702 57.7843 23.8193 57.5299 23.8193C54.2062 23.8193 50.9163 23.8193 47.6095 23.8193Z" fill="#F26522"/>
<path d="M42.5565 42.7627C44.1845 42.7627 45.8125 42.7627 47.4404 42.7627C48.2035 42.7627 48.6105 43.0849 48.6275 43.6784C48.6445 44.2889 48.2035 44.662 47.4235 44.662C44.1506 44.662 40.8777 44.662 37.6048 44.662C36.8417 44.662 36.4347 44.3228 36.4177 43.7293C36.4008 43.1019 36.8078 42.7797 37.6218 42.7627C39.2667 42.7627 40.9116 42.7627 42.5565 42.7627Z" fill="#F26522"/>
<path d="M42.4712 60.6073C40.8433 60.6073 39.2153 60.6073 37.5873 60.6073C36.8073 60.6073 36.4172 60.2851 36.4172 59.6746C36.4172 59.0641 36.8242 58.708 37.5704 58.708C40.8602 58.708 44.1501 58.708 47.4569 58.708C48.22 58.708 48.627 59.0641 48.6439 59.6577C48.6439 60.2512 48.237 60.6073 47.4908 60.6073C45.795 60.6073 44.1331 60.6073 42.4712 60.6073Z" fill="#F26522"/>
<path d="M42.5902 26.8047C44.2013 26.8047 45.7953 26.8047 47.4063 26.8047C48.2033 26.8047 48.6273 27.1608 48.6273 27.7713C48.6273 28.3648 48.1864 28.704 47.4402 28.704C44.1504 28.704 40.8436 28.704 37.5537 28.704C36.8076 28.704 36.4006 28.3479 36.4006 27.7374C36.4006 27.1269 36.8076 26.8047 37.5707 26.8047C39.2665 26.8047 40.9284 26.8047 42.5902 26.8047Z" fill="#F26522"/>
</svg>
