<svg width="80" height="80" viewBox="0 0 80 80" fill="none" xmlns="http://www.w3.org/2000/svg">
<path d="M0 37.2811C0.458333 36.177 0.9375 35.0936 1.375 33.9895C3.58333 28.4061 5.77083 22.8228 7.95833 17.2395C8.70833 15.3437 9.83333 14.8437 11.7083 15.5728C13.5833 16.302 15.4792 17.052 17.3542 17.802C18.5208 18.2603 19.1458 19.0728 19.1458 20.3645C19.1458 20.552 19.3333 20.8228 19.5 20.9062C20.9792 21.6353 22.5208 21.9895 24.2083 22.0312C27.4583 22.0937 30.7708 22.0312 33.9375 23.052C34.125 23.1145 34.4167 23.0103 34.6042 22.8853C34.8958 22.677 35.1458 22.3853 35.3958 22.1353C36.9792 20.4895 38.8958 19.9062 41.1458 20.2812C42.3958 20.4895 43.6667 20.677 44.9167 20.8853C45.7708 21.0312 46.2292 21.5103 46.1667 22.1978C46.0833 22.927 45.5 23.3228 44.6042 23.1978C43.1875 23.0103 41.7917 22.7603 40.375 22.552C39.1875 22.3645 38.1458 22.6978 37.3125 23.552C33.9375 26.9061 30.3542 30.052 26.375 32.6978C25.6875 33.1561 25.6875 33.5936 26.3125 34.1145C27.6667 35.2395 29.1875 35.3228 30.7917 34.8436C32.875 34.2186 34.5833 32.927 36.2083 31.5311C37.7292 30.2186 39.0417 30.2395 40.4583 31.6353C43.7292 34.8645 47.625 36.3228 52.2292 35.677C52.8958 35.5936 53.4167 35.7603 53.9583 36.1561C57.0417 38.4686 60.1458 40.7395 63.2917 43.052C64.9375 41.9895 66.6042 40.927 68.3125 39.8228C66.1042 34.1978 63.8958 28.5936 61.6667 22.927C60.8958 23.1978 60.1875 23.4062 59.5 23.7187C57.1667 24.7812 54.75 24.9895 52.2708 24.427C51.6667 24.2811 51.0417 24.2395 50.4375 24.1145C49.6458 23.9686 49.2292 23.4895 49.3125 22.7812C49.3958 22.0937 49.9167 21.6978 50.7292 21.7812C51.5833 21.8853 52.4375 22.0103 53.2708 22.177C54.8958 22.5103 56.4583 22.4062 58 21.7603C58.7917 21.427 59.6042 21.177 60.3958 20.8437C60.5625 20.7812 60.75 20.4895 60.75 20.302C60.75 19.052 61.3125 18.2395 62.4792 17.802C64.4792 17.0103 66.4792 16.1978 68.4792 15.427C69.9375 14.8645 71.2083 15.4062 71.7708 16.8437C72.7708 19.3228 73.75 21.8228 74.7083 24.3228C75.0208 25.1561 74.7917 25.802 74.1042 26.0728C73.4583 26.3228 72.875 25.9895 72.5417 25.177C71.6458 22.927 70.7708 20.677 69.875 18.427C69.7708 18.1353 69.625 17.8645 69.5 17.5312C67.3542 18.3853 65.2292 19.2187 63.0625 20.0728C65.75 26.8853 68.3958 33.6353 71.0833 40.4686C73.25 39.6145 75.3542 38.7811 77.5417 37.927C76.7083 35.8228 75.9167 33.7811 75.1042 31.7186C74.9375 31.302 74.75 30.9061 74.625 30.4895C74.4167 29.8436 74.6875 29.2186 75.25 28.9895C75.8542 28.7395 76.5208 28.9895 76.7917 29.6561C77.7917 32.1561 78.7917 34.677 79.75 37.1978C80.1458 38.2603 79.6458 39.5311 78.6042 39.9686C76.3542 40.927 74.0833 41.802 71.8125 42.677C71.0625 42.9686 70.3333 42.7603 69.6667 42.302C69.4792 42.177 69.1042 42.0936 68.9583 42.1978C67.5625 43.052 66.2083 43.9478 64.8333 44.8228C65.6875 49.2811 63.6667 51.7186 59.3958 51.4061C58.5 54.6561 57.2708 55.5936 53.7917 55.6978C53.6458 57.2186 53.0417 58.5311 51.7292 59.4061C50.4375 60.2603 49.0208 60.4061 47.5 59.9478C47.0417 62.1145 45.8542 63.5311 43.6667 64.0103C41.4583 64.4895 39.9167 63.177 38.2708 61.9061C37.9583 62.2603 37.6667 62.6145 37.3542 62.9478C36.1875 64.302 34.7292 64.8853 32.9792 64.4478C31.2292 64.0103 30.1875 62.8436 29.7917 61.0728C29.75 60.8853 29.5208 60.5936 29.3542 60.5936C26.8125 60.4686 25.4375 59.052 24.9583 56.6561C21.9375 56.2603 20.7708 55.2395 20.2708 52.6353C16.1667 51.9478 14.625 49.5311 16.1875 46.0311C15.9167 45.8436 15.6458 45.6145 15.3542 45.427C13.8333 44.4686 12.3333 43.4895 10.7917 42.5728C10.5625 42.4478 10.2083 42.5103 9.91667 42.5311C9.22917 42.552 8.5 42.802 7.89583 42.5936C5.77083 41.8645 3.6875 40.9686 1.58333 40.1561C0.791667 39.8436 0.395833 39.1978 0.0416667 38.5103C0 38.1145 0 37.6978 0 37.2811ZM18.2083 22.927C15.9167 28.7186 13.6667 34.4478 11.4167 40.1978C13.5417 41.552 15.6042 42.8645 17.7083 44.1978C18.375 43.427 18.9583 42.677 19.625 41.9895C20.7917 40.7811 22.2292 40.4061 23.8333 40.8436C25.4375 41.302 26.4375 42.3853 26.8333 44.0103C26.8958 44.2395 26.9583 44.4478 27.0208 44.677C28.2292 44.6561 29.2708 44.9478 30.1667 45.6978C31.0833 46.4686 31.5 47.5103 31.6875 48.6353C34.5 48.8228 35.6667 49.802 36.4167 52.6353C40.5833 52.5311 42.5625 57.1145 39.6875 60.2186C40.5208 60.7186 41.2917 61.3228 42.1667 61.6561C43.1875 62.0728 44.3542 61.4478 44.8333 60.4686C45.3125 59.4686 45.0625 58.4895 44.1667 57.7811C43.5208 57.2811 42.875 56.802 42.2708 56.2811C41.7083 55.802 41.625 55.1561 42.0417 54.6353C42.4583 54.1145 43.0833 54.052 43.7083 54.4686C43.9375 54.6353 44.1667 54.8228 44.3958 54.9895C45.5 55.8228 46.5625 56.6978 47.7083 57.4686C48.8125 58.2395 50.2292 57.9478 50.9583 56.9061C51.6667 55.8853 51.4375 54.5728 50.375 53.7603C49.3958 52.9895 48.3958 52.2395 47.4167 51.4686C46.8125 50.9895 46.7083 50.302 47.1042 49.7603C47.5208 49.2186 48.1667 49.1561 48.8333 49.6145C49.4792 50.0936 50.1042 50.5936 50.75 51.0936C51.6042 51.7395 52.4167 52.427 53.3125 53.0103C54.3958 53.7186 55.7917 53.427 56.5 52.427C57.2292 51.3853 57 50.0936 55.9375 49.2811C54.7917 48.3853 53.625 47.5103 52.4792 46.6145C51.6875 45.9895 51.7917 44.9686 52.6458 44.5728C53.2083 44.3228 53.6458 44.5728 54.0833 44.8853C55.6667 46.1145 57.25 47.3436 58.8542 48.5311C59.2292 48.8228 59.7083 49.052 60.1875 49.1353C61.1875 49.3228 62.1875 48.6978 62.5833 47.7811C63.0208 46.802 62.7292 45.6353 61.7917 44.927C58.8125 42.6978 55.8333 40.4895 52.8125 38.302C52.5833 38.1353 52.1875 38.0728 51.875 38.0936C46.8125 38.552 42.5208 36.8853 38.9167 33.4061C38.4375 32.9478 38.1458 32.9061 37.6458 33.3645C35.875 34.9478 33.9375 36.302 31.6458 37.052C29.3333 37.7811 27.125 37.6561 25.125 36.177C22.8958 34.5311 22.9792 32.2186 25.2292 30.6145C27.4583 29.0103 29.5833 27.2603 31.75 25.552C31.9167 25.427 32.0417 25.2395 32.1875 25.0936C32.1667 25.0103 32.1458 24.9061 32.125 24.8228C29.4375 24.6562 26.75 24.427 24.0625 24.3853C22.4375 24.3645 20.9167 24.177 19.4583 23.4895C19.1042 23.2812 18.7083 23.1353 18.2083 22.927ZM16.8125 20.1145C14.6042 19.2395 12.5208 18.427 10.3542 17.5728C7.66667 24.3853 5 31.1561 2.33333 37.9686C4.52083 38.8436 6.64583 39.6561 8.79167 40.5103C11.4792 33.6561 14.125 26.927 16.8125 20.1145ZM17.7917 48.2603C17.875 49.1561 18.3333 49.8228 19.1042 50.1353C19.875 50.4478 20.6667 50.2603 21.2917 49.5728C22.2292 48.5103 23.1667 47.4061 24.0625 46.302C24.8542 45.3436 24.7708 44.2603 23.9375 43.5103C23.1042 42.7811 21.9375 42.8853 21.125 43.8228C20.2083 44.8853 19.2917 45.9478 18.4167 47.0311C18.125 47.3853 18 47.8436 17.7917 48.2603ZM22.5 52.302C22.625 53.1353 23.0833 53.8436 23.7917 54.1353C24.5833 54.4478 25.3542 54.2811 25.9792 53.5936C26.9375 52.5103 27.8958 51.4061 28.8125 50.2811C29.5833 49.3436 29.4792 48.1978 28.625 47.5103C27.7917 46.8228 26.6458 46.927 25.8542 47.8436C24.9375 48.9061 24 49.9686 23.125 51.052C22.8542 51.3853 22.7083 51.8645 22.5 52.302ZM38.8542 57.052C38.75 56.1978 38.3125 55.5103 37.5833 55.2186C36.8125 54.8853 36 55.052 35.3958 55.7186C34.4375 56.7811 33.5208 57.8853 32.6042 58.9686C31.7917 59.9478 31.8542 61.0936 32.6875 61.8228C33.5417 62.552 34.6667 62.427 35.5 61.4686C36.4167 60.427 37.3125 59.3853 38.1667 58.3228C38.4792 57.9478 38.6458 57.4686 38.8542 57.052ZM34.125 53.0311C34.0208 52.177 33.5833 51.5103 32.8542 51.1978C32.0833 50.8645 31.2708 51.0311 30.6667 51.7186C29.7083 52.802 28.75 53.9061 27.8333 55.0311C27.0625 55.9686 27.1458 57.0936 27.9792 57.802C28.7917 58.5103 29.9583 58.3853 30.75 57.5103C31.6875 56.4478 32.625 55.3645 33.5208 54.2395C33.8125 53.9061 33.9375 53.427 34.125 53.0311Z" fill="#F26522"/>
</svg>
