<svg width="80" height="80" viewBox="0 0 80 80" fill="none" xmlns="http://www.w3.org/2000/svg">
<path d="M55.5504 8C56.0591 8.36562 56.1704 8.89019 56.1704 9.49425C56.1545 11.7356 56.1704 13.977 56.1704 16.2184C56.1704 16.4568 56.1704 16.6794 56.1704 16.9973C56.4406 16.9973 56.6632 16.9973 56.8857 16.9973C60.0968 16.9973 63.3237 16.9973 66.5348 16.9973C67.6475 16.9973 67.9019 17.2675 67.9019 18.3803C67.9019 20.9555 67.9019 23.5466 67.9019 26.1218C67.9019 26.3284 67.9655 26.6146 67.8542 26.7417C67.6316 27.0279 67.3137 27.4253 67.0117 27.4412C66.7097 27.4571 66.3281 27.1233 66.1056 26.853C65.9625 26.6782 65.9943 26.3284 65.9943 26.0582C65.9943 23.9281 65.9943 21.7821 65.9943 19.652C65.9943 19.4294 65.9943 19.191 65.9943 18.9367C62.7038 18.9367 59.4768 18.9367 56.1704 18.9367C56.1704 19.2069 56.1704 19.4771 56.1704 19.7474C56.1704 31.2563 56.1704 42.7652 56.1863 54.2742C56.1863 54.9895 55.9796 55.4982 55.471 56.0068C52.9911 58.439 50.5431 60.9029 48.111 63.3668C47.6818 63.8119 47.2367 64.0027 46.6008 64.0027C40.2105 63.9868 33.8202 63.9868 27.4299 63.9868C27.2073 63.9868 26.9689 63.9868 26.6986 63.9868C26.6986 66.3553 26.6986 68.6603 26.6986 71.0289C37.0471 71.0289 47.3956 71.0289 57.8554 71.0289C57.8554 70.8381 57.8554 70.6156 57.8554 70.393C57.8554 68.3424 57.8554 66.2918 57.8554 64.2411C57.8554 63.2715 58.1733 62.9535 59.143 62.9376C61.1777 62.9376 63.1966 62.9376 65.2313 62.9376C65.4538 62.9376 65.6923 62.9376 65.9943 62.9376C65.9943 62.6038 65.9943 62.3336 65.9943 62.0633C65.9943 51.7148 65.9943 41.3822 65.9943 31.0337C65.9943 30.7476 65.9943 30.4456 66.0579 30.1595C66.1692 29.6508 66.5189 29.4123 67.0276 29.46C67.5045 29.5077 67.7906 29.7938 67.8542 30.2707C67.886 30.4933 67.886 30.7317 67.886 30.9702C67.886 41.7797 67.886 52.5891 67.9019 63.3986C67.9019 64.0504 67.7111 64.5114 67.2501 64.9565C64.7385 67.4363 62.2428 69.932 59.7471 72.4436C59.3656 72.841 58.9523 73 58.4118 73C47.6659 72.9841 36.92 72.9841 26.1741 72.9841C25.0295 72.9841 24.7434 72.698 24.7434 71.5693C24.7434 69.0736 24.7434 66.5779 24.7434 63.9868C24.4891 63.9868 24.2665 63.9868 24.044 63.9868C20.8011 63.9868 17.5742 63.9868 14.3313 63.9868C13.2981 63.9868 13.0119 63.7007 13.0119 62.6674C13.0119 57.056 13.0119 51.4605 13.0119 45.8491C13.0119 45.6584 12.9642 45.404 13.0596 45.2927C13.2981 45.0066 13.6001 44.6251 13.9021 44.5933C14.2041 44.5774 14.5857 44.8953 14.8082 45.1815C14.9672 45.3722 14.9195 45.7537 14.9195 46.0399C14.9195 51.0949 14.9195 56.1499 14.9195 61.2049C14.9195 61.4593 14.9195 61.7136 14.9195 62.0156C25.2998 62.0156 35.6483 62.0156 46.0762 62.0156C46.0921 61.809 46.108 61.5865 46.108 61.3639C46.108 59.3928 46.108 57.4216 46.108 55.4664C46.108 54.1629 46.3465 53.9403 47.6182 53.9403C49.5893 53.9403 51.5605 53.9403 53.5157 53.9403C53.7383 53.9403 53.9767 53.9403 54.231 53.9403C54.231 39.2521 54.231 24.6116 54.231 9.93935C41.1325 9.93935 28.0657 9.93935 14.9195 9.93935C14.9195 10.2414 14.9195 10.5116 14.9195 10.7819C14.9195 20.876 14.9195 30.9543 14.9195 41.0484C14.9195 41.3346 14.9036 41.6366 14.84 41.9227C14.7287 42.3996 14.3631 42.6222 13.9021 42.5904C13.4411 42.5586 13.1232 42.2883 13.0596 41.7956C13.0278 41.5889 13.0278 41.3663 13.0278 41.1597C13.0278 30.5887 13.0278 20.0017 13.0119 9.43067C12.996 8.82661 13.0755 8.31793 13.6796 8C27.6365 8 41.5935 8 55.5504 8ZM59.7789 69.3915C61.2731 67.8973 62.831 66.3553 64.2775 64.9088C62.9104 64.9088 61.3526 64.9088 59.7789 64.9088C59.7789 66.4825 59.7789 68.0086 59.7789 69.3915ZM48.0474 60.4578C49.5893 58.9477 51.1472 57.4216 52.6891 55.8956C51.1631 55.8956 49.6211 55.8956 48.0474 55.8956C48.0474 57.4534 48.0474 58.9795 48.0474 60.4578Z" fill="#F26522"/>
<path d="M19.9268 29.4916C19.9586 25.9944 20.8647 23.2444 22.6769 20.7804C23.122 20.1605 23.6466 20.0174 24.1234 20.3354C24.6321 20.6692 24.6639 21.2414 24.2188 21.8932C21.6913 25.4699 21.1508 29.3327 22.661 33.4339C24.4096 38.2187 29.3215 41.4298 34.4084 41.1595C40.0198 40.8575 44.4707 37.1377 45.7424 31.6694C47.3003 24.9771 42.4678 18.0304 35.6483 17.1402C32.6121 16.7428 29.8143 17.3627 27.2391 19.0319C27.1914 19.0636 27.1279 19.0954 27.0802 19.1431C26.4443 19.5246 25.9038 19.4611 25.5859 18.9524C25.2839 18.4755 25.4269 17.9191 26.031 17.5535C26.9053 17.0448 27.7796 16.5043 28.7016 16.1228C36.8087 12.8641 45.8696 17.7601 47.6341 26.3124C49.2396 34.1016 43.8349 41.7954 35.9662 42.9081C28.5267 43.9573 21.7549 39.2361 20.1971 31.8761C20.0222 30.9541 19.9904 30.0003 19.9268 29.4916Z" fill="#F26522"/>
<path d="M32.0239 29.3807C33.1843 28.2044 34.2812 27.1234 35.378 26.0266C36.2046 25.2 36.9994 24.3575 37.8737 23.5944C38.907 22.6725 40.4171 22.7837 41.3709 23.7534C42.3088 24.7072 42.3565 26.1696 41.4981 27.2188C41.3709 27.3778 41.212 27.5367 41.0689 27.6798C38.7639 29.9848 36.4749 32.2897 34.1699 34.5788C32.7869 35.9618 31.3721 35.9618 29.9733 34.5629C28.8287 33.4342 27.6842 32.3056 26.5715 31.1452C25.8243 30.3663 25.5541 29.4443 25.9356 28.411C26.3012 27.4095 27.0483 26.8373 28.1134 26.7101C28.94 26.6147 29.6553 26.9168 30.2435 27.489C30.7999 28.0931 31.388 28.713 32.0239 29.3807ZM32.0875 33.7681C32.3418 33.5773 32.5803 33.4501 32.771 33.2594C35.1078 30.9385 37.4445 28.6018 39.7654 26.265C39.8767 26.1537 40.0674 26.0107 40.0833 25.8835C40.0992 25.6133 40.1151 25.2477 39.9561 25.1046C39.7972 24.9615 39.4316 24.9615 39.1772 25.0092C39.0024 25.041 38.8593 25.2636 38.7003 25.4066C36.7928 27.2983 34.9011 29.2058 32.9936 31.0975C32.2623 31.8128 31.849 31.8128 31.1178 31.0816C30.4025 30.3663 29.6871 29.6509 28.9559 28.9356C28.6221 28.6018 28.2406 28.4269 27.8591 28.8084C27.4617 29.2058 27.6683 29.5714 28.0021 29.9053C29.1467 31.0339 30.2753 32.1784 31.4198 33.3071C31.5947 33.4978 31.8172 33.6091 32.0875 33.7681Z" fill="#F26522"/>
<path d="M34.8058 48.1542C31.0224 48.1542 27.2391 48.1542 23.4558 48.1542C22.4543 48.1542 22.0092 47.8839 21.9933 47.2322C21.9774 46.5645 22.4543 46.2466 23.4558 46.2466C31.0224 46.2466 38.605 46.2466 46.1716 46.2466C46.2511 46.2466 46.3465 46.2466 46.426 46.2466C47.2208 46.2784 47.65 46.644 47.6341 47.2481C47.6182 47.8362 47.2049 48.1542 46.426 48.1542C42.5473 48.1542 38.6686 48.1542 34.8058 48.1542Z" fill="#F26522"/>
<path d="M31.1655 50.7452C33.7248 50.7452 36.2841 50.7452 38.8275 50.7452C39.0342 50.7452 39.2567 50.7293 39.4634 50.777C39.9085 50.8565 40.1787 51.1267 40.2264 51.5877C40.2741 52.0646 40.0833 52.4302 39.6064 52.5733C39.3521 52.6528 39.066 52.6687 38.7957 52.6687C33.6771 52.6687 28.5744 52.6687 23.4558 52.6687C22.4384 52.6687 21.9615 52.3507 21.9774 51.6831C21.9933 51.0472 22.4225 50.7611 23.424 50.7611C25.9992 50.7452 28.5903 50.7452 31.1655 50.7452Z" fill="#F26522"/>
</svg>
