<svg width="80" height="80" viewBox="0 0 80 80" fill="none" xmlns="http://www.w3.org/2000/svg">
<path d="M10.0157 20.3089C10.0939 19.7766 10.1722 19.2287 10.2505 18.6964C10.3601 17.9136 10.7828 17.3657 11.5499 17.1152C12.3014 16.8803 12.9276 17.0995 13.4756 17.6318C14.9159 19.0565 16.3562 20.4968 17.7809 21.9371C18.047 22.2189 18.2818 22.2815 18.6419 22.1563C19.4091 21.8745 20.1918 21.6397 20.959 21.3578C21.1625 21.2796 21.366 21.0604 21.4443 20.8725C21.7417 20.0897 21.9609 19.2756 22.2584 18.4929C22.3836 18.1484 22.2897 17.9606 22.0549 17.7257C20.6459 16.3324 19.2682 14.939 17.8591 13.5457C17.2329 12.9351 16.9198 12.2463 17.2173 11.3852C17.5147 10.5554 18.2036 10.2267 19.0177 10.1171C25.7653 9.16209 31.4952 14.3598 31.2134 21.17C31.1978 21.4048 31.2917 21.7179 31.4483 21.8901C34.9238 25.397 38.4307 28.8882 41.9219 32.3794C41.9689 32.4264 42.0158 32.4577 42.1098 32.5203C42.2507 32.3794 42.4072 32.2385 42.5638 32.0976C46.3211 28.3403 50.0785 24.5829 53.8359 20.8256C53.9768 20.6847 54.102 20.5281 54.2586 20.4185C54.65 20.1524 55.0413 20.168 55.3858 20.4968C55.7302 20.8256 55.7459 21.2326 55.4797 21.6083C55.3701 21.7806 55.1979 21.9371 55.0414 22.078C50.3447 26.7747 45.648 31.4714 40.9513 36.1681C40.7634 36.356 40.5442 36.5282 40.372 36.6691C41.3583 37.6554 42.2976 38.5947 43.2683 39.5654C43.3466 39.4871 43.5031 39.3619 43.644 39.2053C51.1587 31.6906 58.6735 24.1915 66.1725 16.6611C66.4074 16.4263 66.5952 16.1132 66.7205 15.8001C67.2371 14.485 67.7381 13.1543 68.3017 11.6826C67.4563 11.9958 66.7674 12.3245 66.0629 12.5281C64.3721 12.9821 63.0414 13.9371 61.8672 15.2208C60.6304 16.5985 59.2527 17.851 57.9533 19.1661C57.6245 19.4948 57.2645 19.6044 56.8418 19.3852C56.466 19.1817 56.3251 18.8529 56.419 18.4459C56.466 18.258 56.5913 18.0545 56.7478 17.9136C58.6265 16.0193 60.5208 14.1249 62.4308 12.2463C62.65 12.0271 62.9318 11.8705 63.2136 11.7609C64.5913 11.213 65.9847 10.712 67.3624 10.1797C68.1451 9.86659 68.8653 9.94487 69.4602 10.5554C70.0551 11.166 70.1334 11.8705 69.8203 12.669C69.3193 13.9527 68.8653 15.2678 68.333 16.5516C68.1295 17.0212 67.8477 17.4909 67.4876 17.851C60.9905 24.3637 54.4934 30.8608 47.9806 37.3736C47.8084 37.5458 47.6362 37.6867 47.417 37.8589C47.5893 38.0624 47.7145 38.2033 47.8397 38.3286C51.1901 41.6789 54.556 45.0449 57.8907 48.3952C58.1881 48.6926 58.4699 48.8179 58.9083 48.8022C65.2019 48.583 70.1647 53.5459 69.9612 59.8238C69.9455 60.3405 69.8516 60.8727 69.7733 61.3894C69.6481 62.1095 69.2254 62.5949 68.5365 62.814C67.8007 63.0489 67.1432 62.861 66.5952 62.3131C65.1862 60.9041 63.7616 59.5107 62.3839 58.086C62.0238 57.726 61.7263 57.632 61.2723 57.8355C60.8966 58.0078 60.5052 58.1643 60.1138 58.2269C59.0022 58.3992 58.4543 59.041 58.2508 60.1056C58.1412 60.7005 57.6558 61.3111 57.7811 61.8121C57.9063 62.3444 58.5639 62.7358 59.0022 63.1898C60.0825 64.2857 61.1784 65.3816 62.2743 66.4618C62.8379 67.0254 63.1353 67.6673 62.8692 68.4657C62.603 69.2798 62.0081 69.6869 61.1784 69.7808C60.6774 69.8434 60.1764 69.9217 59.6754 69.9843C59.4876 69.9843 59.284 69.9843 59.0962 69.9843C58.924 69.953 58.7517 69.9061 58.5795 69.8904C52.8339 69.4207 48.5442 64.5362 48.873 58.8062C48.8887 58.4305 48.7947 58.1956 48.5443 57.9451C46.2898 55.7064 44.0354 53.452 41.781 51.1975C41.6558 51.0723 41.5305 50.9627 41.374 50.8375C41.2174 50.994 41.0608 51.1193 40.9356 51.2602C38.2898 53.906 35.6283 56.5674 32.9825 59.2132C29.9453 62.2504 26.9081 65.2876 23.8709 68.3248C22.9316 69.2798 21.867 69.6243 20.5832 69.1702C20.4736 69.1233 20.3171 69.1076 20.2075 69.1546C19.5656 69.4207 18.9394 69.7182 18.2975 70C17.7965 70 17.2799 70 16.7789 70C13.6478 68.638 11.3934 66.3679 10.0157 63.2054C10.0157 62.7045 10.0157 62.1878 10.0157 61.6868C10.2975 61.0606 10.5949 60.4187 10.8611 59.7769C10.908 59.6516 10.8767 59.4794 10.8298 59.3541C10.4227 58.18 10.6732 57.1624 11.5343 56.2856C12.8337 54.9706 14.1488 53.6555 15.4638 52.3561C15.9492 51.8707 16.4658 51.8394 16.8415 52.2308C17.2016 52.6066 17.1546 53.1232 16.7163 53.5772C16.2779 54.0312 15.8239 54.4539 15.4012 54.9236C15.0568 55.2993 15.0568 55.7533 15.3073 56.176C15.5578 56.5831 15.9648 56.771 16.4188 56.6301C16.7006 56.5361 16.9668 56.3326 17.1703 56.1134C19.3621 53.9373 21.5382 51.7612 23.7144 49.5694C25.1547 48.129 26.595 46.72 28.004 45.2484C28.2545 44.9822 28.458 44.5126 28.4111 44.1838C28.3641 43.8864 28.004 43.5419 27.6909 43.3697C27.2682 43.1505 26.8612 43.401 26.548 43.7298C25.0294 45.2484 23.5108 46.767 21.9922 48.2856C21.1155 49.1623 20.2388 50.0547 19.3308 50.9314C18.9237 51.3228 18.4384 51.3228 18.0783 50.9784C17.7339 50.6496 17.7339 50.133 18.0783 49.7103C18.1723 49.585 18.2975 49.4911 18.4071 49.3815C21.8513 45.9372 25.2799 42.5087 28.7242 39.0644C28.8651 38.9235 29.006 38.7669 29.1625 38.5947C26.7046 36.1368 24.3093 33.7415 21.8983 31.3462C21.7574 31.2053 21.4913 31.127 21.2877 31.1426C16.1996 31.4244 11.7065 28.1837 10.407 23.2522C10.2035 22.4851 10.1409 21.6866 10 20.9038C10.0157 20.7003 10.0157 20.5124 10.0157 20.3089ZM40.8417 33.7102C40.6851 33.5693 40.5129 33.444 40.3563 33.3031C36.8651 29.8119 33.3739 26.3207 29.867 22.8295C29.507 22.4694 29.3191 22.125 29.3817 21.5927C29.914 17.3343 27.2056 13.2795 23.0568 12.1054C21.6948 11.714 20.3171 11.6357 18.7985 11.9801C19.002 12.1993 19.1429 12.3558 19.2838 12.4967C20.6772 13.8901 22.0705 15.2991 23.4795 16.6768C24.1058 17.2874 24.2623 17.9919 23.9805 18.8216C23.6674 19.7453 23.3543 20.669 23.0568 21.5927C22.822 22.3285 22.3523 22.7825 21.6322 23.0017C20.7398 23.2835 19.8474 23.5653 18.9707 23.8941C18.0783 24.2228 17.3425 24.0193 16.685 23.3461C15.3073 21.9528 13.9296 20.5907 12.5362 19.213C12.3953 19.0721 12.2388 18.9312 12.0822 18.7903C12.0352 18.806 11.9726 18.8216 11.9256 18.8373C11.9256 19.8862 11.7847 20.9508 11.957 21.9684C12.7084 26.6338 16.7476 29.7493 21.4756 29.3422C22.1175 29.2953 22.5715 29.4675 23.0255 29.9215C25.5304 32.4734 28.0666 34.9783 30.6029 37.4988C30.7438 37.6397 30.9473 37.8276 31.1195 37.8276C31.7457 37.7806 32.3719 37.6554 33.0295 37.5615C32.1684 36.1994 32.2467 35.5575 33.3426 34.4616C33.6401 34.1642 33.9219 33.8824 34.2193 33.5849C35.1743 32.6456 36.1919 32.6456 37.1313 33.5849C37.7731 34.2268 38.3994 34.9 39.0413 35.5575C39.6518 34.9313 40.1998 34.3677 40.8417 33.7102ZM42.4542 47.0018C42.3759 47.5341 42.3446 48.0038 42.235 48.4422C42.1254 48.9118 42.282 49.2249 42.6264 49.5537C45.0843 51.9803 47.511 54.4539 49.9689 56.8649C50.5169 57.3972 50.736 57.9295 50.6734 58.7123C50.329 63.362 53.4914 67.3385 58.0942 68.0744C59.1275 68.2466 60.1608 68.2466 61.2566 67.9491C61.0688 67.7456 60.9435 67.6047 60.8026 67.4638C59.4093 66.0704 58.0159 64.6614 56.6226 63.2837C55.9963 62.6575 55.7928 61.953 56.0903 61.0919C56.419 60.1526 56.7165 59.2132 57.0296 58.2583C57.2488 57.6007 57.6715 57.1624 58.3447 56.9588C59.2527 56.6614 60.1608 56.3639 61.0531 56.0508C61.9612 55.7377 62.7126 55.8942 63.4015 56.5988C64.7479 57.9765 66.1256 59.3385 67.5033 60.7005C67.6442 60.8414 67.8007 60.9823 67.9886 61.1546C68.0512 61.0136 68.0982 60.951 68.1138 60.8727C69.1941 55.268 64.3565 49.9764 58.6735 50.5557C58.0003 50.6183 57.5306 50.4774 57.0609 50.0077C53.6167 46.5322 50.1411 43.0723 46.6656 39.5967C46.509 39.4401 46.3525 39.2992 46.2116 39.174C45.6166 39.7689 45.053 40.3169 44.4268 40.9587C45.1313 41.6476 45.8671 42.3208 46.556 43.0409C47.2918 43.8081 47.2918 44.8257 46.5716 45.6241C46.2272 45.9999 45.8515 46.3443 45.507 46.7044C44.4581 47.7846 43.7849 47.8472 42.4542 47.0018ZM39.7927 49.9138C36.552 46.6731 33.3269 43.448 30.1958 40.3169C29.7105 40.7552 29.1782 41.2562 28.6459 41.7572C30.7594 43.0253 30.6029 45.2797 29.0843 46.7513C25.4678 50.2269 21.9766 53.8277 18.4071 57.3659C18.0157 57.7573 17.5147 58.086 17.0137 58.2739C15.7143 58.7279 14.6028 58.1956 13.4912 56.5988C13.3347 56.8492 13.2251 57.0841 13.0529 57.2563C12.2074 58.1173 12.2074 58.5557 13.0529 59.4168C15.4638 61.8277 17.9218 64.2231 20.2858 66.681C21.7731 68.2153 22.1331 67.683 23.1977 66.5871C23.229 66.5401 23.2603 66.4931 23.2917 66.4305C23.1508 66.3366 23.0255 66.2583 22.9003 66.18C21.4286 65.1624 21.1781 63.1741 22.4306 61.906C26.188 58.1017 29.9766 54.3287 33.781 50.5557C35.0491 49.3032 37.053 49.585 38.055 51.0566C38.1332 51.1819 38.2272 51.3071 38.3054 51.4167C38.8064 50.8844 39.3074 50.3678 39.7927 49.9138ZM24.4189 65.0215C24.8103 64.7554 25.1547 64.5831 25.4208 64.317C29.006 60.7475 32.5755 57.178 36.1606 53.5929C36.3015 53.452 36.4424 53.3111 36.552 53.1545C36.8495 52.7161 36.7868 52.1839 36.4268 51.8238C36.0667 51.4637 35.5187 51.4167 35.0804 51.7142C34.9551 51.8081 34.8455 51.9177 34.736 52.0273C31.1195 55.6438 27.503 59.2602 23.8866 62.8767C23.7613 63.0019 23.5735 63.1272 23.5578 63.2681C23.5108 63.6125 23.4326 64.0195 23.5578 64.317C23.6831 64.5988 24.0744 64.7554 24.4189 65.0215ZM34.3132 36.1055C37.5227 39.2992 40.7321 42.5243 43.8789 45.6711C44.3329 45.264 44.8182 44.81 45.2566 44.403C42.0315 41.1779 38.8221 37.9685 35.5814 34.7278C35.19 35.1661 34.736 35.6515 34.3132 36.1055ZM40.5599 47.8003C40.6538 47.0644 40.779 46.2973 40.8573 45.5302C40.873 45.3736 40.7321 45.1701 40.6068 45.0449C38.7438 43.1662 36.8651 41.2875 34.9864 39.4245C34.8612 39.3149 34.7046 39.1427 34.5637 39.1583C33.7653 39.2366 32.9669 39.3619 32.2467 39.4558C35.0178 42.2425 37.7732 45.0136 40.5599 47.8003ZM18.7985 67.9178C16.5754 65.679 14.321 63.4403 12.0822 61.2015C11.5499 62.1252 11.6125 63.3777 12.3953 64.2231C13.4599 65.3816 14.5871 66.5088 15.7456 67.5734C16.638 68.4031 17.9531 68.4657 18.7985 67.9178Z" fill="#F26522"/>
<path d="M25.0138 27.3383C24.8259 27.1974 24.4815 27.0721 24.3875 26.8373C24.278 26.5868 24.2623 26.1328 24.4345 25.9293C24.8885 25.35 25.4365 24.8334 25.9844 24.348C26.3132 24.0662 26.7202 24.0976 27.049 24.395C27.3778 24.6925 27.5187 25.0995 27.2369 25.4439C26.7202 26.0702 26.1097 26.6181 25.5148 27.1817C25.4365 27.26 25.2643 27.26 25.0138 27.3383Z" fill="#F26522"/>
<path d="M55.8397 53.5303C55.8397 54.0939 54.1176 55.8004 53.5697 55.7691C52.9122 55.7534 52.4582 54.9706 52.8652 54.454C53.3662 53.8434 53.9298 53.2642 54.556 52.7788C55.0883 52.3875 55.8397 52.8728 55.8397 53.5303Z" fill="#F26522"/>
<path d="M20.3014 60.7162C20.004 60.4814 19.6752 60.3405 19.5656 60.1057C19.456 59.8708 19.5186 59.5107 19.5969 59.2289C19.6439 59.0567 19.8474 58.9315 19.9727 58.7906C23.5265 55.2367 27.0647 51.6986 30.6185 48.1447C30.7594 48.0038 30.8847 47.8629 31.0569 47.7533C31.4326 47.5185 31.8083 47.5342 32.1371 47.8316C32.4815 48.1604 32.5128 48.5518 32.2624 48.9432C32.1684 49.0841 32.0432 49.2093 31.9179 49.3346C28.3484 52.9197 24.7633 56.4892 21.1781 60.0587C20.9433 60.2935 20.6459 60.4657 20.3014 60.7162Z" fill="#F26522"/>
</svg>
