<svg width="80" height="80" viewBox="0 0 80 80" fill="none" xmlns="http://www.w3.org/2000/svg">
<path d="M10 67.4894C10 60.7766 10 54.0637 10 47.3509C10.6259 45.5358 11.9247 44.8316 13.7867 44.9725C14.7725 45.0351 15.774 45.0038 16.7754 44.9881C18.0898 44.9725 19.06 45.5201 19.6859 46.6781C19.7641 46.8032 19.9206 46.9597 20.0458 46.9754C20.7812 47.0067 21.5167 46.991 22.2834 46.991C19.8737 40.1843 20.8125 33.8939 25.1782 28.0104C24.1924 28.339 23.3318 28.6676 22.4555 28.9023C21.9235 29.0432 21.3289 29.1214 20.7969 29.0432C19.3573 28.8398 18.3089 27.7601 18.0585 26.3674C17.7925 24.9278 18.3871 23.6291 19.7328 22.7998C25.053 19.5294 30.3576 16.306 35.6621 13.0669C36.8513 12.3315 38.1501 11.9872 39.5584 11.9872C44.3153 11.9872 49.0878 11.9872 53.8447 11.9872C55.8006 11.9872 57.7409 11.9872 59.6969 11.9872C59.869 11.9872 60.1507 11.9403 60.1976 11.8308C60.6201 10.8606 61.4181 10.3599 62.357 10C64.0782 10 65.7995 10 67.5051 10C69.461 10.7824 69.9617 11.5335 69.9617 13.6772C69.9617 19.7015 69.9617 25.7415 69.9617 31.7659C69.9617 33.7531 68.7412 34.9736 66.754 34.9893C65.5647 34.9893 64.3755 34.9736 63.1863 34.9893C61.8719 35.0049 60.9017 34.4416 60.2758 33.2993C60.2133 33.1742 60.0724 33.0177 59.9629 33.0177C59.2118 32.9864 58.4607 33.002 57.647 33.002C58.8832 36.2098 59.2744 39.4802 58.758 42.86C58.2573 46.2243 56.9116 49.213 54.7209 52.0139C55.8006 51.654 56.6925 51.3411 57.6001 51.0594C59.4309 50.4961 61.2773 51.4819 61.825 53.2814C62.2944 54.7992 61.6998 56.3014 60.2446 57.1933C54.94 60.4323 49.6198 63.6714 44.3153 66.9105C43.0791 67.6615 41.749 68.0058 40.3095 68.0058C33.6749 67.9901 27.0403 68.0058 20.4057 67.9901C20.0301 67.9901 19.7954 68.0527 19.5764 68.4439C19.0443 69.4454 18.1368 69.9617 16.9945 69.993C16.3686 70.0087 15.7427 69.993 15.1168 69.993C14.6317 69.993 14.1466 69.993 13.6459 69.993C11.5335 69.9617 10.8137 69.4767 10 67.4894ZM37.978 23.7073C35.224 24.6149 32.5326 25.5225 29.8412 26.43C29.7004 26.477 29.5595 26.5708 29.45 26.6647C23.3005 31.2651 21.1724 40.4816 24.6775 47.3196C24.7557 47.4761 24.8965 47.6482 25.053 47.7421C26.0232 48.368 27.009 48.947 27.9635 49.5885C28.9493 50.2301 29.9664 50.856 31.1712 50.9186C32.8299 50.9968 34.4885 50.9499 36.1472 50.9812C36.7418 50.9968 37.3677 51.0281 37.9467 51.1689C40.3095 51.7792 41.6552 53.4691 42.0151 56.2075C42.0776 56.1918 42.1246 56.1918 42.1872 56.1762C44.816 55.2999 47.4291 54.4236 50.0579 53.5474C50.2301 53.4848 50.4022 53.3753 50.5587 53.2657C56.7082 48.5558 58.7737 39.574 55.3155 32.6421C55.2373 32.4857 55.1434 32.3292 55.0026 32.2353C53.8134 31.4686 52.5929 30.7175 51.4036 29.9507C50.3396 29.2779 49.1817 28.9493 47.9142 28.9649C46.4903 28.9806 45.0663 28.9336 43.6424 28.9806C40.9667 29.0745 38.0093 26.962 37.978 23.7073ZM59.9472 14.0058C59.7438 13.9901 59.5717 13.9745 59.3996 13.9745C52.7806 13.9745 46.1617 13.9745 39.5584 13.9745C38.4943 13.9745 37.5242 14.2718 36.6166 14.8195C33.6592 16.6346 30.6862 18.4341 27.7288 20.2336C25.4129 21.6418 23.0971 23.0501 20.7812 24.4741C20.1084 24.8809 19.8737 25.4442 20.0614 26.1014C20.2961 26.9151 21.0785 27.2437 22.0643 26.9151C27.6818 25.0374 33.2993 23.144 38.9168 21.2976C39.4801 21.1098 40.0904 21.0159 40.685 21.0159C42.8913 20.9846 45.0976 21.0003 47.304 21.0003C48.947 21.0003 50.4491 20.5622 51.7948 19.592C52.4207 19.1382 53.031 19.2008 53.3752 19.7172C53.7195 20.2179 53.563 20.7656 52.9528 21.2037C51.3254 22.3929 49.4946 22.9719 47.4761 22.9875C45.348 23.0032 43.2199 22.9875 41.0918 22.9875C40.3095 22.9875 39.9809 23.2535 40.0278 24.0516C40.0591 24.521 40.2156 25.0217 40.4816 25.3973C41.1701 26.3987 42.1715 26.9464 43.4077 26.962C44.7534 26.9933 46.0991 27.0246 47.4448 26.962C49.5885 26.8525 51.4662 27.5097 53.1875 28.7615C53.9229 29.2935 54.7053 29.7943 55.5033 30.2324C56.8803 30.9835 58.3825 31.0617 59.916 30.9209C59.9472 25.2564 59.9472 19.6389 59.9472 14.0058ZM20.0145 65.956C20.2805 65.956 20.4996 65.956 20.7343 65.956C26.4457 65.956 32.1727 65.956 37.8841 65.956C42.328 65.956 41.6082 66.175 45.3949 63.8592C49.9328 61.0895 54.4862 58.3199 59.024 55.5346C59.3683 55.3156 59.6969 54.987 59.869 54.6271C60.1037 54.142 59.9472 53.6256 59.5404 53.2344C59.0553 52.765 58.5077 52.7963 57.9131 52.9997C52.765 54.7366 47.6013 56.4422 42.4532 58.1947C40.9823 58.6954 39.5114 59.0084 37.931 58.9458C36.1785 58.8832 34.426 58.9302 32.6578 58.9302C31.0148 58.9302 29.5126 59.3683 28.1669 60.3384C27.5566 60.7766 26.9777 60.7296 26.6178 60.2289C26.2422 59.7125 26.3831 59.1492 27.0403 58.6954C28.652 57.5375 30.4671 56.9429 32.4544 56.9429C34.5824 56.9273 36.7105 56.9429 38.8386 56.9429C39.6523 56.9429 39.9809 56.6613 39.9183 55.8319C39.887 55.3625 39.7149 54.8618 39.4488 54.4862C38.7447 53.4848 37.7433 52.9684 36.5071 52.9528C34.958 52.9371 33.4245 52.9371 31.8754 52.9528C30.4358 52.9684 29.0901 52.6242 27.8696 51.8574C26.9777 51.2941 26.1171 50.6995 25.2251 50.1205C23.6291 49.1034 21.8922 48.8218 20.0145 49.0252C20.0145 54.674 20.0145 60.2759 20.0145 65.956ZM61.9814 22.4399C61.9814 25.5694 61.9814 28.6833 61.9814 31.8128C61.9814 32.6108 62.3257 32.9707 63.1081 32.9707C64.3442 32.9864 65.5647 32.9864 66.8009 32.9707C67.6146 32.9707 67.9745 32.5952 67.9745 31.7815C67.9745 25.6007 67.9745 19.4042 67.9745 13.2234C67.9745 12.3471 67.6146 12.0029 66.707 11.9872C65.5804 11.9872 64.4381 11.9872 63.3115 11.9872C62.2944 11.9872 61.9814 12.3002 61.9814 13.3173C61.9814 16.3529 61.9814 19.3886 61.9814 22.4399ZM17.9803 57.5062C17.9803 54.408 17.9803 51.2941 17.9803 48.1959C17.9803 47.3196 17.6517 46.991 16.7911 46.9754C15.5862 46.9754 14.3657 46.9597 13.1608 46.9754C12.3471 46.9754 11.9872 47.3353 11.9872 48.1646C11.9872 54.3454 11.9872 60.5419 11.9872 66.7227C11.9872 67.599 12.3471 67.9432 13.2547 67.9589C14.3813 67.9589 15.5236 67.9589 16.6502 67.9589C17.6673 67.9589 17.9803 67.6459 17.9803 66.6288C17.9803 63.5932 17.9803 60.5419 17.9803 57.5062Z" fill="#F26522"/>
<path d="M38.9481 45.8178C38.9481 44.1904 38.9481 42.5944 38.9481 40.9357C38.6039 40.8575 38.2596 40.7793 37.8998 40.6854C36.7888 40.3881 35.7873 39.8717 35.0049 39.0111C33.5341 37.3837 33.6592 35.1305 35.3022 33.6283C36.2098 32.799 37.2895 32.3295 38.4787 32.1261C38.8856 32.0635 38.9951 31.8914 38.9794 31.5159C38.9638 31.2655 38.9638 30.9995 39.0264 30.7648C39.1359 30.2641 39.4645 29.998 39.9809 29.998C40.4973 29.998 40.8102 30.2797 40.9354 30.7804C40.951 30.8117 40.9667 30.8587 40.951 30.89C40.7789 31.8601 41.2796 32.0948 42.1559 32.3139C43.9397 32.7677 45.348 33.7535 45.8644 35.6625C45.927 35.9285 45.9583 36.1945 45.9583 36.4762C45.9583 37.0082 45.5827 37.415 45.0664 37.462C44.5813 37.5089 44.1275 37.1803 44.0023 36.6639C43.6111 35.0992 42.7349 34.3324 41.0449 34.129C41.0449 35.7407 41.0449 37.3368 41.0449 39.0111C41.3735 39.0893 41.7491 39.1676 42.1246 39.2771C43.2982 39.6057 44.3309 40.1534 45.1133 41.1235C46.3964 42.7196 46.2556 44.7851 44.7378 46.2403C43.8459 47.1166 42.7505 47.6173 41.53 47.8051C41.0762 47.8833 40.9354 48.0554 40.9823 48.4935C40.998 48.7283 40.998 48.963 40.9354 49.1977C40.8259 49.6984 40.4816 49.9644 39.9809 49.9644C39.4645 49.9644 39.1516 49.6828 39.0264 49.182C39.0107 49.1507 38.9951 49.1038 39.0107 49.0725C39.2298 48.0241 38.5726 47.852 37.7589 47.6329C36.0064 47.1479 34.6137 46.1777 34.113 44.3C34.0504 44.034 34.0191 43.768 34.0191 43.4863C34.0191 42.9543 34.3947 42.5474 34.9111 42.5005C35.4118 42.4536 35.8499 42.7822 35.9751 43.2985C36.3506 44.8476 37.2425 45.6144 38.9481 45.8178ZM41.0136 45.8178C42.0151 45.7239 42.9852 45.2388 43.5172 44.5973C43.971 44.0653 44.1119 43.455 43.8146 42.7978C43.4234 41.9215 42.0464 41.1235 41.0136 41.1861C41.0136 42.7039 41.0136 44.2374 41.0136 45.8178ZM38.9481 34.0821C37.931 34.3011 37.0704 34.6141 36.4289 35.3652C36.022 35.8346 35.8656 36.3823 36.0846 36.9925C36.4289 37.947 37.8841 38.8546 38.9481 38.7451C38.9481 37.2116 38.9481 35.6938 38.9481 34.0821Z" fill="#F26522"/>
<path d="M54.9713 39.9652C54.9869 46.2869 50.9498 51.9982 45.0037 54.095C44.2683 54.361 43.705 54.1576 43.4859 53.5787C43.2668 52.9684 43.5641 52.5146 44.3152 52.2173C49.0252 50.3865 51.873 46.991 52.7806 42.0151C53.1874 39.7618 52.9058 37.5398 52.1234 35.3961C52.0765 35.2866 52.0295 35.177 51.9982 35.0675C51.7479 34.3477 51.9356 33.8313 52.5146 33.6123C53.0779 33.3932 53.5943 33.6749 53.8603 34.379C54.6114 36.1628 54.9713 38.0249 54.9713 39.9652Z" fill="#F26522"/>
<path d="M24.9591 40.012C24.9748 33.6591 29.0275 27.9008 34.9892 25.8509C35.8499 25.5536 36.5697 25.9761 36.5227 26.7585C36.4914 27.3687 36.0533 27.6035 35.5526 27.7912C33.1585 28.6518 31.1556 30.0914 29.6534 32.1413C26.8525 35.9593 26.2735 40.1372 27.8383 44.6124C27.9009 44.7846 27.9791 44.941 28.026 45.0975C28.1825 45.6921 27.9322 46.1928 27.4001 46.365C26.8994 46.5371 26.3517 46.3337 26.1796 45.7704C25.7884 44.4716 25.4285 43.1572 25.1312 41.8272C24.9904 41.2325 25.006 40.6066 24.9591 40.012Z" fill="#F26522"/>
</svg>
