<svg width="60" height="60" viewBox="0 0 60 60" fill="none" xmlns="http://www.w3.org/2000/svg">
<path d="M2.01461 11.6217C2.08767 11.1249 2.16073 10.6134 2.23379 10.1166C2.33607 9.38603 2.7306 8.87461 3.44658 8.64082C4.14796 8.42164 4.73244 8.62621 5.24385 9.12301C6.58815 10.4527 7.93245 11.797 9.26214 13.1413C9.51054 13.4043 9.72972 13.4628 10.0658 13.3459C10.7818 13.0829 11.5124 12.8637 12.2284 12.6007C12.4183 12.5276 12.6083 12.323 12.6813 12.1477C12.959 11.4171 13.1635 10.6573 13.4412 9.92667C13.5581 9.60521 13.4704 9.42986 13.2512 9.21068C11.9361 7.91022 10.6503 6.60976 9.3352 5.30929C8.75072 4.73943 8.45848 4.0965 8.73611 3.29284C9.01374 2.51841 9.65666 2.21156 10.4165 2.10928C16.7142 1.21795 22.0622 6.06912 21.7992 12.4253C21.7846 12.6445 21.8723 12.9367 22.0184 13.0975C25.2622 16.3705 28.5353 19.629 31.7938 22.8875C31.8376 22.9313 31.8814 22.9605 31.9691 23.019C32.1006 22.8875 32.2467 22.756 32.3929 22.6245C35.8997 19.1176 39.4066 15.6107 42.9135 12.1039C43.045 11.9723 43.1619 11.8262 43.308 11.7239C43.6733 11.4755 44.0386 11.4901 44.3601 11.797C44.6815 12.1039 44.6961 12.4838 44.4477 12.8344C44.3454 12.9952 44.1847 13.1413 44.0386 13.2728C39.655 17.6564 35.2714 22.04 30.8878 26.4236C30.7125 26.5989 30.5079 26.7596 30.3472 26.8911C31.2677 27.8117 32.1445 28.6884 33.0504 29.5944C33.1235 29.5213 33.2696 29.4044 33.4011 29.2583C40.4148 22.2445 47.4286 15.2454 54.4277 8.21707C54.6469 7.99789 54.8222 7.70565 54.9391 7.41341C55.4213 6.18601 55.8889 4.94399 56.4149 3.57047C55.6259 3.86271 54.9829 4.16956 54.3254 4.35952C52.7473 4.78326 51.5053 5.67459 50.4094 6.87277C49.2551 8.15862 47.9692 9.32758 46.7564 10.555C46.4496 10.8618 46.1135 10.9641 45.719 10.7596C45.3683 10.5696 45.2368 10.2627 45.3244 9.88284C45.3683 9.70749 45.4852 9.51754 45.6313 9.38603C47.3847 7.61798 49.1528 5.84994 50.9354 4.0965C51.14 3.89193 51.403 3.74581 51.666 3.64353C52.9519 3.13211 54.2523 2.66453 55.5382 2.16772C56.2688 1.87548 56.941 1.94854 57.4962 2.51841C58.0515 3.08828 58.1245 3.74581 57.8323 4.49102C57.3647 5.6892 56.941 6.91661 56.4441 8.11479C56.2542 8.55315 55.9912 8.99151 55.6551 9.32758C49.5911 15.4062 43.5272 21.4701 37.4486 27.5487C37.2879 27.7094 37.1271 27.8409 36.9226 28.0017C37.0833 28.1916 37.2002 28.3231 37.3171 28.44C40.4441 31.567 43.5856 34.7085 46.698 37.8355C46.9756 38.1131 47.2386 38.23 47.6477 38.2154C53.5218 38.0108 58.1537 42.6428 57.9638 48.5022C57.9492 48.9844 57.8615 49.4812 57.7884 49.9634C57.6716 50.6356 57.277 51.0885 56.6341 51.2931C55.9473 51.5123 55.3336 51.3369 54.8222 50.8255C53.5071 49.5105 52.1775 48.21 50.8916 46.8803C50.5555 46.5442 50.2779 46.4566 49.8542 46.6465C49.5035 46.8072 49.1382 46.9534 48.7729 47.0118C47.7354 47.1725 47.224 47.7716 47.034 48.7652C46.9318 49.3205 46.4788 49.8904 46.5957 50.3579C46.7126 50.8548 47.3263 51.2201 47.7354 51.6438C48.7436 52.6666 49.7665 53.6895 50.7893 54.6977C51.3153 55.2237 51.593 55.8228 51.3446 56.568C51.0962 57.3278 50.5409 57.7078 49.7665 57.7954C49.2989 57.8539 48.8313 57.9269 48.3637 57.9854C48.1884 57.9854 47.9984 57.9854 47.8231 57.9854C47.6624 57.9562 47.5016 57.9123 47.3409 57.8977C41.9783 57.4594 37.9746 52.9004 38.2815 47.5525C38.2961 47.2018 38.2084 46.9826 37.9746 46.7488C35.8705 44.6593 33.7664 42.5552 31.6623 40.451C31.5454 40.3341 31.4285 40.2319 31.2824 40.115C31.1362 40.2611 30.9901 40.378 30.8732 40.5095C28.4038 42.9789 25.9198 45.4629 23.4503 47.9324C20.6156 50.7671 17.7809 53.6018 14.9462 56.4365C14.0695 57.3278 13.0759 57.6493 11.8777 57.2256C11.7754 57.1817 11.6293 57.1671 11.527 57.2109C10.9279 57.4594 10.3434 57.737 9.74434 58C9.27675 58 8.79456 58 8.32698 58C5.40459 56.7288 3.30046 54.61 2.01461 51.6584C2.01461 51.1908 2.01461 50.7086 2.01461 50.2411C2.27763 49.6566 2.55525 49.0575 2.80366 48.4584C2.84749 48.3415 2.81827 48.1808 2.77443 48.0639C2.39452 46.968 2.62831 46.0182 3.43197 45.1999C4.64476 43.9725 5.87217 42.7451 7.09957 41.5323C7.55254 41.0794 8.03474 41.0501 8.38542 41.4154C8.7215 41.7661 8.67766 42.2483 8.26853 42.6721C7.85939 43.0958 7.43565 43.4903 7.04112 43.9287C6.71966 44.2794 6.71966 44.7031 6.95345 45.0976C7.18724 45.4776 7.56715 45.6529 7.9909 45.5214C8.25392 45.4337 8.50232 45.2438 8.69228 45.0392C10.7379 43.0081 12.769 40.9771 14.8001 38.9314C16.1444 37.5871 17.4887 36.272 18.8037 34.8985C19.0375 34.6501 19.2275 34.2117 19.1837 33.9049C19.1398 33.6273 18.8037 33.3058 18.5115 33.1451C18.117 32.9405 17.7371 33.1743 17.4448 33.4811C16.0275 34.8985 14.6101 36.3159 13.1928 37.7332C12.3745 38.5515 11.5562 39.3844 10.7087 40.2026C10.3288 40.5679 9.87584 40.5679 9.53977 40.2465C9.21831 39.9396 9.21831 39.4574 9.53977 39.0629C9.62744 38.946 9.74434 38.8583 9.84662 38.7561C13.0612 35.5414 16.2613 32.3414 19.4759 29.1268C19.6074 28.9953 19.7389 28.8492 19.885 28.6884C17.591 26.3943 15.3553 24.1587 13.1051 21.9231C12.9736 21.7916 12.7252 21.7185 12.5352 21.7331C7.78633 21.9961 3.5927 18.9715 2.37991 14.3687C2.18996 13.6527 2.13151 12.9075 2 12.1769C2.01461 11.987 2.01461 11.8116 2.01461 11.6217ZM30.7856 24.1295C30.6394 23.998 30.4787 23.8811 30.3326 23.7496C27.0741 20.4911 23.8156 17.2326 20.5426 13.9742C20.2065 13.6381 20.0312 13.3166 20.0896 12.8198C20.5864 8.84539 18.0585 5.06089 14.1864 3.96499C12.9151 3.5997 11.6293 3.52664 10.2119 3.8481C10.4019 4.05267 10.5334 4.19879 10.6649 4.33029C11.9654 5.63076 13.2658 6.94583 14.5809 8.23168C15.1654 8.80155 15.3115 9.45909 15.0485 10.2335C14.7562 11.0956 14.464 11.9577 14.1864 12.8198C13.9672 13.5066 13.5288 13.9303 12.8567 14.1349C12.0238 14.3979 11.1909 14.6609 10.3727 14.9678C9.53977 15.2746 8.85301 15.0847 8.2393 14.4564C6.95345 13.1559 5.6676 11.8847 4.36714 10.5988C4.23563 10.4673 4.08951 10.3358 3.94339 10.2043C3.89955 10.2189 3.84111 10.2335 3.79727 10.2481C3.79727 11.2271 3.66576 12.2207 3.82649 13.1705C4.52787 17.5249 8.29775 20.4327 12.7106 20.0528C13.3097 20.0089 13.7334 20.1696 14.1571 20.5934C16.4951 22.9751 18.8622 25.3131 21.2293 27.6656C21.3608 27.7971 21.5508 27.9724 21.7115 27.9724C22.296 27.9286 22.8805 27.8117 23.4942 27.724C22.6905 26.4528 22.7636 25.8537 23.7864 24.8309C24.0641 24.5532 24.3271 24.2902 24.6047 24.0126C25.496 23.1359 26.4458 23.1359 27.3225 24.0126C27.9216 24.6117 28.5061 25.24 29.1052 25.8537C29.675 25.2692 30.1865 24.7432 30.7856 24.1295ZM32.2906 36.535C32.2175 37.0318 32.1883 37.4702 32.086 37.8793C31.9837 38.3177 32.1299 38.6099 32.4513 38.9168C34.7454 41.1816 37.0102 43.4903 39.3043 45.7406C39.8157 46.2374 40.0203 46.7342 39.9619 47.4648C39.6404 51.8045 42.592 55.516 46.8879 56.2027C47.8523 56.3635 48.8167 56.3635 49.8395 56.0858C49.6642 55.8959 49.5473 55.7644 49.4158 55.6329C48.1153 54.3324 46.8149 53.0173 45.5144 51.7315C44.9299 51.147 44.74 50.4895 45.0176 49.6858C45.3244 48.8091 45.6021 47.9324 45.8943 47.041C46.0989 46.4273 46.4934 46.0182 47.1217 45.8282C47.9692 45.5506 48.8167 45.273 49.6496 44.9807C50.4971 44.6885 51.1985 44.8346 51.8414 45.4922C53.098 46.778 54.3839 48.0493 55.6697 49.3205C55.8012 49.452 55.9473 49.5835 56.1227 49.7442C56.1811 49.6127 56.225 49.5543 56.2396 49.4812C57.2478 44.2501 52.7327 39.3113 47.4286 39.852C46.8003 39.9104 46.3619 39.7789 45.9235 39.3405C42.7089 36.0967 39.4651 32.8674 36.2212 29.6236C36.0751 29.4775 35.929 29.346 35.7975 29.2291C35.2422 29.7843 34.7162 30.2957 34.1317 30.8948C34.7892 31.5378 35.476 32.1661 36.1189 32.8382C36.8057 33.5542 36.8057 34.504 36.1335 35.2492C35.8121 35.5999 35.4614 35.9213 35.1399 36.2574C34.1609 37.2656 33.5326 37.3241 32.2906 36.535ZM29.8066 39.2529C26.7819 36.2282 23.7718 33.2181 20.8494 30.2957C20.3965 30.7049 19.8996 31.1725 19.4028 31.64C21.3755 32.8236 21.2293 34.9277 19.812 36.3012C16.4366 39.5451 13.1781 42.9058 9.84662 46.2082C9.48132 46.5735 9.01374 46.8803 8.54616 47.0556C7.33336 47.4794 6.29592 46.9826 5.25847 45.4922C5.11235 45.726 5.01006 45.9451 4.84933 46.1059C4.06029 46.9095 4.06029 47.3187 4.84933 48.1223C7.09957 50.3726 9.39365 52.6082 11.6001 54.9023C12.9882 56.3342 13.3243 55.8374 14.3179 54.8146C14.3471 54.7708 14.3763 54.7269 14.4056 54.6685C14.274 54.5808 14.1571 54.5077 14.0403 54.4347C12.6667 53.4849 12.4329 51.6292 13.6019 50.4456C17.1088 46.8949 20.6449 43.3734 24.1956 39.852C25.3791 38.683 27.2495 38.946 28.1846 40.3195C28.2577 40.4364 28.3454 40.5533 28.4184 40.6556C28.886 40.1588 29.3536 39.6766 29.8066 39.2529ZM15.4576 53.3534C15.8229 53.105 16.1444 52.9443 16.3928 52.6959C19.7389 49.3643 23.0704 46.0328 26.4166 42.6867C26.5481 42.5552 26.6796 42.4237 26.7819 42.2775C27.0595 41.8684 27.0011 41.3716 26.665 41.0355C26.3289 40.6994 25.8175 40.6556 25.4084 40.9332C25.2915 41.0209 25.1892 41.1232 25.0869 41.2255C21.7115 44.6008 18.3362 47.9762 14.9608 51.3516C14.8439 51.4685 14.6686 51.5854 14.654 51.7169C14.6101 52.0383 14.5371 52.4182 14.654 52.6959C14.7708 52.9589 15.1361 53.105 15.4576 53.3534ZM24.6924 26.3651C27.6878 29.346 30.6833 32.356 33.6203 35.293C34.044 34.9131 34.497 34.4894 34.9061 34.1095C31.8961 31.0994 28.9006 28.1039 25.8759 25.0793C25.5106 25.4884 25.0869 25.9414 24.6924 26.3651ZM30.5225 37.2802C30.6102 36.5935 30.7271 35.8775 30.8002 35.1615C30.8148 35.0154 30.6833 34.8254 30.5664 34.7085C28.8275 32.9551 27.0741 31.2017 25.3207 29.4629C25.2038 29.3606 25.0577 29.1998 24.9262 29.2144C24.1809 29.2875 23.4357 29.4044 22.7636 29.4921C25.3499 32.093 27.9216 34.6793 30.5225 37.2802ZM10.2119 56.0566C8.13702 53.9671 6.0329 51.8776 3.94339 49.7881C3.44658 50.6502 3.50503 51.8191 4.23563 52.6082C5.22924 53.6895 6.2813 54.7415 7.36259 55.7351C8.19547 56.5096 9.42287 56.568 10.2119 56.0566Z" fill="#F26522"/>
<path d="M16.0129 18.1825C15.8375 18.051 15.5161 17.9341 15.4284 17.7149C15.3261 17.4811 15.3115 17.0573 15.4722 16.8674C15.896 16.3267 16.4074 15.8446 16.9188 15.3916C17.2257 15.1286 17.6056 15.1578 17.9124 15.4354C18.2193 15.713 18.3508 16.093 18.0878 16.4144C17.6056 16.9989 17.0357 17.5103 16.4804 18.0363C16.4074 18.1094 16.2467 18.1094 16.0129 18.1825Z" fill="#F26522"/>
<path d="M44.7838 42.6282C44.7838 43.1542 43.1765 44.7469 42.6651 44.7177C42.0514 44.7031 41.6276 43.9725 42.0075 43.4903C42.4751 42.9205 43.0011 42.3798 43.5856 41.9269C44.0824 41.5616 44.7838 42.0145 44.7838 42.6282Z" fill="#F26522"/>
<path d="M11.6147 49.3351C11.337 49.1159 11.0302 48.9844 10.9279 48.7653C10.8256 48.5461 10.8841 48.21 10.9571 47.947C11.001 47.7863 11.1909 47.6694 11.3078 47.5379C14.6247 44.2209 17.927 40.9186 21.2439 37.6017C21.3755 37.4702 21.4923 37.3387 21.6531 37.2364C22.0038 37.0173 22.3545 37.0319 22.6613 37.3095C22.9828 37.6163 23.012 37.9816 22.7782 38.3469C22.6905 38.4784 22.5736 38.5953 22.4567 38.7122C19.1252 42.0584 15.7791 45.3899 12.4329 48.7214C12.2138 48.9406 11.9361 49.1013 11.6147 49.3351Z" fill="#F26522"/>
</svg>
