<svg width="60" height="60" viewBox="0 0 60 60" fill="none" xmlns="http://www.w3.org/2000/svg">
<g clip-path="url(#clip0_57_211)">
<path d="M60 42.3281C59.7188 42.8594 59.2656 43.0156 58.6875 43C57.8125 42.9687 56.9375 43 56.0156 43C55.9219 44.9531 55.2031 46.5625 53.6719 47.75C52.5312 48.6406 51.2344 49.0469 49.7969 49C47.3281 48.9219 44.2969 47.0937 44.0469 43.0625C37.0312 43.0625 30.0156 43.0625 22.9375 43.0625C22.8438 45.1094 22.0156 46.7812 20.3281 47.9687C19.1875 48.7656 17.8906 49.1094 16.5 49C13.875 48.7812 11.1875 46.7812 10.9844 43.0469C10.7812 43.0312 10.5781 43.0156 10.375 43.0156C9.04688 43.0156 7.71875 43.0156 6.39062 43.0156C4.70312 43.0156 4 42.3125 3.98438 40.6406C3.98438 40.1094 3.98438 39.5937 3.98438 39C3.04688 39 2.15625 38.9687 1.26563 39.0156C0.703125 39.0312 0.28125 38.875 -0.015625 38.3906C-0.015625 38.2031 -0.015625 38 -0.015625 37.8125C0.25 37.3437 0.640625 37.1406 1.1875 37.1406C4.01562 37.1562 6.84375 37.1406 9.6875 37.1406C9.78125 37.1406 9.89062 37.1406 9.98438 37.1562C10.5469 37.2187 10.9062 37.6094 10.8906 38.1094C10.875 38.6094 10.5 38.9844 9.92188 39C8.8125 39.0156 7.70312 39 6.57812 39.0156C6.375 39.0156 6.15625 39.0156 5.90625 39.0156C5.90625 39.75 5.90625 40.4062 5.90625 41.1562C6.5625 41.1562 7.20312 41.1562 7.84375 41.1562C8.85938 41.1562 9.875 41.1406 10.8906 41.1562C11.2187 41.1562 11.3594 41.0469 11.5 40.75C12.5781 38.4219 14.4219 37.1406 16.9844 37.1562C19.5156 37.1719 21.3438 38.4375 22.4219 40.7344C22.5469 41.0156 22.6875 41.1562 23.0156 41.1562C29.25 41.1406 35.4688 41.1406 41.7031 41.1406C41.7969 41.1406 41.8906 41.125 42.0469 41.1094C42.0625 40.8906 42.0781 40.6719 42.0781 40.4687C42.0781 38.4219 42.0625 36.375 42.0938 34.3281C42.0938 33.9687 42.2969 33.5 42.5625 33.2812C43.1406 32.8125 43.9375 33.3281 43.9531 34.1406C43.9688 35.5312 43.9531 36.9062 43.9531 38.2969C43.9531 39.0781 43.9375 39.8594 43.9688 40.6406C43.9688 40.8125 44.0781 40.9687 44.1406 41.125C44.2812 41 44.4844 40.9062 44.5625 40.75C45.3906 38.9844 46.7031 37.7969 48.6094 37.3125C51.4062 36.6094 54.25 37.9844 55.4375 40.6094C55.6094 41 55.8125 41.1719 56.25 41.1406C56.8438 41.0937 57.4531 41.125 58.0781 41.125C58.0781 39.7344 58.0781 38.3906 58.0781 36.9687C57.6719 36.9687 57.2969 36.9844 56.9063 36.9687C55.3594 36.8906 54.1562 35.6875 54.1094 34.1406C54.0938 33.4844 54.0938 32.8125 54.1094 32.1562C54.125 31.4687 54.4531 31.125 55.1719 31.1094C56.0625 31.0937 56.9531 31.1094 57.8594 31.1094C57.6875 30.0625 56.5781 29.0312 55.3906 29.0312C51.6094 28.9844 47.8125 29.0156 43.9531 29.0156C43.9531 29.3594 43.9688 29.6875 43.9531 30.0156C43.9219 30.6094 43.5469 31 43.0156 31C42.5156 31 42.1406 30.625 42.0781 30.0625C42.0625 29.8906 42.0781 29.7187 42.0781 29.5312C42.0781 24.2656 42.0781 19 42.0781 13.7344C42.0781 13.5 42.0781 13.2812 42.0781 13.0156C30 13.0156 17.9844 13.0156 5.875 13.0156C5.875 13.2656 5.875 13.4844 5.875 13.7187C5.875 18.9687 5.875 24.2031 5.875 29.4531C5.875 29.6094 5.875 29.7656 5.875 29.9219C5.85937 30.5781 5.51562 30.9844 4.98438 31C4.42188 31.0156 4.01562 30.5937 4.01562 29.9219C4 27.8594 4.01562 25.7969 4.01562 23.7187C4.01562 20.2656 4.01562 16.8125 4.01562 13.375C4 11.8437 4.76562 11.0938 6.28125 11.0938C18.0938 11.0938 29.9063 11.0938 41.7188 11.0938C43.2188 11.0938 43.9531 11.8281 43.9531 13.3125C43.9531 13.875 43.9531 14.4375 43.9531 15.0469C44.2031 15.0625 44.4062 15.0781 44.6094 15.0781C46.625 15.0781 48.6406 15.125 50.6406 15.0625C53.1719 15 55.375 16.75 54.9375 20.1562C54.8906 20.4687 54.5625 20.75 54.2969 21.1406C54.75 22.9219 55.2188 24.875 55.7188 26.8125C55.75 26.9687 55.9375 27.1562 56.0781 27.1875C58.1719 27.7344 59.4531 29.0469 59.9062 31.1562C59.9219 31.2031 59.9531 31.2656 59.9844 31.3125C60 34.9844 60 38.6562 60 42.3281ZM44 20.9844C44 23.0781 44 25.0781 44 27.0625C47.2812 27.0625 50.5312 27.0625 53.8281 27.0625C53.3594 25.1562 52.875 23.3125 52.4375 21.4687C52.3438 21.0937 52.1875 20.9687 51.8125 20.9844C49.5469 21 47.2812 20.9844 45.0156 20.9844C44.7031 20.9844 44.3594 20.9844 44 20.9844ZM50.0313 47.1094C52.25 47.1094 54.0938 45.2812 54.1094 43.0625C54.125 40.8437 52.2969 39.0156 50.0625 38.9844C47.8281 38.9531 45.9375 40.8125 45.9531 43.0625C45.9688 45.2656 47.8125 47.1094 50.0313 47.1094ZM16.9531 47.1094C19.1875 47.125 21.0156 45.3281 21.0469 43.0781C21.0781 40.8437 19.2188 38.9687 16.9688 38.9844C14.7344 38.9844 12.9062 40.8125 12.9062 43.0312C12.8906 45.25 14.7344 47.0937 16.9531 47.1094ZM53.0469 19.0625C53.125 17.875 52.2188 16.9844 50.9375 16.9844C48.75 16.9687 46.5625 16.9844 44.3906 16.9844C44.2656 16.9844 44.125 17.0156 43.9844 17.0312C43.9844 17.7187 43.9844 18.375 43.9844 19.0625C47.0312 19.0625 50.0469 19.0625 53.0469 19.0625ZM56.0469 33C55.8281 34.875 56.375 35.2969 58.0938 35.0156C58.0938 34.3437 58.0938 33.6875 58.0938 33C57.3906 33 56.7344 33 56.0469 33Z" fill="#F26522"/>
<path d="M22.9687 28.7656C24.6719 27.0469 26.2969 25.4219 27.9219 23.7969C29.0312 22.6875 30.125 21.5781 31.2344 20.4844C31.8281 19.8906 32.6562 20.0156 32.8906 20.7344C33.0312 21.1719 32.8594 21.5312 32.5469 21.8281C31.6875 22.6719 30.8281 23.5312 29.9687 24.3906C27.9531 26.4062 25.9375 28.4219 23.9219 30.4219C23.1875 31.1562 22.7969 31.1562 22.0625 30.4219C20.5781 28.9531 19.1094 27.4687 17.625 26C17.5469 25.9219 17.4531 25.8437 17.375 25.75C16.9531 25.2969 16.9375 24.7812 17.2969 24.3906C17.6875 23.9844 18.2344 23.9844 18.7031 24.4375C19.9375 25.6562 21.1719 26.8906 22.3906 28.1094C22.5625 28.2969 22.7344 28.5 22.9687 28.7656Z" fill="#F26522"/>
<path d="M32.0469 38.9688C29.8438 38.9688 27.6406 38.9688 25.4219 38.9688C25.2031 38.9688 24.9844 38.9844 24.7813 38.9376C24.3125 38.8438 24 38.5001 24.0781 38.0782C24.125 37.7501 24.4219 37.4219 24.6875 37.1876C24.8281 37.0626 25.1406 37.0938 25.3594 37.0938C29.7969 37.0938 34.2188 37.0938 38.6563 37.0938C38.7969 37.0938 38.9375 37.0938 39.0625 37.1094C39.6094 37.1876 39.9688 37.5938 39.9375 38.0938C39.9063 38.5782 39.5469 38.9376 39 38.9532C38.2656 38.9688 37.5156 38.9688 36.7813 38.9688C35.2188 38.9688 33.6406 38.9688 32.0469 38.9688Z" fill="#F26522"/>
<path d="M8.95313 34.9687C7.01563 34.9687 5.09376 34.9687 3.15626 34.9687C2.42188 34.9687 1.98438 34.6094 2.00001 34.0312C2.01563 33.4844 2.43751 33.1094 3.12501 33.1094C7.01563 33.1094 10.8906 33.1094 14.7813 33.1094C15.2188 33.1094 15.6563 33.2187 15.7813 33.6562C15.875 33.9531 15.8438 34.3906 15.6719 34.6094C15.5 34.8281 15.0781 34.9531 14.75 34.9687C12.8125 34.9844 10.8906 34.9687 8.95313 34.9687Z" fill="#F26522"/>
<path d="M50.0156 41.125C51.0938 41.1093 51.9688 41.9531 51.9844 43.0156C52 44.0781 51.125 44.9687 50.0781 44.9844C49.0313 45 48.125 44.125 48.1094 43.0625C48.0781 42 48.9375 41.125 50.0156 41.125Z" fill="#F26522"/>
<path d="M18.9062 43.0469C18.9062 44.125 18.0469 44.9844 16.9844 45C15.9375 45 15.0469 44.1094 15.0312 43.0625C15.0312 42 15.8906 41.1406 16.9688 41.1406C18.0469 41.1094 18.9062 41.9531 18.9062 43.0469Z" fill="#F26522"/>
</g>
<defs>
<clipPath id="clip0_57_211">
<rect width="60" height="60" fill="white"/>
</clipPath>
</defs>
</svg>
