<svg width="60" height="60" viewBox="0 0 60 60" fill="none" xmlns="http://www.w3.org/2000/svg">
<path d="M31.7031 0C32.9375 0.1875 34.1719 0.328125 35.375 0.59375C41.2187 1.89062 45.0312 6.03125 45.8281 11.9688C46.0469 13.5469 45.9844 15.1562 46.0781 16.75C46.0937 16.9531 46.2187 17.2188 46.375 17.3438C47.25 18 47.7187 18.8438 47.7187 19.9375C47.7187 21.0156 47.7344 22.0781 47.7187 23.1562C47.7031 24.9219 46.4219 26.2031 44.6406 26.2188C43.4687 26.2344 42.3125 26.2188 41.1094 26.2188C40.5937 29.0938 38.9219 31.2344 36.8281 33.0938C36.6719 33.2344 36.5156 33.4688 36.5156 33.6562C36.4844 35.0156 36.5 36.375 36.5 37.7969C38.0469 38.2344 39.5781 38.6719 41.1094 39.0938C43.4531 39.75 45.7969 40.4062 48.125 41.0781C51.3594 42 53.5781 44.7188 53.9375 48.0469C54.3125 51.5312 54.7656 55.0156 55.1562 58.5C55.1875 58.8125 55.2031 59.2344 55.0469 59.4375C54.8594 59.6875 54.4375 59.875 54.125 59.875C53.6562 59.875 53.3906 59.4844 53.3437 59C53.1875 57.6875 53.0312 56.375 52.875 55.0469C52.5781 52.5781 52.3594 50.0781 51.9531 47.625C51.5469 45.2031 50.0469 43.625 47.7031 42.9062C45.7344 42.2969 43.7344 41.7813 41.7031 41.2031C41.5781 41.375 41.4531 41.5312 41.3437 41.7188C39.75 44.125 38.1406 46.5156 36.5469 48.9219C35.9687 49.7969 35.5 49.8594 34.6875 49.1875C33.4687 48.1719 32.2344 47.1406 30.9375 46.0625C30.9219 46.2969 30.8906 46.4531 30.8906 46.6094C30.8906 48.4687 30.8906 50.3125 30.8906 52.1719C30.8906 52.9375 30.5156 53.3906 29.9219 53.375C29.3594 53.3594 29.0156 52.9219 29.0156 52.1719C29.0156 50.3594 29.0156 48.5469 29.0156 46.7344C29.0156 46.5469 29.0156 46.3594 29.0156 46.0469C27.9219 46.9688 26.9062 47.7969 25.8906 48.6406C25.6562 48.8437 25.4062 49.0469 25.1719 49.2344C24.4219 49.8594 23.9375 49.7969 23.3906 48.9844C21.7969 46.5938 20.1875 44.1875 18.5937 41.7812C18.4687 41.6094 18.3437 41.4375 18.2031 41.2188C16.0156 41.8438 13.7812 42.3594 11.6562 43.1406C9.40625 43.9688 8.14062 45.7344 7.84375 48.1094C7.39062 51.7188 6.98437 55.3437 6.54687 58.9531C6.46875 59.5781 6.0625 59.9688 5.51562 59.9219C4.96875 59.875 4.60937 59.4062 4.6875 58.7969C5.14062 55 5.5 51.2031 6.07812 47.4375C6.57812 44.2031 8.57812 42.0781 11.7031 41.1406C15.4062 40.0312 19.1562 39.0156 22.875 37.9844C23.2812 37.875 23.3906 37.7188 23.375 37.3125C23.3437 36.1562 23.3906 35.0156 23.3437 33.8594C23.3281 33.5938 23.1875 33.2656 22.9844 33.0781C21.375 31.6406 20 30.0469 19.2344 28.0156C19.0312 27.4688 18.8906 26.9062 18.7031 26.25C17.6406 26.25 16.5156 26.2656 15.3906 26.25C14.9844 26.25 14.5625 26.2031 14.1875 26.0938C13.0156 25.7344 12.1719 24.6094 12.1562 23.375C12.125 22.1875 12.125 21 12.1562 19.8125C12.1719 18.8438 12.6094 18.0312 13.4219 17.4844C13.7344 17.2656 13.8281 17.0625 13.8125 16.6875C13.6406 13.9531 13.9062 11.2812 14.9062 8.70312C16.625 4.26562 19.9531 1.70312 24.5 0.65625C25.7031 0.375 26.9531 0.25 28.1719 0.0625C29.3594 0 30.5312 0 31.7031 0ZM39.0625 26.7031C37.9844 27.1094 37.0156 27.4844 36.0469 27.8281C35.7187 27.9375 35.5625 28.0781 35.5156 28.4531C35.3437 29.7656 34.2969 30.7344 33.0312 30.8594C31.7969 30.9844 30.6094 30.25 30.1562 29.0781C29.6875 27.8906 30.0937 26.5469 31.125 25.8125C32.2031 25.0469 33.5156 25.125 34.5937 25.9688C34.7656 26.0938 35.0937 26.1562 35.2969 26.0781C36.5 25.6719 37.6719 25.2031 38.8594 24.7812C39.1875 24.6719 39.2969 24.5 39.2969 24.1562C39.2812 22.0312 39.3594 19.9062 39.25 17.7812C39.2187 16.9219 38.9375 16.0156 38.5781 15.2188C38.125 14.2344 37.2187 13.8125 36.1562 14C35.2344 14.1562 34.2812 14.375 33.4219 14.7656C31.0781 15.8438 28.7812 15.875 26.4375 14.7656C25.8125 14.4688 25.1406 14.2344 24.4531 14.0938C22.4687 13.6562 21.2656 14.4219 20.7656 16.4062C20.6406 16.9219 20.5781 17.4844 20.5625 18.0156C20.5469 20.2969 20.5781 22.5781 20.5469 24.8594C20.5312 26.2031 20.875 27.4531 21.5937 28.5625C23.375 31.3281 25.8594 33.2188 28.9062 34.4062C29.5937 34.6719 30.2656 34.6719 30.9531 34.4062C33.3281 33.5312 35.2969 32.0781 36.9844 30.2188C37.9062 29.2344 38.6406 28.1406 39.0625 26.7031ZM40.625 14.8906C40.6719 14.875 40.7344 14.8438 40.7812 14.8281C40.5937 13.875 40.4531 12.9219 40.2031 11.9844C39.2812 8.5625 37.2656 6.125 33.75 5.1875C31.0469 4.46875 28.3125 4.46875 25.6094 5.1875C22.8125 5.92188 20.8437 7.65625 19.7031 10.3125C19.0781 11.7969 18.75 13.3437 18.5937 14.9531C18.5312 15.5781 18.5 16.2031 18.4687 16.8125C18.5312 16.8281 18.6094 16.8438 18.6719 16.8594C18.7344 16.7188 18.7812 16.5938 18.8281 16.4531C19.0625 15.7812 19.2187 15.0625 19.5469 14.4219C20.4375 12.7188 21.9062 11.9688 23.8281 12.1094C25.0312 12.2031 26.1562 12.5312 27.2344 13.0469C28.3281 13.5625 29.4687 13.9062 30.6719 13.6562C31.375 13.5156 32.0625 13.2812 32.7187 12.9844C33.9062 12.4531 35.1406 12.0781 36.4375 12.0938C38.4219 12.125 39.7969 13.125 40.625 14.8906ZM16.4375 16.8281C16.7344 14.9844 16.9062 13.2031 17.3437 11.4688C18.3906 7.29688 20.9062 4.42188 25.1875 3.34375C28.1094 2.59375 31.0625 2.59375 33.9844 3.29688C37.4844 4.125 40 6.17188 41.3437 9.53125C41.8594 10.8438 42.1719 12.25 42.4531 13.625C42.6719 14.6719 42.6875 15.75 42.7969 16.8125C43.25 16.8125 43.6875 16.8125 44.1719 16.8125C44.3125 15.1875 44.25 13.6094 43.9687 12.0312C43.0937 7.14062 40.3594 3.875 35.5 2.57812C31.7344 1.5625 27.9375 1.60937 24.1719 2.625C21.4062 3.375 19.1406 4.89062 17.6094 7.375C16.3437 9.40625 15.8125 11.6719 15.6719 14.0312C15.625 14.9531 15.6562 15.8906 15.6562 16.8281C16.0312 16.8281 16.2812 16.8281 16.4375 16.8281ZM29.9531 42.6562C31.4844 41.125 32.9844 39.625 34.4687 38.125C34.5469 38.0469 34.6094 37.9219 34.6094 37.8281C34.625 36.8281 34.6094 35.8281 34.6094 34.6719C31.4531 37.0156 28.375 36.9219 25.25 34.6719C25.25 35.7969 25.2344 36.7656 25.2656 37.7344C25.2656 37.8906 25.3594 38.0781 25.4531 38.1875C26.9375 39.6406 28.4062 41.1094 29.9531 42.6562ZM20.1094 40.6406C21.6094 42.875 23.0469 45.0469 24.5312 47.2656C25.8906 46.125 27.2031 45.0312 28.5781 43.9062C27.1406 42.4844 25.75 41.0781 24.3281 39.7031C24.2187 39.6094 23.9687 39.5781 23.8125 39.625C22.6094 39.9375 21.4219 40.2812 20.1094 40.6406ZM35.3594 47.2656C36.8437 45.0469 38.2969 42.875 39.7812 40.6406C39.1562 40.4531 38.5937 40.2969 38.0469 40.1406C37.2969 39.9375 36.4687 39.4375 35.8125 39.625C35.1406 39.8125 34.6406 40.6406 34.0625 41.1875C33.1562 42.0781 32.25 42.9844 31.3281 43.9062C32.7031 45.0469 34.0156 46.1406 35.3594 47.2656ZM18.6719 24.3281C18.6719 22.4219 18.6719 20.5781 18.6719 18.7188C17.4687 18.7188 16.2969 18.7031 15.1406 18.7188C14.4844 18.7344 14.0625 19.1875 14.0469 19.8438C14.0312 20.9531 14.0312 22.0625 14.0469 23.1719C14.0625 23.8281 14.4844 24.2969 15.1406 24.3125C16.2969 24.3438 17.4687 24.3281 18.6719 24.3281ZM41.2031 24.3281C41.4844 24.3281 41.6875 24.3281 41.9062 24.3281C42.8437 24.3281 43.7812 24.3438 44.7031 24.3281C45.3906 24.3125 45.8281 23.875 45.8437 23.1719C45.8594 22.0625 45.8594 20.9531 45.8437 19.8438C45.8281 19.2656 45.5156 18.7969 44.9687 18.7656C43.7187 18.6875 42.4531 18.75 41.2031 18.75C41.2031 20.625 41.2031 22.4375 41.2031 24.3281ZM33.6875 28.0781C33.6875 27.5781 33.2812 27.1562 32.7656 27.1406C32.2344 27.125 31.7969 27.5781 31.8125 28.0938C31.8281 28.5938 32.25 29 32.75 29C33.2656 29 33.6875 28.5781 33.6875 28.0781Z" fill="#F26522"/>
<path d="M29.0156 57.5313C29.0156 57.0781 29 56.6406 29.0156 56.1875C29.0312 55.5938 29.4219 55.2031 29.9531 55.2031C30.4843 55.2031 30.875 55.5938 30.875 56.2031C30.8906 57.0938 30.8906 58 30.875 58.8906C30.8593 59.4844 30.4687 59.875 29.9375 59.875C29.4062 59.875 29.0469 59.4844 29.0156 58.875C29.0156 58.8437 29.0156 58.7969 29.0156 58.7656C29.0156 58.3594 29.0156 57.9531 29.0156 57.5313Z" fill="#F26522"/>
</svg>
