<svg width="60" height="60" viewBox="0 0 60 60" fill="none" xmlns="http://www.w3.org/2000/svg">
<path d="M58.71 19.4999C58.38 19.9049 57.945 20.0099 57.42 19.9949C56.055 19.9649 54.69 19.9949 53.325 19.9799C52.635 19.9799 52.29 19.7099 52.275 19.1699C52.26 18.6149 52.635 18.3149 53.34 18.2999C54.72 18.2849 56.1 18.3149 57.495 18.2849C57.99 18.2849 58.41 18.4049 58.71 18.8099C58.71 19.0499 58.71 19.2749 58.71 19.4999Z" fill="#F26522"/>
<path d="M58.71 33.87C58.41 34.29 58.02 34.425 57.51 34.425C56.34 34.395 55.155 34.425 53.97 34.41C53.805 34.41 53.625 34.41 53.475 34.38C53.04 34.275 52.8 33.975 52.83 33.525C52.86 33.045 53.145 32.76 53.625 32.745C55.05 32.73 56.46 32.715 57.885 32.76C58.17 32.775 58.44 33.12 58.71 33.315C58.71 33.495 58.71 33.69 58.71 33.87Z" fill="#F26522"/>
<path d="M58.71 22.7549C58.485 23.2049 58.11 23.3699 57.615 23.3549C56.445 23.3249 55.26 23.3549 54.09 23.3399C53.445 23.3399 53.1 23.0549 53.1 22.5299C53.085 21.9899 53.445 21.6749 54.105 21.6599C55.305 21.6449 56.49 21.6149 57.69 21.6749C58.05 21.6899 58.38 22.0049 58.725 22.1699C58.71 22.3799 58.71 22.5749 58.71 22.7549Z" fill="#F26522"/>
<path d="M58.71 30.51C58.425 30.93 58.02 31.08 57.51 31.065C56.445 31.035 55.38 31.095 54.315 31.035C54.015 31.02 53.64 30.795 53.46 30.555C53.34 30.375 53.385 29.94 53.535 29.745C53.685 29.55 54.03 29.4 54.285 29.4C55.44 29.37 56.595 29.4 57.75 29.385C58.215 29.385 58.47 29.625 58.695 29.97C58.71 30.135 58.71 30.315 58.71 30.51Z" fill="#F26522"/>
<path d="M47.115 42.12C47.49 42.51 47.865 42.9 48.24 43.29C48.66 43.725 48.72 44.22 48.36 44.58C48 44.955 47.535 44.925 47.07 44.505C46.725 44.19 46.395 43.86 46.035 43.53C45.21 44.4 44.4 45.24 43.56 46.11C43.605 46.17 43.65 46.245 43.71 46.305C46.935 49.38 50.16 52.455 53.37 55.53C53.91 56.055 54.54 56.265 55.275 56.04C55.965 55.83 56.37 55.335 56.505 54.645C56.64 53.94 56.355 53.37 55.845 52.89C53.91 51.045 51.975 49.2 50.04 47.355C49.92 47.235 49.785 47.13 49.695 46.995C49.425 46.635 49.44 46.26 49.755 45.93C50.07 45.6 50.445 45.585 50.82 45.81C50.91 45.87 51 45.945 51.075 46.02C53.115 47.97 55.17 49.905 57.195 51.885C58.17 52.845 58.47 54.03 58.065 55.35C57.66 56.655 56.76 57.48 55.425 57.75C54.18 58.005 53.115 57.615 52.2 56.73C49.455 54.105 46.71 51.48 43.965 48.855C43.395 48.315 42.825 47.775 42.24 47.22C36.345 51.72 29.745 53.49 22.44 52.335C16.02 51.33 10.74 48.195 6.705 43.11C-1.29 32.985 -0.494998 18.87 8.55 9.58496C17.235 0.674959 31.515 -0.405041 41.58 7.03496C52.425 15.06 55.32 30.825 47.115 42.12ZM50.13 27.39C50.16 14.415 39.6 3.82496 26.595 3.77996C13.56 3.73496 2.925 14.31 2.91 27.345C2.88 40.365 13.5 51 26.52 50.985C39.54 50.97 50.115 40.41 50.13 27.39Z" fill="#F26522"/>
<path d="M56.115 25.5299C56.805 25.5299 57.21 25.8449 57.195 26.3849C57.18 26.9099 56.805 27.2099 56.145 27.2099C55.455 27.2099 55.05 26.8949 55.065 26.3549C55.065 25.8299 55.455 25.5299 56.115 25.5299Z" fill="#F26522"/>
<path d="M47.67 27.33C47.595 37.965 39.48 47.115 28.95 48.24C22.365 48.945 16.665 46.995 11.85 42.435C11.79 42.39 11.745 42.33 11.685 42.285C11.25 41.835 11.22 41.37 11.595 41.01C11.94 40.665 12.39 40.695 12.84 41.07C13.68 41.79 14.49 42.555 15.375 43.185C22.8 48.465 33.03 47.79 39.66 41.535C44.28 37.17 46.32 31.77 45.75 25.455C44.94 16.41 37.575 9.045 28.545 8.145C18.585 7.14 9.60001 13.665 7.57501 23.505C6.51001 28.62 7.45501 33.42 10.245 37.86C10.305 37.95 10.365 38.04 10.425 38.145C10.8 38.73 10.755 39.24 10.305 39.525C9.87001 39.795 9.40501 39.645 9.03001 39.09C8.01001 37.575 7.20001 35.955 6.61501 34.23C2.82001 22.98 8.86501 10.995 20.145 7.335C31.77 3.57 44.385 10.77 47.01 22.74C47.34 24.24 47.46 25.8 47.67 27.33Z" fill="#F26522"/>
<path d="M31.14 37.77C28.275 37.77 25.41 37.77 22.56 37.77C19.275 37.77 17.16 35.64 17.16 32.355C17.16 28.335 17.16 24.315 17.16 20.295C17.16 17.085 19.29 14.955 22.5 14.955C27.78 14.955 33.045 14.955 38.325 14.955C38.535 14.955 38.745 14.955 38.94 15.015C39.36 15.135 39.555 15.435 39.525 15.855C39.495 16.26 39.285 16.515 38.88 16.59C38.655 16.635 38.43 16.62 38.205 16.62C33 16.62 27.81 16.62 22.605 16.62C21.78 16.62 21 16.725 20.31 17.22C19.32 17.925 18.825 18.87 18.825 20.085C18.825 24.255 18.825 28.425 18.825 32.595C18.825 34.62 20.235 36.06 22.275 36.09C23.55 36.12 24.825 36.09 26.085 36.09C30.69 36.09 35.295 36.09 39.885 36.09C40.065 36.09 40.26 36.075 40.44 36.105C40.86 36.165 41.115 36.42 41.16 36.84C41.205 37.26 41.01 37.575 40.59 37.695C40.38 37.755 40.155 37.755 39.93 37.755C37.02 37.785 34.08 37.77 31.14 37.77Z" fill="#F26522"/>
<path d="M22.23 19.9949C22.23 24.2849 22.23 28.4699 22.23 32.7299C22.47 32.7299 22.68 32.7299 22.905 32.7299C29.145 32.7299 35.4 32.7299 41.64 32.7299C41.85 32.7299 42.06 32.7149 42.255 32.7449C42.675 32.7899 42.945 33.0449 42.99 33.4649C43.035 33.9149 42.825 34.2299 42.39 34.3499C42.195 34.4099 41.985 34.4099 41.775 34.4099C35.355 34.4099 28.95 34.4099 22.53 34.4099C21.15 34.4099 20.52 33.7649 20.52 32.3699C20.52 28.3499 20.52 24.3299 20.52 20.3099C20.52 18.9299 21.15 18.2999 22.545 18.2999C25.485 18.2999 28.425 18.2999 31.35 18.2999C31.56 18.2999 31.77 18.2999 31.965 18.3599C32.385 18.4649 32.595 18.7649 32.565 19.1849C32.55 19.6049 32.325 19.8899 31.89 19.9499C31.695 19.9799 31.485 19.9799 31.275 19.9799C28.47 19.9799 25.665 19.9799 22.86 19.9799C22.68 19.9949 22.47 19.9949 22.23 19.9949Z" fill="#F26522"/>
<path d="M40.695 23.865C42.075 23.865 43.2 24.99 43.185 26.37C43.185 27.735 42.06 28.86 40.68 28.86C39.27 28.86 38.145 27.72 38.16 26.325C38.19 24.96 39.315 23.85 40.695 23.865ZM41.505 26.34C41.49 25.89 41.115 25.545 40.665 25.545C40.215 25.56 39.84 25.935 39.855 26.37C39.87 26.82 40.245 27.18 40.695 27.165C41.145 27.165 41.52 26.775 41.505 26.34Z" fill="#F26522"/>
<path d="M25.02 26.3249C25.035 24.9449 26.145 23.8499 27.54 23.8649C28.935 23.8649 30.03 24.9749 30.03 26.3549C30.03 27.7649 28.89 28.8749 27.48 28.8449C26.085 28.8299 25.005 27.7199 25.02 26.3249ZM27.495 25.5449C27.03 25.5599 26.685 25.9049 26.7 26.3699C26.715 26.8349 27.06 27.1649 27.525 27.1649C27.99 27.1499 28.335 26.7899 28.32 26.3399C28.32 25.8749 27.96 25.5449 27.495 25.5449Z" fill="#F26522"/>
<path d="M34.11 23.865C35.505 23.865 36.6 24.96 36.6 26.355C36.6 27.75 35.505 28.845 34.125 28.86C32.715 28.875 31.59 27.735 31.59 26.34C31.605 24.96 32.715 23.865 34.11 23.865ZM34.125 25.545C33.66 25.53 33.3 25.875 33.285 26.34C33.27 26.79 33.63 27.165 34.08 27.18C34.545 27.195 34.905 26.85 34.92 26.385C34.92 25.92 34.575 25.56 34.125 25.545Z" fill="#F26522"/>
<path d="M38.22 19.995C37.32 19.995 36.42 19.995 35.535 19.995C34.89 19.995 34.545 19.695 34.53 19.185C34.515 18.66 34.875 18.315 35.535 18.315C37.365 18.3 39.195 18.3 41.025 18.315C41.685 18.315 42.045 18.66 42.03 19.185C42.015 19.695 41.67 19.98 41.025 19.995C40.08 19.995 39.15 19.995 38.22 19.995Z" fill="#F26522"/>
</svg>
