<svg width="60" height="60" viewBox="0 0 60 60" fill="none" xmlns="http://www.w3.org/2000/svg">
<path d="M58.785 46.485C58.455 47.34 57.825 47.625 56.925 47.61C55.035 47.58 53.145 47.625 51.255 47.595C48.495 47.55 45.84 48.045 43.245 48.975C34.695 52.08 26.13 55.14 17.565 58.215C16.32 58.665 15.69 58.35 15.24 57.105C13.155 51.3 11.055 45.48 8.97 39.66C8.655 38.79 8.76 38.355 9.315 38.13C9.855 37.92 10.245 38.22 10.545 39.075C12.585 44.73 14.625 50.4 16.65 56.055C16.725 56.25 16.785 56.43 16.875 56.685C23.055 54.465 29.175 52.26 35.295 50.055C35.295 50.025 35.28 49.995 35.28 49.965C33.9 50.205 32.505 50.43 31.125 50.67C27.36 51.315 23.61 51.96 19.86 52.605C18.975 52.755 18.285 52.275 18.135 51.345C17.385 47.025 16.635 42.69 15.9 38.355C14.865 32.355 13.845 26.34 12.81 20.34C12.525 18.645 12.225 16.95 11.925 15.15C8.97 16.17 6.045 17.16 3.075 18.18C3.15 18.42 3.21 18.6 3.27 18.795C5.175 24.09 7.08 29.37 8.97 34.665C9.015 34.8 9.09 34.95 9.12 35.085C9.225 35.55 9.045 35.91 8.61 36.075C8.16 36.24 7.8 36.075 7.575 35.67C7.515 35.58 7.485 35.46 7.455 35.355C5.445 29.85 3.435 24.315 1.47 18.765C1.335 18.375 1.29 17.82 1.47 17.49C1.68 17.115 2.145 16.785 2.565 16.635C5.37 15.63 8.205 14.67 11.04 13.695C11.235 13.635 11.415 13.56 11.625 13.485C11.475 12.66 11.34 11.865 11.205 11.07C10.98 9.74998 11.37 9.17998 12.69 8.95498C15.72 8.42999 18.765 7.90498 21.87 7.37998C21.87 7.16998 21.87 6.95998 21.87 6.76498C21.87 5.56498 21.87 4.36499 21.87 3.16499C21.885 2.08499 22.425 1.54499 23.49 1.49999C23.625 1.49999 23.745 1.49999 23.88 1.49999C32.565 1.49999 41.25 1.49999 49.92 1.48499C50.67 1.48499 51.225 1.69499 51.765 2.21999C53.835 4.22999 55.935 6.20998 58.005 8.20498C58.29 8.47498 58.515 8.78998 58.77 9.08998C58.785 21.555 58.785 34.02 58.785 46.485ZM38.565 47.7C38.565 47.67 38.565 47.64 38.565 47.61C38.34 47.61 38.115 47.61 37.89 47.61C33.12 47.61 28.35 47.61 23.58 47.61C22.44 47.61 21.855 47.055 21.855 45.945C21.855 40.53 21.855 35.13 21.855 29.715C21.855 29.07 22.185 28.665 22.695 28.665C23.205 28.65 23.52 29.04 23.535 29.7C23.535 29.85 23.535 30 23.535 30.15C23.535 35.19 23.535 40.215 23.535 45.255C23.535 45.465 23.535 45.69 23.535 45.885C34.77 45.885 45.915 45.885 57.06 45.885C57.06 34.05 57.06 22.245 57.06 10.38C56.82 10.38 56.595 10.38 56.385 10.38C54.645 10.38 52.905 10.395 51.165 10.35C49.95 10.32 49.245 9.52498 49.215 8.32498C49.215 8.03998 49.215 7.76999 49.215 7.48498C49.215 6.08998 49.215 4.67999 49.215 3.23999C40.635 3.23999 32.115 3.23999 23.565 3.23999C23.55 3.41999 23.535 3.55499 23.535 3.70499C23.535 5.87999 23.535 8.03998 23.535 10.215C23.535 15.255 23.535 20.28 23.535 25.32C23.535 26.055 23.265 26.415 22.725 26.43C22.17 26.445 21.87 26.055 21.855 25.305C21.855 25.17 21.855 25.05 21.855 24.915C21.855 19.875 21.855 14.85 21.855 9.80999C21.855 9.58498 21.855 9.37498 21.855 9.08998C18.81 9.61498 15.84 10.125 12.84 10.635C15.15 24.09 17.445 37.47 19.755 50.925C26.055 49.845 32.31 48.765 38.565 47.7ZM50.91 3.76499C50.91 5.29499 50.925 6.68998 50.895 8.08498C50.88 8.53499 51.045 8.68499 51.48 8.68499C52.905 8.66998 54.315 8.68499 55.74 8.68499C55.8 8.68499 55.86 8.63998 55.98 8.59498C54.285 6.98998 52.65 5.42999 50.91 3.76499Z" fill="#F26522"/>
<path d="M40.545 25.71C44.4 25.71 48.255 25.71 52.095 25.71C52.275 25.71 52.47 25.695 52.65 25.725C53.085 25.815 53.355 26.1 53.355 26.535C53.355 27 53.085 27.3 52.62 27.375C52.515 27.39 52.395 27.39 52.29 27.39C44.43 27.39 36.585 27.39 28.725 27.39C28.59 27.39 28.455 27.405 28.335 27.375C27.9 27.285 27.63 27.015 27.63 26.565C27.63 26.115 27.87 25.83 28.32 25.725C28.5 25.68 28.695 25.71 28.875 25.71C32.76 25.71 36.645 25.71 40.545 25.71Z" fill="#F26522"/>
<path d="M40.53 19.74C44.385 19.74 48.24 19.74 52.08 19.74C52.26 19.74 52.455 19.725 52.635 19.755C53.07 19.815 53.37 20.1 53.325 20.49C53.295 20.79 53.04 21.105 52.8 21.315C52.65 21.45 52.335 21.405 52.095 21.405C44.34 21.405 36.57 21.405 28.815 21.405C28.725 21.405 28.635 21.405 28.53 21.405C27.93 21.375 27.57 21.015 27.585 20.52C27.615 20.04 27.96 19.725 28.545 19.725C32.565 19.74 36.555 19.74 40.53 19.74Z" fill="#F26522"/>
<path d="M40.53 33.3749C36.615 33.3749 32.715 33.3749 28.8 33.3749C28.62 33.3749 28.38 33.4349 28.245 33.3449C28.005 33.165 27.72 32.91 27.63 32.64C27.51 32.28 27.735 31.935 28.11 31.8C28.335 31.725 28.59 31.71 28.83 31.71C36.585 31.71 44.355 31.71 52.11 31.71C52.2 31.71 52.29 31.71 52.395 31.71C52.995 31.74 53.37 32.085 53.37 32.58C53.355 33.075 52.98 33.3899 52.365 33.3899C48.42 33.3749 44.475 33.3749 40.53 33.3749Z" fill="#F26522"/>
<path d="M40.47 13.755C44.325 13.755 48.18 13.755 52.02 13.755C52.23 13.755 52.44 13.74 52.635 13.785C53.115 13.86 53.37 14.175 53.355 14.64C53.34 15.075 53.07 15.36 52.62 15.42C52.41 15.45 52.215 15.435 52.005 15.435C44.325 15.435 36.63 15.435 28.95 15.435C28.725 15.435 28.5 15.435 28.275 15.405C27.84 15.33 27.63 15.045 27.615 14.625C27.6 14.205 27.81 13.905 28.245 13.815C28.455 13.77 28.695 13.77 28.92 13.77C32.775 13.755 36.63 13.755 40.47 13.755Z" fill="#F26522"/>
<path d="M40.47 37.695C44.34 37.695 48.21 37.695 52.08 37.695C52.26 37.695 52.455 37.695 52.635 37.71C53.085 37.77 53.34 38.07 53.355 38.505C53.37 38.925 53.145 39.225 52.725 39.315C52.53 39.36 52.32 39.375 52.11 39.375C44.355 39.375 36.585 39.375 28.83 39.375C28.605 39.375 28.38 39.36 28.17 39.3C27.765 39.165 27.51 38.835 27.645 38.445C27.735 38.16 28.035 37.92 28.305 37.725C28.44 37.62 28.71 37.695 28.905 37.695C32.775 37.695 36.63 37.695 40.47 37.695Z" fill="#F26522"/>
</svg>
