<svg width="60" height="60" viewBox="0 0 60 60" fill="none" xmlns="http://www.w3.org/2000/svg">
<path d="M58.695 32.0551C58.47 32.4901 58.11 32.6851 57.63 32.7451C56.91 32.85 56.205 33.0301 55.425 33.1951C56.145 34.08 56.52 35.01 56.28 36.09C56.13 36.7801 55.74 37.32 55.17 37.725C54 38.565 52.32 38.46 51.36 37.485C50.235 36.36 50.355 34.875 51.75 33C51.06 32.8801 50.4 32.7751 49.8 32.6701C49.545 33.9151 49.41 35.1 49.02 36.195C48.54 37.56 47.97 38.925 47.22 40.155C45.915 42.315 45.195 44.595 45.225 47.115C45.24 48.81 45.225 50.52 45.225 52.23C45.225 53.07 44.925 53.385 44.07 53.385C42.15 53.385 40.215 53.37 38.295 53.4C37.71 53.4 37.365 53.175 37.11 52.65C36.495 51.39 35.865 50.145 35.205 48.825C30.525 50.115 25.845 50.13 21.135 48.81C20.505 50.055 19.875 51.255 19.305 52.5C18.99 53.175 18.555 53.415 17.82 53.4C15.975 53.355 14.115 53.385 12.27 53.385C11.43 53.385 11.115 53.085 11.115 52.245C11.115 50.58 11.115 48.915 11.115 47.25C11.13 44.715 10.47 42.375 9.12001 40.23C8.61001 39.405 7.89001 38.895 6.91501 38.76C5.34001 38.55 3.76501 38.34 2.19001 38.13C1.50001 38.04 1.23001 37.74 1.23001 37.0651C1.23001 35.0851 1.23001 33.1051 1.23001 31.1101C1.23001 30.5101 1.50001 30.1951 2.05501 30.0151C3.57001 29.5351 5.07001 29.0101 6.58501 28.5301C6.93001 28.4251 7.09501 28.2451 7.18501 27.9001C7.81501 25.5001 8.97001 23.3551 10.605 21.4651C10.83 21.2101 10.905 21.0301 10.725 20.7001C9.58501 18.6751 8.85001 16.5151 8.47501 14.2201C8.34001 13.4401 8.71501 12.9751 9.49501 12.9751C12.585 12.9601 15.45 13.7701 18.06 15.4051C18.45 15.6451 18.765 15.6901 19.185 15.5251C22.335 14.3251 25.605 13.8001 28.965 13.8901C29.28 13.9051 29.67 14.0101 29.865 14.2201C30.045 14.4301 30.135 14.8951 30.015 15.1201C29.895 15.3751 29.505 15.6301 29.205 15.6601C28.185 15.7501 27.15 15.7201 26.13 15.7951C24.15 15.9451 22.215 16.3801 20.28 17.0401C20.715 17.5201 21.135 17.9701 21.51 18.4351C21.9 18.9301 22.26 19.4701 22.59 20.0101C22.92 20.5351 22.815 21.0601 22.365 21.3301C21.9 21.6151 21.39 21.4651 21.045 20.9101C18.63 17.1151 15.105 15.3151 10.77 14.8501C10.665 14.8351 10.56 14.8501 10.26 14.8501C10.74 16.1701 11.16 17.4301 11.655 18.6451C11.925 19.3201 12.315 19.9351 12.69 20.5651C12.99 21.0751 12.96 21.4951 12.555 21.9301C10.605 23.9551 9.30001 26.3401 8.70001 29.1001C8.59501 29.5651 8.32501 29.8351 7.87501 29.9851C6.40501 30.4651 4.93501 30.9751 3.45001 31.4401C3.10501 31.5451 2.98501 31.6951 2.98501 32.0701C3.00001 33.5101 3.00001 34.95 3.00001 36.45C4.17001 36.6 5.29501 36.81 6.45001 36.9C8.49001 37.065 9.94501 38.01 10.935 39.81C12.18 42.075 12.87 44.46 12.885 47.04C12.885 48.555 12.885 50.055 12.885 51.63C14.46 51.63 15.99 51.645 17.52 51.615C17.655 51.615 17.835 51.39 17.91 51.225C18.9 49.275 19.875 47.31 20.85 45.36C20.94 45.195 21.015 45.015 21.12 44.865C21.39 44.49 21.885 44.385 22.275 44.625C22.665 44.865 22.845 45.225 22.665 45.675C22.47 46.17 22.215 46.65 21.96 47.19C26.1 48.285 30.18 48.285 34.35 47.19C34.14 46.755 33.945 46.365 33.765 45.975C33.465 45.36 33.6 44.805 34.095 44.58C34.575 44.355 35.07 44.565 35.37 45.165C36.375 47.175 37.395 49.17 38.37 51.18C38.535 51.51 38.715 51.645 39.09 51.63C40.515 51.6 41.925 51.615 43.44 51.615C43.44 51.39 43.44 51.195 43.44 51C43.455 49.17 43.41 47.325 43.515 45.51C43.65 43.23 44.49 41.16 45.735 39.24C47.265 36.8701 48.03 34.2451 47.895 31.4251C47.85 30.3001 47.55 29.1751 47.355 28.0651C47.325 27.9151 47.265 27.7801 47.235 27.6301C47.13 27.0901 47.37 26.6701 47.85 26.5201C48.315 26.3851 48.81 26.6251 48.93 27.1501C49.185 28.1551 49.38 29.1901 49.59 30.2101C49.635 30.4501 49.65 30.6901 49.68 30.9451C51.03 31.0051 52.305 31.2901 53.49 31.8751C53.625 31.9501 53.85 31.8751 54.015 31.8451C55.065 31.5901 56.115 31.3351 57.165 31.0501C57.795 30.8851 58.29 30.9901 58.68 31.5451C58.695 31.6801 58.695 31.8751 58.695 32.0551ZM54.54 35.505C54.555 35.025 53.91 34.0651 53.55 34.05C53.16 34.0201 52.35 35.04 52.35 35.535C52.35 36.09 52.725 36.495 53.28 36.525C53.94 36.54 54.525 36.075 54.54 35.505Z" fill="#F26522"/>
<path d="M41.865 26.475C41.955 26.745 42.03 26.985 42.105 27.21C42.285 27.795 42.06 28.29 41.565 28.44C41.055 28.605 40.59 28.35 40.395 27.765C39.99 26.475 39.33 25.335 38.37 24.375C36.585 22.605 34.41 21.825 31.905 21.975C31.65 21.99 31.305 22.02 31.155 21.885C30.93 21.675 30.675 21.3 30.705 21.03C30.735 20.76 31.05 20.43 31.335 20.295C31.635 20.145 32.025 20.19 32.385 20.145C30.15 14.175 33.84 8.07004 39.585 6.82504C44.985 5.65504 50.415 9.28504 51.39 14.64C52.5 20.58 48.18 26.22 41.865 26.475ZM49.71 16.59C49.725 11.625 45.375 7.89004 40.395 8.58004C35.145 9.31504 31.98 15.225 34.32 19.965C34.41 20.16 34.665 20.355 34.875 20.4C37.275 21 39.21 22.275 40.68 24.27C40.815 24.45 41.115 24.615 41.355 24.63C45.885 24.81 49.695 21.135 49.71 16.59Z" fill="#F26522"/>
<path d="M13.74 24.645C15.24 24.63 16.47 25.845 16.47 27.33C16.47 28.8 15.285 30.015 13.815 30.03C12.33 30.045 11.1 28.845 11.085 27.345C11.07 25.89 12.285 24.66 13.74 24.645ZM14.67 27.375C14.685 26.895 14.295 26.475 13.815 26.46C13.32 26.43 12.885 26.85 12.885 27.36C12.885 27.84 13.29 28.245 13.77 28.245C14.25 28.245 14.655 27.855 14.67 27.375Z" fill="#F26522"/>
<path d="M42.555 21.06C42.435 21.555 42.18 21.93 41.625 21.93C41.07 21.93 40.8 21.555 40.695 21.075C38.955 20.91 37.965 19.905 38.025 18.42C38.055 17.85 38.4 17.46 38.91 17.46C39.42 17.445 39.78 17.82 39.825 18.39C39.885 19.065 40.02 19.215 40.725 19.23C40.725 18.645 40.74 18.045 40.71 17.46C40.71 17.34 40.56 17.19 40.425 17.13C40.2 17.01 39.93 16.965 39.69 16.875C38.55 16.44 37.86 15.33 38.055 14.175C38.25 12.99 39.18 12.165 40.41 12.075C40.485 12.075 40.56 12.06 40.665 12.06C40.815 11.565 41.07 11.13 41.7 11.19C42.195 11.235 42.435 11.58 42.54 12.03C44.085 12.24 44.865 12.825 45.135 13.995C45.195 14.235 45.21 14.475 45.195 14.715C45.18 15.285 44.805 15.66 44.295 15.66C43.815 15.66 43.455 15.3 43.41 14.76C43.335 14.025 43.2 13.89 42.51 13.905C42.51 14.475 42.495 15.06 42.525 15.63C42.525 15.75 42.66 15.915 42.78 15.975C43.005 16.095 43.275 16.14 43.515 16.23C44.67 16.65 45.36 17.76 45.18 18.915C45 20.085 44.07 20.94 42.84 21.045C42.765 21.06 42.675 21.06 42.555 21.06ZM40.71 13.89C40.23 13.815 39.93 13.995 39.84 14.46C39.765 14.88 40.08 15.15 40.71 15.225C40.71 14.79 40.71 14.355 40.71 13.89ZM42.54 19.26C43.05 19.26 43.395 19.095 43.395 18.615C43.41 18.075 43.02 17.925 42.54 17.865C42.54 18.33 42.54 18.765 42.54 19.26Z" fill="#F26522"/>
</svg>
