<svg width="24" height="24" viewBox="0 0 24 24" fill="none" xmlns="http://www.w3.org/2000/svg">
<path fill-rule="evenodd" clip-rule="evenodd" d="M0 12C0 18.6274 5.37258 24 12 24C18.6274 24 24 18.6274 24 12C24 5.37258 18.6274 0 12 0C5.37258 0 0 5.37258 0 12ZM19.5311 11.5408C19.5295 15.4741 16.3297 18.6747 12.3955 18.6763H12.3926C11.1983 18.6758 10.0249 18.3762 8.98267 17.8077L5.2 18.8L6.21231 15.1024C5.58787 14.0203 5.25929 12.7927 5.25982 11.5351C5.26139 7.60085 8.46241 4.4 12.3955 4.4C14.3043 4.40082 16.0959 5.14393 17.4431 6.49271C18.7903 7.84141 19.5318 9.63417 19.5311 11.5408Z" fill="white"/>
<path fill-rule="evenodd" clip-rule="evenodd" d="M6.91325 17.1045L9.15794 16.5157L9.37451 16.6442C10.2851 17.1846 11.3289 17.4705 12.3931 17.4709H12.3955C15.6644 17.4709 18.325 14.8103 18.3263 11.5401C18.3269 9.95537 17.7106 8.4653 16.5908 7.34426C15.4711 6.22321 13.982 5.60553 12.3979 5.60498C9.12647 5.60498 6.4659 8.26532 6.4646 11.5353C6.46414 12.6559 6.7777 13.7473 7.37138 14.6916L7.51239 14.916L6.91325 17.1045ZM15.7462 13.0768C15.8706 13.1369 15.9545 13.1775 15.9904 13.2373C16.035 13.3117 16.035 13.6686 15.8865 14.0852C15.7378 14.5016 15.0255 14.8818 14.683 14.9329C14.3758 14.9789 13.9871 14.998 13.56 14.8623C13.301 14.7801 12.9689 14.6704 12.5436 14.4867C10.8721 13.765 9.74253 12.145 9.52904 11.8388C9.51408 11.8173 9.50362 11.8023 9.49779 11.7945L9.49635 11.7926C9.40199 11.6667 8.76977 10.8232 8.76977 9.95015C8.76977 9.12888 9.17319 8.69841 9.35888 8.50027C9.37161 8.48669 9.38331 8.47421 9.39378 8.46276C9.55721 8.28426 9.75038 8.23964 9.86923 8.23964C9.98808 8.23964 10.1071 8.24074 10.2109 8.24596C10.2238 8.2466 10.2371 8.24652 10.2509 8.24644C10.3548 8.24583 10.4843 8.24507 10.6121 8.55201C10.6613 8.67014 10.7332 8.84527 10.8091 9.02998C10.9625 9.40348 11.132 9.81615 11.1618 9.87586C11.2064 9.96512 11.2361 10.0692 11.1767 10.1882C11.1678 10.2061 11.1595 10.2229 11.1516 10.239C11.107 10.3302 11.0741 10.3972 10.9984 10.4856C10.9686 10.5204 10.9378 10.5579 10.907 10.5954C10.8457 10.6701 10.7843 10.7448 10.7309 10.798C10.6417 10.8869 10.5488 10.9834 10.6528 11.1619C10.7568 11.3404 11.1146 11.9242 11.6446 12.397C12.2144 12.9052 12.7096 13.12 12.9606 13.2289C13.0096 13.2501 13.0493 13.2674 13.0784 13.2819C13.2567 13.3712 13.3607 13.3563 13.4647 13.2373C13.5687 13.1183 13.9104 12.7167 14.0292 12.5382C14.1481 12.3598 14.267 12.3895 14.4304 12.449C14.5938 12.5085 15.4704 12.9398 15.6487 13.0291C15.6835 13.0465 15.7161 13.0622 15.7462 13.0768Z" fill="white"/>
</svg>
